<svg width="17" height="22" viewBox="0 0 17 22" fill="none" xmlns="http://www.w3.org/2000/svg">
<path fill-rule="evenodd" clip-rule="evenodd" d="M14.4925 2.96351C11.1076 -0.231325 5.62082 -0.231325 2.23588 2.96351C-0.983742 6.00764 -0.535041 10.9054 2.3697 14.6427L8.36812 21.5674L14.3902 14.6126L14.398 14.6051C17.5862 10.9807 17.7751 6.06792 14.4925 2.96351ZM10.3518 9.34564C10.2338 9.6169 10.0606 9.86555 9.84017 10.0765C9.62763 10.2875 9.36786 10.4533 9.0766 10.5663C8.79321 10.6793 8.4862 10.7396 8.17132 10.7396C7.86432 10.7396 7.55731 10.6793 7.26605 10.5663C6.98266 10.4533 6.72289 10.2875 6.50247 10.0765C6.28206 9.86555 6.10888 9.6169 5.9908 9.34564C5.87272 9.06684 5.80974 8.77298 5.80974 8.47912C5.80974 8.18525 5.87272 7.89139 5.9908 7.61259C6.10888 7.34133 6.28206 7.09268 6.50247 6.8817C6.72289 6.67072 6.98266 6.50495 7.26605 6.39192C7.55731 6.2789 7.86432 6.21862 8.17132 6.21862C8.4862 6.21862 8.79321 6.2789 9.0766 6.39192C9.36786 6.50495 9.62763 6.67072 9.84017 6.8817C10.0606 7.09268 10.2338 7.34133 10.3518 7.61259C10.4778 7.89139 10.5329 8.18525 10.5329 8.47912C10.5329 8.77298 10.4778 9.06684 10.3518 9.34564Z" fill="white"/>
</svg>
