<svg width="17" height="14" viewBox="0 0 17 14" fill="none" xmlns="http://www.w3.org/2000/svg">
<path d="M6.80875 6.99993C6.80875 6.06105 7.56598 5.29993 8.50007 5.29993C9.43415 5.29993 10.1914 6.06105 10.1914 6.99993C10.1914 7.93882 9.43415 8.69993 8.50007 8.69993C7.56598 8.69993 6.80875 7.93882 6.80875 6.99993Z" fill="#F96A38"/>
<path fill-rule="evenodd" clip-rule="evenodd" d="M16.3929 6.99991C16.9162 6.78948 16.9162 6.78924 16.916 6.78897L16.9151 6.78666L16.9132 6.78179L16.9067 6.76597C16.9012 6.75277 16.8935 6.73433 16.8834 6.71098C16.8633 6.6643 16.8338 6.59797 16.7948 6.51481C16.7169 6.34856 16.6003 6.11448 16.4428 5.83514C16.1285 5.2776 15.6476 4.53352 14.9796 3.78752C13.6428 2.29464 11.5286 0.766602 8.49998 0.766602C5.47142 0.766602 3.35712 2.29464 2.0204 3.78752C1.35243 4.53352 0.871475 5.2776 0.557149 5.83515C0.399669 6.11448 0.283135 6.34856 0.205162 6.51481C0.166155 6.59798 0.136734 6.66431 0.116609 6.71099C0.106545 6.73433 0.0987995 6.75278 0.0933366 6.76597L0.0868473 6.78179L0.0848767 6.78667L0.0842083 6.78833C0.0841027 6.7886 0.0837506 6.78948 0.6072 6.99993L0.0837506 6.78948L0 6.99993L0.0837506 7.21039L0.6072 6.99993C0.0837506 7.21039 0.083645 7.21012 0.0837506 7.21039L0.0842083 7.21154L0.0848767 7.2132L0.0868473 7.21808L0.0933366 7.2339C0.0987995 7.24709 0.106545 7.26554 0.116609 7.28888C0.136734 7.33556 0.166155 7.40189 0.205162 7.48506C0.283135 7.65131 0.399669 7.88539 0.557149 8.16472C0.871475 8.72227 1.35243 9.46635 2.0204 10.2123C3.35712 11.7052 5.47142 13.2333 8.49998 13.2333C11.5286 13.2333 13.6428 11.7052 14.9796 10.2123C15.6476 9.46635 16.1285 8.72227 16.4428 8.16473C16.6003 7.88539 16.7169 7.65131 16.7948 7.48506C16.8338 7.40189 16.8633 7.33557 16.8834 7.28889C16.8935 7.26554 16.9012 7.2471 16.9067 7.2339L16.9132 7.21808L16.9151 7.2132L16.9158 7.21154C16.9159 7.21127 16.9162 7.21035 16.3929 6.99991L16.9162 7.21039L17 6.99993L16.916 6.78897L16.3929 6.99991ZM8.50007 4.1666C6.94325 4.1666 5.68121 5.43513 5.68121 6.99993C5.68121 8.56474 6.94325 9.83327 8.50007 9.83327C10.0569 9.83327 11.3189 8.56474 11.3189 6.99993C11.3189 5.43513 10.0569 4.1666 8.50007 4.1666Z" fill="#F96A38"/>
</svg>
