<svg width="16" height="14" viewBox="0 0 16 14" fill="none" xmlns="http://www.w3.org/2000/svg">
<path fill-rule="evenodd" clip-rule="evenodd" d="M15.53 1.06138C15.217 0.731383 14.848 0.567383 14.422 0.567383H1.57702C1.15102 0.567383 0.782023 0.732383 0.469023 1.06138C0.156023 1.39038 -0.000976562 1.76138 -0.000976562 2.20138V11.9314C-0.000976562 12.3614 0.155023 12.7414 0.469023 13.0714C0.783023 13.4014 1.15202 13.5674 1.57702 13.5674H14.422C14.848 13.5674 15.217 13.4024 15.53 13.0734C15.843 12.7444 16 12.3734 16 11.9334V2.20338C16 1.77338 15.844 1.39338 15.53 1.06338V1.06138ZM14.423 3.07738V4.58738L8.00002 8.30438L1.57702 4.58438V3.07738L8.00002 6.83038L14.423 3.07638V3.07738Z" fill="white"/>
</svg>
