<svg width="253" height="142" viewBox="0 0 253 142" fill="none" xmlns="http://www.w3.org/2000/svg">
<path d="M49.2167 140.304C49.2167 140.304 24.6076 139.646 14.0918 122.878C-4.95961 92.5075 3.62586 65.8663 37.5426 67.8493C75.4846 70.0676 70.8053 -24.0884 136.502 21.2421C150.764 31.0863 182.518 10.4123 195.203 53.4822C198.219 63.724 220.872 64.4375 235.512 72.6514C258.476 85.5346 251.99 140.515 230.296 140.732C208.602 140.949 49.2167 140.304 49.2167 140.304Z" fill="#C2E7F2" fill-opacity="0.6"/>
<path d="M26.5364 74.6764C27.6338 74.9328 32.5928 74.9933 36.0748 74.2038C36.7386 74.0639 37.3875 73.8599 38.0125 73.5947C38.6693 73.3034 39.1634 72.9535 39.416 72.5267C39.8093 71.8654 40.5288 69.6031 41.3755 66.6356C43.7074 58.461 46.9922 44.9531 46.9922 44.9531C46.9922 44.9531 40.4025 46.3096 39.009 47.4664C37.6155 48.6232 36.3828 66.9854 35.071 67.481C34.8784 67.5542 34.545 67.7081 34.1172 67.9206L34.0545 67.9517C33.8001 68.0781 33.5094 68.2265 33.2033 68.3859C30.4826 69.7946 25.9805 72.3344 25.5144 72.8986C24.8967 73.6396 24.9367 74.3045 26.5364 74.6764Z" fill="#739AF0"/>
<path d="M39.18 55.4064C39.1819 55.0914 39.2123 54.7771 39.2709 54.4676C40.1184 49.7672 46.8598 44.9531 46.9924 44.9531V45.0511C46.9924 45.7692 48.1161 47.0954 49.8458 47.2099C51.8979 47.3455 54.4297 46.1621 54.4297 44.9714C54.4415 44.9714 55.5825 45.1271 55.974 45.1711C57.6191 45.3589 60.9012 46.2546 62.3084 47.3272C63.6456 48.3457 61.7552 54.7681 60.5824 59.3156C60.0864 61.239 59.7212 62.8281 59.7812 63.5288C59.8111 63.8722 60.1173 68.5407 60.3907 72.7639C60.6169 76.2444 60.8213 79.4272 60.8277 79.6269C60.8422 80.0225 58.8909 81.4083 55.6142 82.4552C54.7604 82.7279 53.8929 82.9547 53.0153 83.1348C51.1533 83.5207 49.2567 83.7116 47.3558 83.7045C46.679 83.7045 46.0386 83.6679 45.4327 83.6065C40.7561 83.144 39.1528 77.7657 39.18 55.4064Z" fill="#739AF0"/>
<path d="M54.4282 44.9175C54.4673 43.0921 54.4382 40.9113 54.193 39.0703L46.9656 40.261C46.9656 40.261 46.9583 42.4858 46.9901 44.9532C46.9855 44.9532 46.793 47.243 49.5891 47.5773C52.3852 47.9116 54.5036 46.6843 54.4282 44.9175Z" fill="#D9935C"/>
<path d="M48.3811 141.408C49.2895 140.843 48.7563 136.664 48.7563 136.664C48.7563 136.664 44.4994 133.257 43.9253 135.88C43.3512 138.503 39.9083 139.693 37.947 140.021C36.5926 140.248 36.0929 140.954 35.9648 141.402L48.3811 141.408Z" fill="#233862"/>
<path d="M55.002 69.5495C55.002 76.5379 58.3631 74.6548 60.3889 72.768C60.1164 68.5447 59.9238 53.5869 59.9238 53.5869C59.9238 53.5869 55.002 59.5422 55.002 69.5495Z" fill="#4A75CB"/>
<path d="M33.2012 68.3858C33.3356 69.3658 34.8708 72.2189 36.0754 74.2037C36.7392 74.0638 37.3881 73.8599 38.0131 73.5946C38.6699 73.3034 39.164 72.9535 39.4166 72.5267C39.8099 71.8654 40.5294 69.6031 41.376 66.6355C40.7501 62.9828 40.1542 59.376 40.1542 59.376L39.9725 56.957C39.9725 57.1402 37.1637 67.7712 35.891 68.0194C35.1243 68.1697 34.5811 67.9874 34.1178 67.9205L34.0551 67.9517C33.798 68.0781 33.5109 68.2246 33.2012 68.3858Z" fill="#4A75CB"/>
<path d="M61.4246 141.408C62.3331 140.843 61.7989 136.664 61.7989 136.664C61.7989 136.664 57.542 133.257 56.9688 135.88C56.3956 138.503 52.9518 139.693 50.9896 140.021C49.6361 140.248 49.1437 140.954 49.0156 141.402L61.4246 141.408Z" fill="#233862"/>
<path d="M55.1175 36.9684C55.1175 36.9684 59.9421 29.2986 50.6771 28.7912C50.6771 28.7912 47.2024 29.2033 46.4157 28.4102C46.4157 28.4102 43.7204 32.5409 46.234 36.9684C48.7476 41.396 55.1175 36.9684 55.1175 36.9684Z" fill="#233862"/>
<path d="M47.179 40.9717C47.8812 41.5286 49.9406 42.0827 50.5401 42.1468C50.5401 42.1468 53.5942 41.4608 54.1493 41.1228C55.0086 40.598 54.9532 39.5337 54.9977 38.0554C55.0504 36.306 55.2248 34.9313 55.0313 33.9228C54.8006 32.7157 54.0421 32.0287 51.9173 31.8428C48.0165 31.5012 46.3923 32.4839 46.3241 33.8047C46.3069 34.1582 46.2905 34.4962 46.2787 34.8122C46.1179 38.9274 46.4404 40.3855 47.179 40.9717Z" fill="#D9935C"/>
<path d="M46.2395 36.1641C46.2776 38.5454 46.9144 39.9559 47.3759 40.1336C47.9622 40.3541 48.5682 40.5173 49.1855 40.6209C49.4053 40.6475 49.6161 40.6401 49.6133 40.5137C49.6061 40.1382 49.1082 39.6757 49.478 39.3423C49.8659 38.9933 51.9489 38.8761 52.1124 39.6372C52.1941 40.0091 51.5228 40.6639 51.9825 40.6795C52.1224 40.6557 52.255 40.6282 52.3904 40.5934C52.957 40.4355 53.4977 40.1952 53.9955 39.8799C54.8549 39.3542 54.7986 38.5491 54.9884 37.0827C55.112 36.1338 55.112 36.6477 54.9884 38.0554C54.8604 39.5291 55.112 40.4744 54.1409 41.1228C53.5958 41.4837 50.4872 42.8942 50.4872 42.8942C50.5317 42.1468 47.8773 41.5286 47.1751 40.9708C46.5274 40.4551 46.2004 39.2599 46.2395 36.1641Z" fill="#233862"/>
<path d="M60.8246 79.6304C60.84 80.0261 58.8878 81.4119 55.6111 82.4588C55.3477 82.544 55.0743 82.6255 54.7936 82.7042C54.7918 82.7047 54.7902 82.7056 54.7889 82.7069C54.7876 82.7082 54.7867 82.7098 54.7863 82.7116C54.4811 86.3276 53.6535 91.4366 52.9068 96.366C52.7133 97.6437 52.5271 98.9095 52.3545 100.134C51.9003 103.375 51.5587 106.327 51.5214 108.452V108.474C51.5051 109.45 52.3209 111.883 52.3826 112.444C52.4208 112.788 52.4517 113.152 52.4735 113.532C52.5643 115.054 52.5271 116.853 52.4044 118.774C51.8694 127.155 49.6728 137.879 48.8898 138.336C47.3318 139.244 44.4966 138.336 43.0559 138.123C42.4591 138.031 41.9821 137.521 42.0121 136.914C42.7161 123.004 40.6949 103.632 39.1833 91.7242C39.1439 91.4134 39.1052 91.1081 39.067 90.8083C38.8853 89.4042 38.7663 88.0926 38.6918 86.9101C38.6228 85.8733 38.5892 84.9318 38.5746 84.1148C38.5746 83.861 38.5683 83.6174 38.5674 83.3884C38.5674 82.6429 39.1515 77.762 39.1787 55.4027C39.1799 55.1539 39.2786 54.9157 39.4531 54.7398C39.6277 54.564 39.864 54.4648 40.1108 54.4639H53.6726C53.9838 54.4641 54.2919 54.5266 54.579 54.6479C54.866 54.7691 55.1264 54.9466 55.3448 55.1701C55.5633 55.3936 55.7355 55.6587 55.8516 55.9498C55.9676 56.241 56.0252 56.5525 56.0208 56.8663C56 58.5717 56.0608 60.9531 56.4287 63.2255C56.9293 66.3304 58.0012 69.2311 60.2132 69.9291C60.2132 69.9291 60.2177 69.9291 60.2186 69.9337C60.2286 69.9556 60.2886 70.0921 60.3858 70.3174C60.4064 70.8792 60.4297 71.451 60.4557 72.0329C60.4612 72.1493 60.4657 72.2674 60.4721 72.3856C60.4721 72.4552 60.4785 72.5229 60.4821 72.5926C60.4821 72.7107 60.493 72.8289 60.4994 72.9488C60.5075 73.1449 60.5175 73.3418 60.5284 73.5414C60.5375 73.6981 60.5457 73.8538 60.5548 74.0113C60.5702 74.3145 60.5893 74.6204 60.6084 74.9272C60.6138 75.0261 60.6193 75.1241 60.6274 75.2249C60.6529 75.6242 60.6801 76.03 60.711 76.4385C60.7192 76.563 60.7292 76.6885 60.7392 76.8149C60.7392 76.8763 60.7473 76.9367 60.7528 76.9981C60.7646 77.1584 60.7773 77.3187 60.791 77.4799C60.8046 77.6411 60.8191 77.8206 60.8337 77.9937C60.8909 78.6303 60.8091 79.1899 60.8246 79.6304Z" fill="#2B478B"/>
<path d="M52.405 118.776C51.8699 127.158 49.6733 137.881 48.8903 138.338C47.3324 139.246 44.4972 138.338 43.0564 138.125C42.4596 138.033 41.9827 137.523 42.0127 136.916C42.7167 123.007 40.6954 103.634 39.1838 91.7264C39.1445 91.4156 39.1057 91.1103 39.0676 90.8105C38.8859 89.4064 38.7669 88.0948 38.6924 86.9123C39.4109 82.1908 43.4661 81.938 47.1407 91.7044C46.6892 94.9476 52.5276 116.855 52.405 118.776Z" fill="#233862"/>
<path d="M60.9824 108.059C61.0932 109.028 62.2178 111.332 62.3532 111.881C64.2127 119.42 63.1853 137.295 62.2623 138.01C60.8361 139.116 57.9074 138.591 56.4484 138.571C55.8452 138.562 55.3047 138.113 55.2566 137.512C54.1129 123.269 49.3764 103.706 46.3296 92.1986C44.7952 86.4018 44.5781 82.1391 44.5781 82.1391C44.5781 82.1391 58.8167 73.3463 60.3565 78.1485C61.7191 82.4001 60.1185 100.62 60.9824 108.059Z" fill="#2B478B"/>
<path d="M46.4753 26.6464C46.5734 26.5353 46.6773 26.4272 46.7869 26.3222C47.2803 25.8502 47.8555 25.4737 48.4838 25.2112C50.9665 24.167 53.0259 25.1306 54.3122 26.1179C54.4385 26.2141 54.5575 26.3112 54.6693 26.4073C55.0711 26.746 55.4365 27.1264 55.7594 27.5422C55.7594 27.5422 56.9657 29.2 56.9258 32.696L44.5058 32.8297C44.5058 32.8297 44.3223 29.0543 46.4753 26.6464Z" fill="#FFA412"/>
<path d="M53.4418 32.7326L52.7596 32.7399C52.7451 32.5403 52.7787 27.9964 54.4602 26.2314C54.5874 26.3285 54.5601 26.3111 54.6718 26.4073C53.0721 27.9616 53.4355 32.6859 53.4418 32.7326Z" fill="#E27F2B"/>
<path d="M48.0423 32.7912C47.9006 30.0086 46.8432 27.085 46.5579 26.563C46.6297 26.4776 46.7061 26.3962 46.7868 26.3193C46.9849 26.6637 48.6037 29.6908 48.7763 32.7811L56.9248 32.6895C56.9248 32.6895 52.7951 33.6237 50.3042 33.6549C47.8133 33.686 44.5049 32.8232 44.5049 32.8232L48.0423 32.7912Z" fill="#E27F2B"/>
<path d="M56.4568 45.2383C56.4568 45.2383 52.2608 50.1668 52.0137 54.468L54.1521 54.5824C54.1521 54.5824 54.6899 49.7922 57.8485 45.5332C57.8485 45.5332 57.3543 45.4123 57.1898 45.3793C56.97 45.3381 56.4568 45.2383 56.4568 45.2383Z" fill="#2B478B"/>
<path d="M45.9928 45.1709C42.9868 49.7578 42.6652 54.5618 42.6652 54.5618L40.5068 54.5242C40.684 51.1436 42.7906 47.425 43.9534 45.6627C43.9543 45.6627 45.4477 45.2826 45.9928 45.1709Z" fill="#2B478B"/>
<path d="M50.6802 92.4715H52.4126C53.2183 92.1051 57.5569 90.2074 61.7275 90.1817C64.7371 90.1652 68.1655 92.4321 68.3717 92.4559C68.8949 92.5182 66.6284 92.5393 66.6284 92.5393C66.6284 92.5393 63.2327 91.0271 61.7084 90.9914C60.2549 90.9566 57.0246 92.0227 55.7347 92.4715H65.4457C65.8369 92.4725 66.2118 92.6296 66.4884 92.9085C66.765 93.1874 66.9209 93.5654 66.9218 93.9599V105.125C66.9204 105.519 66.7644 105.897 66.4878 106.175C66.2113 106.454 65.8366 106.611 65.4457 106.612H50.6802C50.2888 106.611 49.9138 106.454 49.6371 106.175C49.3603 105.896 49.2043 105.518 49.2031 105.123V93.958C49.2048 93.5638 49.361 93.1863 49.6378 92.9078C49.9145 92.6293 50.2892 92.4725 50.6802 92.4715Z" fill="#FFA412"/>
<path d="M70.2455 92.4727H55.4791C54.6638 92.4727 54.0029 93.139 54.0029 93.961V105.127C54.0029 105.949 54.6638 106.615 55.4791 106.615H70.2455C71.0607 106.615 71.7216 105.949 71.7216 105.127V93.961C71.7216 93.139 71.0607 92.4727 70.2455 92.4727Z" fill="#E27F2B"/>
<path d="M59.8158 71.698C59.7096 76.7447 60.3336 86.795 60.3336 86.795H63.2869C64.6813 79.7232 65.1728 75.1739 65.1728 72.6899C65.1728 72.2018 65.1728 71.7456 65.1664 71.3252C65.1483 69.2067 65.0919 67.9757 65.0919 67.9757C65.6452 55.1374 63.1025 48.2717 62.304 47.3264C61.5055 46.3812 57.8527 45.5312 57.8527 45.5312C57.8527 45.5312 56.6464 49.0777 56.154 51.9317C55.6616 54.7856 60.0248 66.7695 59.8449 70.8718C59.8316 71.1301 59.8219 71.4055 59.8158 71.698Z" fill="#739AF0"/>
<path d="M21.4872 75.1338H23.8755C23.9898 75.1345 24.0991 75.1807 24.1798 75.2624C24.2604 75.3441 24.3058 75.4545 24.3061 75.5698V141.138C24.3058 141.253 24.2604 141.364 24.1797 141.445C24.0991 141.527 23.9897 141.573 23.8755 141.573H21.4872C21.3729 141.573 21.2634 141.527 21.1827 141.446C21.102 141.364 21.0566 141.253 21.0566 141.138V75.5698C21.0566 75.4545 21.1019 75.3438 21.1826 75.2621C21.2633 75.1804 21.3729 75.1343 21.4872 75.1338Z" fill="#F1A34F"/>
<path d="M21.4872 75.1338H23.8755C23.9898 75.1345 24.0991 75.1807 24.1798 75.2624C24.2604 75.3441 24.3058 75.4545 24.3061 75.5698V77.6013H21.0566V75.5698C21.0566 75.4545 21.1019 75.3438 21.1826 75.2621C21.2633 75.1804 21.3729 75.1343 21.4872 75.1338Z" fill="#2B478B"/>
<path d="M24.3061 141.139C24.3058 141.254 24.2604 141.364 24.1797 141.446C24.0991 141.527 23.9897 141.573 23.8755 141.574H21.4872C21.3729 141.574 21.2634 141.528 21.1827 141.446C21.102 141.365 21.0566 141.254 21.0566 141.139V139.387H24.3061V141.139Z" fill="#2B478B"/>
<path d="M22.6602 79.4307C22.7255 79.4309 22.7879 79.4571 22.8341 79.5036C22.8802 79.5501 22.9062 79.6131 22.9064 79.6789V137.393C22.9064 137.459 22.8805 137.522 22.8343 137.569C22.7882 137.615 22.7255 137.642 22.6602 137.642C22.595 137.642 22.5323 137.615 22.4862 137.569C22.44 137.522 22.4141 137.459 22.4141 137.393V79.6789C22.4143 79.6131 22.4403 79.5501 22.4864 79.5036C22.5326 79.4571 22.595 79.4309 22.6602 79.4307Z" fill="#E27F2B"/>
<path d="M60.3327 86.7938C60.3327 86.7938 59.7086 76.7435 59.8149 71.6968C62.1768 70.9293 64.0844 71.0978 65.1655 71.3304C65.17 71.7508 65.1718 72.207 65.1718 72.6951C65.1718 75.1764 64.6804 79.7257 63.2859 86.8002C63.9009 89.4051 63.8601 92.2169 62.7936 92.7134C61.7271 93.2098 58.1997 91.3487 58.2406 90.5216C58.2815 89.6945 60.3327 86.7938 60.3327 86.7938Z" fill="#D9935C"/>
<path d="M19.9287 75.1751C20.2166 74.1108 20.4301 73.521 21.1569 73.0035C22.2124 72.2524 23.4661 72.4539 24.4008 72.6215C25.1148 72.7479 25.8625 72.5061 26.1759 72.3852C27.831 71.2733 31.9843 68.9808 34.0519 67.9531C35.4635 68.7774 37.1968 70.4105 38.0126 73.5961C34.8331 75.0121 27.8628 74.9873 26.5365 74.6778C26.5365 74.6778 25.3083 75.5781 24.3745 75.6605C24.0202 75.6917 23.5751 75.5882 23.1581 75.4471C22.5013 75.2255 21.7955 75.4471 21.3249 76.0352C20.8707 76.6012 20.2784 76.9117 20.0322 76.9117C19.6489 76.9117 19.747 75.8446 19.9287 75.1751Z" fill="#D9935C"/>
<path d="M99.7649 62.7492C98.5467 66.5045 91.9116 73.0029 90.9941 73.6486C90.9941 73.6486 89.4498 71.0538 89.7587 69.6012C90.0112 68.4151 92.5948 64.1872 93.4832 62.1099C93.5295 62.0018 93.574 61.8993 93.6067 61.8031C93.7285 61.4843 93.7884 61.238 93.7775 61.0914C93.7339 60.6399 92.3241 59.5417 90.6889 58.2393C88.5641 56.5457 86.056 54.5087 85.6444 53.1001C84.9241 50.6097 82.4277 40.748 82.4277 40.748C82.4277 40.748 88.6295 42.0999 90.3791 43.657C92.1287 45.214 99.645 58.1852 99.9521 61.5063C99.9737 61.9291 99.9101 62.3519 99.7649 62.7492Z" fill="#FFA412"/>
<path d="M99.7639 62.7491C98.5457 66.5043 91.9106 73.0027 90.9931 73.6484C90.9931 73.6484 89.4488 71.0537 89.7576 69.601C90.0238 68.3535 92.869 63.7392 93.6012 61.8029C94.704 61.6124 97.2921 61.3752 99.7639 62.7491Z" fill="#D9935C"/>
<path d="M82.4279 39.8836L82.4234 40.6493C82.4234 40.6493 82.6305 43.0445 79.7054 43.3971C76.7802 43.7497 74.5773 42.6772 74.6564 40.8325C74.9198 39.4019 75.196 38.2038 75.215 37.0205C75.2214 36.5403 75.1868 36.0604 75.1115 35.5862L80.78 35.4717L82.4488 35.7465L82.4279 39.8836Z" fill="#D9935C"/>
<path d="M82.4486 35.7389L82.4277 39.8825C81.7884 40.1849 81.0908 40.3412 80.3847 40.3404C77.7793 40.3404 76.0951 38.417 75.2149 37.0166C75.2213 36.5364 75.1866 36.0565 75.1113 35.5823L80.7799 35.4678L82.4486 35.7389Z" fill="#CB7D45"/>
<path d="M77.4315 141.443C77.4315 141.443 77.159 139.282 76.5186 137.997C75.8781 136.712 71.8275 137.53 71.8275 137.53C71.8275 137.53 71.0163 138.231 70.8428 141.501L77.4315 141.443Z" fill="#233862"/>
<path d="M91.2459 141.435C90.293 140.849 90.8353 136.476 90.8353 136.476C90.8353 136.476 95.2748 132.894 95.8852 135.636C96.4957 138.377 100.102 139.608 102.153 139.94C103.57 140.172 104.009 140.964 104.145 141.432L91.2459 141.435Z" fill="#233862"/>
<path d="M82.0505 109.137C82.2061 109.936 82.315 110.743 82.3767 111.554C82.7891 119.671 89.1525 138.228 90.2908 138.665C92.0522 139.335 94.8256 137.911 96.2764 137.444C96.8777 137.251 97.2838 136.639 97.1494 136.019C93.998 121.412 92.8398 100.379 92.4183 87.9265C92.2057 81.6506 91.1411 77.3174 91.1411 77.3174C91.1411 77.3174 75.618 73.1427 75.5254 78.4238C75.4436 83.0978 80.667 101.427 82.0505 109.137Z" fill="#2B478B"/>
<path d="M82.0505 109.137L92.4183 87.9274C92.2058 81.6506 91.1411 77.3174 91.1411 77.3174C91.1411 77.3174 75.618 73.1427 75.5254 78.4238C75.4436 83.0977 80.667 101.427 82.0505 109.137Z" fill="#233862"/>
<path d="M85.5076 78.4423L77.3028 138.398C77.3028 138.398 73.6991 139.274 70.8966 138.573C70.8966 138.573 68.4947 106.685 68.6955 98.9771C68.8962 91.2688 66.9695 78.3489 69.1342 76.9237C71.299 75.4986 85.5076 78.4423 85.5076 78.4423Z" fill="#2B478B"/>
<path d="M91.5827 78.5535C91.5827 78.5535 87.3903 81.0182 81.3176 80.9486C79.2504 80.9336 77.1865 80.7772 75.1403 80.4806C70.2694 79.7479 67.8121 78.3813 67.8312 77.8702C67.8475 77.4123 67.8793 75.879 67.9375 75.2205C68.7114 66.2216 68.3108 59.2213 69.3528 53.963C69.3655 53.8998 69.3773 53.8366 69.3909 53.7744C70.769 47.0882 72.9338 43.2478 74.0021 41.6724C74.3945 41.0972 74.638 40.8252 74.6525 40.8252C74.6525 42.0726 77.2869 43.1507 79.4353 43.0087C81.2449 42.8896 82.4195 41.502 82.4195 40.751C82.5685 40.751 90.5825 46.3674 90.5889 51.5862C90.6216 74.9741 92.0278 78.5617 91.5827 78.5535Z" fill="#FFA412"/>
<path d="M75.1521 80.4045C75.1521 80.4301 75.1448 80.4567 75.1403 80.4814C70.2694 79.7487 67.8121 78.3821 67.8312 77.8711C67.8475 77.4131 67.8793 75.8799 67.9375 75.2213C68.7114 66.2225 68.3108 59.2221 69.3528 53.9639C71.9127 57.4095 77.1688 66.4331 75.1521 80.4045Z" fill="#E27F2B"/>
<path d="M88.4973 69.2171L87.8433 71.4153L87.1928 73.5943L58.941 65.025C58.9018 65.0276 58.8624 65.0233 58.8247 65.0121C58.7858 65.0001 58.7489 64.9819 58.7157 64.9581C58.3596 64.7035 58.2951 63.7729 58.5686 62.7233C58.5831 62.6656 58.5994 62.6069 58.6167 62.5483C58.9474 61.4199 59.5487 60.5855 60.0093 60.5782C60.0465 60.5775 60.0835 60.5824 60.1192 60.5928C60.1564 60.6042 60.1916 60.6212 60.2237 60.6432L88.4973 69.2171Z" fill="#E9F3FE"/>
<path d="M87.8433 71.4137L87.1928 73.5927L58.941 65.0234C58.9018 65.0261 58.8624 65.0217 58.8247 65.0105C58.7858 64.9985 58.7489 64.9803 58.7157 64.9565C58.3596 64.7019 58.2951 63.7713 58.5686 62.7217C59.7232 63.5955 65.2391 67.4615 74.6539 69.3419C84.384 71.2855 87.3954 71.4073 87.8433 71.4137Z" fill="#BED4F4"/>
<path d="M88.5507 69.2044C88.0784 69.0633 87.4052 69.9371 87.0482 71.1599C86.6912 72.3826 86.7839 73.4836 87.2563 73.6246C87.7286 73.7657 88.4018 72.8919 88.7588 71.6691C89.1158 70.4464 89.0231 69.3454 88.5507 69.2044Z" fill="#AFCDFB"/>
<path d="M60.4249 59.8376L57.0946 59.2926C57.0595 59.2763 57.0221 59.2652 56.9838 59.2596C56.947 59.2546 56.9097 59.2546 56.873 59.2596C56.4188 59.3283 55.9291 60.2342 55.7483 61.3965C55.7384 61.4578 55.7293 61.5174 55.7229 61.5797C55.6589 62.0356 55.6629 62.4987 55.7347 62.9535C55.8092 63.3611 55.9518 63.6579 56.1471 63.7687L56.1589 63.776C56.1949 63.7956 56.2339 63.8089 56.2743 63.8154C56.3131 63.8223 56.3527 63.8223 56.3915 63.8154L85.5154 68.5781L85.8788 66.3323L86.2422 64.0691L60.4249 59.8376Z" fill="#E9F3FE"/>
<path d="M72.5305 66.0127C66.3015 65.6088 62.9994 62.2877 60.4249 59.8376L57.0946 59.2926C57.0595 59.2763 57.0221 59.2652 56.9838 59.2596C56.947 59.2546 56.9097 59.2546 56.873 59.2596C56.4188 59.3283 55.9291 60.2342 55.7483 61.3965C55.7384 61.4578 55.7293 61.5174 55.7229 61.5797C55.6589 62.0356 55.6629 62.4987 55.7347 62.9535C55.891 63.3996 56.0518 63.7027 56.1471 63.7687L56.1589 63.776C56.1949 63.7956 56.2339 63.8089 56.2743 63.8154C56.3131 63.8223 56.3527 63.8223 56.3915 63.8154L85.5154 68.5781L85.8788 66.3323C85.4328 66.3772 82.4314 66.6547 72.5305 66.0127Z" fill="#BED4F4"/>
<path d="M86.2938 64.0415C85.8078 63.9637 85.2545 64.9208 85.0583 66.1775C84.8621 67.4341 85.0983 68.5167 85.5852 68.5937C86.0721 68.6706 86.6244 67.7144 86.8207 66.4568C87.0169 65.1993 86.7807 64.1185 86.2938 64.0415Z" fill="#AFCDFB"/>
<path d="M75.9328 72.6833C69.1778 71.5998 64.7129 68.7449 62.8797 67.3655C62.2538 66.8947 61.934 66.5943 61.934 66.5943C58.473 59.2606 64.7347 46.3929 65.8793 44.2121C67.1148 41.861 74.6565 40.8232 74.6565 40.8232C73.8228 43.5017 73.2618 46.2588 72.9822 49.0518C72.5117 53.7092 67.4927 62.785 67.6989 63.5471C67.7498 63.7394 68.3566 64.1415 69.2432 64.6462C71.8649 66.151 76.9312 68.5773 77.2373 69.147C77.6479 69.9154 75.9328 72.6833 75.9328 72.6833Z" fill="#D9935C"/>
<path d="M77.2352 69.1516C77.2352 69.1516 81.0088 67.6294 81.9354 68.2522C82.862 68.875 84.4063 69.8093 84.4063 70.4312C84.4063 71.0531 82.4505 72.7146 80.8035 73.2339C79.1565 73.7532 75.9316 72.6798 75.9316 72.6798L77.2352 69.1516Z" fill="#D9935C"/>
<path d="M72.9819 49.0555C72.5113 53.7129 67.4923 62.7887 67.6985 63.5507C67.7494 63.7431 68.3562 64.1452 69.2428 64.6498C69.1862 64.6531 69.1295 64.6531 69.073 64.6498C65.1241 64.474 63.3381 66.6767 62.8821 67.3582C62.2562 66.8874 61.9364 66.587 61.9364 66.587C58.4726 59.2606 64.7343 46.3929 65.879 44.2121C67.1144 41.861 74.6561 40.8232 74.6561 40.8232C73.8222 43.5029 73.2612 46.2612 72.9819 49.0555Z" fill="#FFA412"/>
<path d="M82.7828 37.7525C82.7828 37.7525 75.5227 39.2317 74.6788 34.6585C73.8348 30.0854 72.3278 27.2021 76.9271 26.0608C81.5264 24.9196 82.751 26.4986 83.4014 27.9559C84.0518 29.4131 84.6459 37.2506 82.7828 37.7525Z" fill="#D9935C"/>
<path d="M74.8216 35.978C74.8216 35.978 73.4181 32.9555 72.2481 31.6164C71.0781 30.2773 71.7158 23.5701 76.7702 23.7853C81.8246 24.0006 83.6333 27.6468 83.686 28.3448C83.7387 29.0427 79.6426 28.506 78.5253 29.4173C77.4079 30.3286 78.4726 31.8316 77.1953 32.3675C75.9181 32.9033 74.908 32.9042 75.1205 34.0839C75.3331 35.2636 74.8216 35.978 74.8216 35.978Z" fill="#233862"/>
<path d="M76.3813 20.6707C74.9351 21.0371 73.8504 21.6223 73.0401 22.3276C72.9602 22.3972 72.8821 22.4686 72.8067 22.541C69.8089 25.4234 71.0053 30.0103 71.0053 30.0103C71.0053 30.0103 71.4041 31.1689 71.6784 31.6186C71.9527 32.0683 75.9334 31.5499 76.1387 30.6844C76.344 29.8188 77.138 28.9203 77.138 28.9203C77.138 28.9203 81.3331 28.63 81.6147 28.6089C82.5631 28.5402 85.2674 27.5913 85.2674 27.5913C85.2357 27.3239 83.7095 18.8151 76.3813 20.6707Z" fill="#FFA412"/>
<path d="M87.7477 26.6928C87.2445 26.5691 86.3851 26.4308 84.9725 26.3786C84.9725 26.3786 83.7852 27.3705 81.4242 28.1262C80.315 26.7166 77.1547 23.3204 73.0395 22.3275L73.0032 22.3184C72.9123 22.4292 72.8669 22.4667 72.806 22.5409C72.7845 22.5663 72.7645 22.5929 72.7461 22.6206C76.0963 23.2095 79.2804 27.0033 80.3768 28.4229C79.3136 28.6844 78.2296 28.8508 77.1374 28.9203C77.1374 28.9203 84.4692 29.0586 87.8204 27.279C87.8766 27.2489 87.9223 27.2024 87.9516 27.1455C87.981 27.0887 87.9924 27.0242 87.9846 26.9606C87.9767 26.897 87.9498 26.8373 87.9075 26.7895C87.8652 26.7417 87.8095 26.7079 87.7477 26.6928Z" fill="#E27F2B"/>
<path d="M95.2142 60.2664C95.0779 61.0422 94.6628 61.8592 93.4782 62.1147C93.5245 62.0067 93.569 61.9041 93.6017 61.8079C93.7235 61.4892 93.7834 61.2428 93.7725 61.0962C93.7289 60.6447 92.3191 59.5465 90.6839 58.2441C90.5494 57.5059 90.2197 55.3132 90.6839 53.5729C91.2507 51.4416 95.3686 59.3798 95.2142 60.2664Z" fill="#E27F2B"/>
<path d="M68.4532 64.1283C68.4532 64.1283 63.4097 63.7134 61.7627 66.6709C61.7627 66.6709 61.9035 67.6683 62.8801 67.3643C62.8801 67.3643 67.1496 64.4242 69.239 64.6522C69.2408 64.6522 68.9165 64.1375 68.4532 64.1283Z" fill="#E27F2B"/>
<path d="M93.4795 62.1103C93.4795 62.1103 96.0967 62.2202 99.3906 63.6674C99.3906 63.6674 100.117 62.9438 99.8293 62.528C99.5414 62.1122 94.9012 60.6201 93.4795 62.1103Z" fill="#E27F2B"/>
<path d="M188.418 80.9519L193.164 137.845C193.164 137.845 193.662 141.293 191.117 141.3C186.938 141.31 170.296 141.3 170.296 141.3C170.296 141.3 173.445 140.582 173.407 138.967C173.362 137.063 167.865 80.417 167.865 80.417L188.418 80.9519Z" fill="#D86713"/>
<path d="M189.734 140.264C185.661 140.316 169.77 140.264 168.947 140.264C169.256 140.264 171.646 140.204 171.984 138.391C172.012 138.24 172.025 138.086 172.024 137.933C172.024 137.577 171.829 135.327 171.516 131.897C171.235 128.821 170.857 124.798 170.434 120.344C168.799 103.089 166.478 79.3828 166.478 79.3828L187.036 79.9205L190.408 120.344L191.067 128.234L191.658 135.332L191.782 136.812C191.782 136.812 192.362 140.23 189.734 140.264Z" fill="#EE9849"/>
<path d="M238.346 49.9951L226.787 96.8084L225.205 103.22L219.821 125.024H119.802L139.644 49.9951H238.346Z" fill="#F1A34F"/>
<path d="M238.346 49.9951L239.948 50.5337L221.951 126.653L219.82 125.024L238.346 49.9951Z" fill="#EE9849"/>
<path d="M221.951 126.652H122.547L119.802 125.023H219.821L221.951 126.652Z" fill="#D86713"/>
<path d="M187.043 140.287H165.521V141.318H187.043V140.287Z" fill="#F1A34F"/>
<path d="M191.201 126.62L191.066 128.234L191.061 128.293C191.061 128.293 177.08 129.645 171.515 131.897C171.374 130.354 171.209 128.574 171.026 126.62H191.201Z" fill="#D86713"/>
<path opacity="0.4" d="M189.733 140.264C185.659 140.316 169.768 140.264 168.945 140.264C169.255 140.264 171.645 140.205 171.983 138.391C173.618 138.476 182.72 138.769 191.657 135.331L191.78 136.81C191.78 136.81 192.361 140.23 189.733 140.264Z" fill="#D86713"/>
<path opacity="0.4" d="M223.329 110.295L219.695 125.024H186.018C200.256 120.463 206.996 113.791 209.712 110.295H223.329Z" fill="#D86713"/>
<path d="M237.591 50.9873L223.327 110.295H124.891L140.875 50.9873H237.591Z" fill="#D2E4FF"/>
<path d="M123.674 110.295H124.891L124.647 111.199L123.47 111.064L123.674 110.295Z" fill="#F1A34F"/>
<path d="M164.465 15.8779H164.156V21.4137H164.465V15.8779Z" fill="#739AF0"/>
<path d="M181.552 15.8779H181.243V21.4137H181.552V15.8779Z" fill="#739AF0"/>
<path d="M166.623 15.8779H166.314V21.4137H166.623V15.8779Z" fill="#739AF0"/>
<path d="M183.096 15.8779H182.787V21.4137H183.096V15.8779Z" fill="#739AF0"/>
<path d="M160.556 10.6127L160.545 10.6054L160.495 10.5696L145.151 0L109.247 10.8994L108.989 21.7905H108.166C107.931 21.7912 107.706 21.8856 107.54 22.0529C107.375 22.2202 107.281 22.4469 107.28 22.6835V23.5765C107.281 23.8132 107.375 24.0399 107.54 24.2072C107.706 24.3745 107.931 24.4688 108.166 24.4696H111.02C111.255 24.4688 111.48 24.3745 111.646 24.2072C111.812 24.0399 111.905 23.8132 111.906 23.5765V22.6835C111.905 22.4469 111.812 22.2202 111.646 22.0529C111.48 21.8856 111.255 21.7912 111.02 21.7905H109.631L116.402 14.4485H140.689V110.295H146.594V14.4513H151.612V16.535C151.613 16.7716 151.706 16.9983 151.872 17.1657C152.038 17.333 152.263 17.4273 152.498 17.428H160.026C160.261 17.4273 160.485 17.333 160.651 17.1657C160.817 16.9983 160.911 16.7716 160.912 16.535V11.3253C160.911 11.1869 160.879 11.0504 160.817 10.9267C160.756 10.8031 160.666 10.6955 160.556 10.6127ZM109.503 21.164L109.754 14.4513H115.693L109.503 21.164ZM152.495 10.4332C152.286 10.4338 152.084 10.5088 151.925 10.6448C151.765 10.7808 151.658 10.9693 151.623 11.1769H110.143L145.066 0.569698L159.483 10.4332H152.495Z" fill="#739AF0"/>
<path d="M234.554 45.7476H234.051L233.938 39.109L211.946 32.4229L202.543 38.8993L202.854 38.8004C202.709 38.8004 202.57 38.8583 202.468 38.9613C202.366 39.0644 202.309 39.2042 202.309 39.3499V42.5336C202.309 42.6794 202.366 42.8192 202.468 42.9222C202.57 43.0253 202.709 43.0832 202.854 43.0832H207.456C207.6 43.0832 207.739 43.0253 207.841 42.9222C207.943 42.8192 208.001 42.6794 208.001 42.5336V41.2605H211.068V99.846H214.678V41.2605H229.523L233.662 45.7485H232.813C232.669 45.7485 232.53 45.8064 232.428 45.9094C232.326 46.0125 232.268 46.1523 232.268 46.298V46.8476C232.268 46.9933 232.326 47.1331 232.428 47.2362C232.53 47.3392 232.669 47.3971 232.813 47.3971H234.557C234.702 47.3971 234.841 47.3392 234.943 47.2362C235.045 47.1331 235.103 46.9933 235.103 46.8476V46.298C235.103 46.2255 235.089 46.1536 235.061 46.0866C235.033 46.0196 234.993 45.9587 234.942 45.9075C234.891 45.8564 234.83 45.8159 234.764 45.7884C234.697 45.761 234.626 45.7471 234.554 45.7476ZM207.989 39.2583C207.968 39.131 207.902 39.0153 207.805 38.9315C207.707 38.8478 207.584 38.8014 207.456 38.8004H203.136L211.999 32.7718L233.347 39.2547L207.989 39.2583ZM229.947 41.2605H233.625L233.731 45.3638L229.947 41.2605Z" fill="#739AF0"/>
<path d="M204.672 47.4538V47.0646H203.828V44.5H203.131V47.0646H201.362V44.5H200.663V47.0646H198.741V44.5H198.042V47.0646H196.274V44.5H195.576V47.0646H194.651V47.4538H195.576V48.7022H194.651V49.0933H195.576V50.339H194.651V50.7282H195.576V51.9766H194.651V52.365H195.576V53.6143H194.651V54.0026H195.576V55.251H194.651V55.6393H195.576V56.6469H194.651V57.0361H195.576V58.2845H194.651V58.6729H195.576V59.9222H194.651V60.3105H195.576V61.5589H194.651V61.9473H195.576V63.1984H194.651V63.5867H195.576V64.8351H194.651V65.2244H195.576V66.4151H194.651V66.8034H195.576V68.0527H194.651V68.4411H195.576V69.6904H194.651V70.0787H195.576V71.3271H194.651V71.7164H195.576V72.9648H194.651V73.3531H195.576V74.6015H194.651V74.9908H195.576V75.9983H194.651V76.3876H195.576V77.636H194.651V78.0252H195.576V79.2736H194.651V79.662H195.576V80.9103H194.651V81.2996H195.576V82.548H194.651V82.9364H195.576V84.1857H194.651V84.574H195.576V85.6878H194.651V86.0761H195.576V87.3254H194.651V87.7138H195.576V88.9622H194.651V89.3505H195.576V90.6026H194.651V90.9909H195.576V92.2393H194.651V92.6276H195.576V93.8815H194.651V94.2699H195.576V95.2774H194.651V95.6657H195.576V96.915H194.651V97.3034H195.576V98.5527H194.651V98.942H204.672V98.5527H203.828V97.3043H204.672V96.916H203.828V95.6666H204.672V95.2783H203.828V94.2708H204.672V93.8815H203.828V92.6322H204.672V92.2439H203.828V90.9909H204.672V90.6026H203.828V89.3532H204.672V88.9649H203.828V87.7165H204.672V87.3282H203.828V86.0789H204.672V85.6905H203.828V84.5768H204.672V84.1884H203.828V82.9391H204.672V82.5507H203.828V81.3024H204.672V80.9131H203.828V79.6647H204.672V79.2764H203.828V78.028H204.672V77.6387H203.828V76.3876H204.672V75.9992H203.828V74.9917H204.672V74.6024H203.828V73.3541H204.672V72.9657H203.828V71.7164H204.672V71.3271H203.828V70.0797H204.672V69.6913H203.828V68.442H204.672V68.0527H203.828V66.8053H204.672V66.4169H203.828V65.2262H204.672V64.837H203.828V63.5877H204.672V63.1984H203.828V61.95H204.672V61.5617H203.828V60.3133H204.672V59.9249H203.828V58.6756H204.672V58.2873H203.828V57.0389H204.672V56.6496H203.828V55.6421H204.672V55.2538H203.828V54.0026H204.672V53.6143H203.828V52.365H204.672V51.9766H203.828V50.7282H204.672V50.339H203.828V49.0933H204.672V48.705H203.828V47.4538H204.672ZM200.663 47.4538V48.7022H198.741V47.4538H200.663ZM198.741 96.9132V95.6639H200.663V96.9132H198.741ZM200.663 97.3016V98.5527H198.741V97.3043L200.663 97.3016ZM198.741 95.2756V94.268H200.663V95.2756H198.741ZM198.741 93.8769V92.6276H200.663V93.8815L198.741 93.8769ZM198.741 92.2393V90.9909H200.663V92.2393H198.741ZM198.741 90.6026V89.3532H200.663V90.6026H198.741ZM198.741 88.9649V87.7165H200.663V88.9649H198.741ZM198.741 87.3282V86.0789H200.663V87.3282H198.741ZM198.741 85.6905V84.5768H200.663V85.6905H198.741ZM198.741 84.1884V82.9391H200.663V84.1884H198.741ZM198.741 82.5507V81.3024H200.663V82.5507H198.741ZM198.741 80.9131V79.6647H200.663V80.9131H198.741ZM198.741 79.2764V78.028H200.663V79.2764H198.741ZM198.741 77.6387V76.3876H200.663V77.636L198.741 77.6387ZM198.741 76.002V74.9945H200.663V76.002H198.741ZM198.741 74.6024V73.3541H200.663V74.6024H198.741ZM198.741 72.9657V71.7164H200.663V72.9648L198.741 72.9657ZM198.741 71.3281V70.0797H200.663V71.3281H198.741ZM198.741 69.6913V68.442H200.663V69.6913H198.741ZM198.741 68.0537V66.8053H200.663V68.0527L198.741 68.0537ZM198.741 66.4169V65.2262H200.663V66.4169H198.741ZM198.741 64.836V63.5877H200.663V64.836H198.741ZM198.741 63.1993V61.95H200.663V63.1984L198.741 63.1993ZM198.741 61.5617V60.3133H200.663V61.5617H198.741ZM198.741 59.9249V58.6756H200.663V59.9249H198.741ZM198.741 58.2873V57.0389H200.663V58.2873H198.741ZM198.741 56.6496V55.6421H200.663V56.6496H198.741ZM198.741 55.251V54.0026H200.663V55.251H198.741ZM198.741 53.6143V52.365H200.663V53.6143H198.741ZM198.741 51.9766V50.7282H200.663V51.9766H198.741ZM198.741 50.339V49.0933H200.663V50.339H198.741ZM196.274 47.4538H198.042V48.7022H196.274V47.4538ZM196.274 49.0906H198.042V50.339H196.274V49.0906ZM196.274 50.7282H198.042V51.9766H196.274V50.7282ZM196.274 52.365H198.042V53.6143H196.274V52.365ZM196.274 54.0026H198.042V55.251H196.274V54.0026ZM196.274 55.6393H198.042V56.6469H196.274V55.6393ZM196.274 57.0389H198.042V58.2873H196.274V57.0389ZM196.274 58.6756H198.042V59.9249H196.274V58.6756ZM196.274 60.3133H198.042V61.5617H196.274V60.3133ZM196.274 61.95H198.042V63.1984H196.274V61.95ZM196.274 63.5877H198.042V64.836H196.274V63.5877ZM196.274 65.2253H198.042V66.416H196.274V65.2253ZM196.274 66.8053H198.042V68.0527H196.274V66.8053ZM196.274 68.442H198.042V69.6913H196.274V68.442ZM196.274 70.0797H198.042V71.3281H196.274V70.0797ZM196.274 71.7173H198.042V72.9657H196.274V71.7173ZM196.274 73.3541H198.042V74.6024H196.274V73.3541ZM196.274 74.9917H198.042V75.9992H196.274V74.9917ZM196.274 76.3903H198.042V77.6387H196.274V76.3903ZM196.274 78.028H198.042V79.2764H196.274V78.028ZM196.274 79.6647H198.042V80.9131H196.274V79.6647ZM196.274 81.3024H198.042V82.5507H196.274V81.3024ZM196.274 82.9391H198.042V84.1884H196.274V82.9391ZM196.274 84.5768H198.042V85.6905H196.274V84.5768ZM196.274 86.0789H198.042V87.3282H196.274V86.0789ZM196.274 87.7165H198.042V88.9649H196.274V87.7165ZM196.274 89.3532H198.042V90.6026H196.274V89.3532ZM196.274 90.9909H198.042V92.2393H196.274V90.9909ZM196.274 92.6276H198.042V93.8815H196.274V92.6276ZM196.274 94.2653H198.042V95.2728H196.274V94.2653ZM196.274 95.6639H198.042V96.9132H196.274V95.6639ZM196.274 97.3016H198.042V98.5527H196.274V97.3016ZM203.131 98.5499H201.362V97.3016H203.131V98.5499ZM203.131 96.9132H201.362V95.6639H203.131V96.9132ZM203.131 95.2756H201.362V94.268H203.131V95.2756ZM203.131 93.8769H201.362V92.6276H203.131V93.8769ZM203.131 92.2393H201.362V90.9909H203.131V92.2393ZM203.131 90.6026H201.362V89.3532H203.131V90.6026ZM203.131 88.9649H201.362V87.7165H203.131V88.9649ZM203.131 87.3282H201.362V86.0789H203.131V87.3282ZM203.131 85.6905H201.362V84.5768H203.131V85.6905ZM203.131 84.1884H201.362V82.9391H203.131V84.1884ZM203.131 82.5507H201.362V81.3024H203.131V82.5507ZM203.131 80.9131H201.362V79.6647H203.131V80.9131ZM203.131 79.2764H201.362V78.028H203.131V79.2764ZM203.131 77.6387H201.362V76.3876H203.131V77.6387ZM203.131 76.002H201.362V74.9945H203.131V76.002ZM203.131 74.6024H201.362V73.3541H203.131V74.6024ZM203.131 72.9657H201.362V71.7164H203.131V72.9657ZM203.131 71.3281H201.362V70.0797H203.131V71.3281ZM203.131 69.6913H201.362V68.442H203.131V69.6913ZM203.131 68.0537H201.362V66.8053H203.131V68.0537ZM203.131 66.4169H201.362V65.2262H203.131V66.4169ZM203.131 64.836H201.362V63.5877H203.131V64.836ZM203.131 63.1993H201.362V61.95H203.131V63.1993ZM203.131 61.5617H201.362V60.3133H203.131V61.5617ZM203.131 59.9249H201.362V58.6756H203.131V59.9249ZM203.131 58.2873H201.362V57.0389H203.131V58.2873ZM203.131 56.6496H201.362V55.6421H203.131V56.6496ZM203.131 55.251H201.362V54.0026H203.131V55.251ZM203.131 53.6143H201.362V52.365H203.131V53.6143ZM203.131 51.9766H201.362V50.7282H203.131V51.9766ZM203.131 50.339H201.362V49.0933H203.131V50.339ZM203.131 48.7022H201.362V47.4538H203.131V48.7022Z" fill="#739AF0"/>
<path d="M191.311 20.4053H162.661V110.294H191.311V20.4053Z" fill="#739AF0"/>
<path opacity="0.5" d="M183.409 32.7588H162.673V45.9278H183.409V32.7588Z" fill="#AED3FF"/>
<path opacity="0.5" d="M183.409 56.8721H162.673V70.0411H183.409V56.8721Z" fill="#AED3FF"/>
<path opacity="0.5" d="M183.409 80.6758H162.673V93.8448H183.409V80.6758Z" fill="#AED3FF"/>
<path d="M223.173 93.7587V81.5816H191.323V20.3555H183.41V110.295H191.323H223.328L227.304 93.7587H223.173Z" fill="#4A75CB"/>
<path d="M218.971 110.287H219.669V109.161H221.438V110.291H222.134V109.16H223.598L223.689 108.772H222.134V107.528H223.991L224.84 104H224.755V102.75H225.141L225.232 102.362H224.752V101.114H225.531L225.622 100.725H224.749V99.476H225.923L226.014 99.0877H224.742V97.8393H226.309L226.4 97.45H224.739V96.4425H226.508V96.9948L227.205 94.0923V93.159H227.43L227.521 92.7706H227.221V91.5259H227.84L227.93 91.1366H227.221V89.8882H228.065V89.4999H227.221V88.2515H228.065V87.8622H227.221V86.6715H228.065V86.2786H227.221V85.0339H228.065V84.6446H227.221V83.3962H228.065V83.0079H227.221V81.7595H228.065V81.3702H227.221V80.1218H228.065V79.7335H227.221V78.4842H228.065V78.0958H227.221V77.0883H228.065V76.7H227.221V75.4488H228.065V75.0596H227.221V73.8112H228.065V73.4228H227.221V72.1735H228.065V71.7852H227.221V70.5368H228.065V70.1484H227.221V68.8991H228.065V68.5099H227.221V65.9453H226.523V68.5099H224.755V65.9453H224.057V68.5099H222.134V65.9453H221.436V68.5099H219.667V65.9453H218.969V68.5099H218.046V68.8982H218.971V70.1475H218.046V70.5359H218.971V71.7843H218.046V72.1735H218.971V73.4228H218.046V73.8112H218.971V75.0596H218.046V75.4488H218.971V76.6972H218.046V77.0856H218.971V78.0931H218.046V78.4814H218.971V79.7307H218.046V80.1191H218.971V81.3675H218.046V81.7567H218.971V83.0051H218.046V83.3935H218.971V84.6419H218.046V85.0311H218.971V86.2786H218.046V86.667H218.971V87.8576H218.046V88.2469H218.971V89.4953H218.046V89.8836H218.971V91.1329H218.046V91.5222H218.971V92.7706H218.046V93.159H218.971V94.4083H218.046V94.7966H218.971V96.045H218.046V96.4333H218.971V97.4409H218.046V97.8301H218.971V99.0785H218.046V99.4669H218.971V100.716H218.046V101.105H218.971V102.353H218.046V102.741H218.971V103.991H218.046V104.379H218.971V105.627H218.046V106.017H218.971V107.13H218.046V107.528H218.971V108.776H218.046V109.165H218.971V110.287ZM224.756 68.8991H226.525V70.1484H224.756V68.8991ZM224.756 70.5368H226.525V71.7852H224.756V70.5368ZM224.756 72.1735H226.525V73.4228H224.756V72.1735ZM224.756 73.8112H226.525V75.0596H224.756V73.8112ZM224.756 75.4488H226.525V76.6972H224.756V75.4488ZM224.756 77.0856H226.525V78.0931H224.756V77.0856ZM224.756 78.4842H226.525V79.7335H224.756V78.4842ZM224.756 80.1218H226.525V81.3702H224.756V80.1218ZM224.756 81.7595H226.525V83.0079H224.756V81.7595ZM224.756 83.3962H226.525V84.6446H224.756V83.3962ZM224.756 85.0339H226.525V86.2786H224.756V85.0339ZM224.756 86.6706H226.525V87.8613H224.756V86.6706ZM224.756 88.2515H226.525V89.4999H224.756V88.2515ZM224.756 89.8882H226.525V91.1329H224.756V89.8882ZM224.756 91.5259H226.525V92.7743H224.756V91.5259ZM224.756 93.1626H226.525V94.4119H224.756V93.1626ZM224.756 94.8003H226.525V96.0487H224.756V94.8003ZM222.134 68.8991H224.057V70.1484H222.134V68.8991ZM222.134 70.5368H224.057V71.7852H222.134V70.5368ZM222.134 72.1735H224.057V73.4228H222.134V72.1735ZM222.134 73.8112H224.057V75.0596H222.134V73.8112ZM222.134 75.4488H224.057V76.6972H222.134V75.4488ZM222.134 77.0856H224.057V78.0931H222.134V77.0856ZM222.134 78.4842H224.057V79.7335H222.134V78.4842ZM222.134 80.1218H224.057V81.3702H222.134V80.1218ZM222.134 81.7595H224.057V83.0079H222.134V81.7595ZM222.134 83.3962H224.057V84.6446H222.134V83.3962ZM222.134 85.0339H224.057V86.2786H222.134V85.0339ZM222.134 86.6706H224.057V87.8613H222.134V86.6706ZM222.134 88.2515H224.057V89.4999H222.134V88.2515ZM222.134 89.8882H224.057V91.1329H222.134V89.8882ZM222.134 91.5259H224.057V92.7743H222.134V91.5259ZM222.134 93.1626H224.057V94.4119H222.134V93.1626ZM222.134 94.8003H224.057V96.0487H222.134V94.8003ZM222.134 96.437H224.057V97.4445H222.134V96.437ZM222.134 97.8365H224.057V99.0849H222.134V97.8365ZM222.134 99.4733H224.057V100.723H222.134V99.4733ZM222.134 101.111H224.057V102.359H222.134V101.111ZM222.134 102.748H224.057V103.997H222.134V102.748ZM222.134 104.385H224.057V105.634H222.134V104.385ZM222.134 106.023H224.057V107.137H222.134V106.023ZM219.667 68.8991H221.436V70.1484H219.667V68.8991ZM219.667 70.5368H221.436V71.7852H219.667V70.5368ZM219.667 72.1735H221.436V73.4228H219.667V72.1735ZM219.667 73.8112H221.436V75.0596H219.667V73.8112ZM219.667 75.4488H221.436V76.6972H219.667V75.4488ZM219.667 77.0856H221.436V78.0931H219.667V77.0856ZM219.667 78.4842H221.436V79.7335H219.667V78.4842ZM219.667 80.1218H221.436V81.3702H219.667V80.1218ZM219.667 81.7595H221.436V83.0079H219.667V81.7595ZM219.667 83.3962H221.436V84.6446H219.667V83.3962ZM219.667 85.0339H221.436V86.2786H219.667V85.0339ZM219.667 86.6706H221.436V87.8613H219.667V86.6706ZM219.667 88.2515H221.436V89.4999H219.667V88.2515ZM219.667 89.8882H221.436V91.1329H219.667V89.8882ZM219.667 91.5259H221.436V92.7743H219.667V91.5259ZM219.667 93.1626H221.436V94.4119H219.667V93.1626ZM219.667 94.8003H221.436V96.0487H219.667V94.8003ZM219.667 96.437H221.436V97.4445H219.667V96.437ZM219.667 97.8365H221.436V99.0849H219.667V97.8365ZM219.667 99.4733H221.436V100.723H219.667V99.4733ZM219.667 101.111H221.436V102.359H219.667V101.111ZM219.667 102.748H221.436V103.997H219.667V102.748ZM219.667 104.385H221.436V105.634H219.667V104.385ZM219.667 106.023H221.436V107.137H219.667V106.023ZM219.667 107.525H221.436V108.773H219.667V107.525Z" fill="#739AF0"/>
<path d="M252.152 141.998H0.842838C0.770925 141.997 0.702284 141.967 0.651427 141.916C0.60057 141.865 0.571482 141.796 0.570313 141.723H0.570312C0.571482 141.651 0.60057 141.581 0.651427 141.53C0.702284 141.479 0.770925 141.449 0.842838 141.448H252.152C252.225 141.448 252.295 141.477 252.347 141.528C252.399 141.58 252.428 141.65 252.43 141.723C252.428 141.796 252.398 141.866 252.347 141.917C252.295 141.969 252.225 141.998 252.152 141.998Z" fill="#283250"/>
<path d="M162.661 60.125H134.085V110.295H162.661V60.125Z" fill="#4A75CB"/>
<path d="M138.243 62.4883H135.972V71.4679H138.243V62.4883Z" fill="white"/>
<path d="M142.787 62.4883H140.516V71.4679H142.787V62.4883Z" fill="white"/>
<path d="M147.312 62.4883H145.041V71.4679H147.312V62.4883Z" fill="white"/>
<path d="M151.853 62.4883H149.582V71.4679H151.853V62.4883Z" fill="white"/>
<path d="M156.396 62.4883H154.125V71.4679H156.396V62.4883Z" fill="white"/>
<path d="M160.937 62.4883H158.666V71.4679H160.937V62.4883Z" fill="white"/>
<path d="M138.243 74.3945H135.972V83.3741H138.243V74.3945Z" fill="#EBF2F9"/>
<path d="M142.787 74.3945H140.516V83.3741H142.787V74.3945Z" fill="#EBF2F9"/>
<path d="M147.312 74.3945H145.041V83.3741H147.312V74.3945Z" fill="#EBF2F9"/>
<path d="M151.853 74.3945H149.582V83.3741H151.853V74.3945Z" fill="#EBF2F9"/>
<path d="M156.396 74.3945H154.125V83.3741H156.396V74.3945Z" fill="#EBF2F9"/>
<path d="M160.937 74.3945H158.666V83.3741H160.937V74.3945Z" fill="#EBF2F9"/>
<path d="M138.243 86.3027H135.972V95.2824H138.243V86.3027Z" fill="#EBF2F9"/>
<path d="M142.787 86.3027H140.516V95.2824H142.787V86.3027Z" fill="#EBF2F9"/>
<path d="M147.312 86.3027H145.041V95.2824H147.312V86.3027Z" fill="#EBF2F9"/>
<path d="M151.853 86.3027H149.582V95.2824H151.853V86.3027Z" fill="#EBF2F9"/>
<path d="M156.396 86.3027H154.125V95.2824H156.396V86.3027Z" fill="#EBF2F9"/>
<path d="M160.937 86.3027H158.666V95.2824H160.937V86.3027Z" fill="#EBF2F9"/>
<path d="M138.243 98.2998H135.972V107.279H138.243V98.2998Z" fill="#EBF2F9"/>
<path d="M142.787 98.2998H140.516V107.279H142.787V98.2998Z" fill="#EBF2F9"/>
<path d="M147.312 98.2998H145.041V107.279H147.312V98.2998Z" fill="#EBF2F9"/>
<path d="M151.853 98.2998H149.582V107.279H151.853V98.2998Z" fill="#EBF2F9"/>
<path d="M156.396 98.2998H154.125V107.279H156.396V98.2998Z" fill="#EBF2F9"/>
<path d="M160.937 98.2998H158.666V107.279H160.937V98.2998Z" fill="#EBF2F9"/>
<path d="M160.105 46.9785H148.901V60.4626H160.105V46.9785Z" fill="#4A75CB"/>
</svg>
