<svg width="17" height="17" viewBox="0 0 17 17" fill="none" xmlns="http://www.w3.org/2000/svg">
<path fill-rule="evenodd" clip-rule="evenodd" d="M3.62152 6.99182C4.90761 9.51357 6.95814 11.5641 9.47989 12.8502L11.436 10.8951C11.5518 10.7777 11.6979 10.6947 11.8581 10.6555C12.0182 10.6163 12.1861 10.6224 12.3431 10.673C13.3381 11.0031 14.4052 11.1801 15.5163 11.1801C15.7516 11.1806 15.9772 11.2743 16.1436 11.4408C16.3101 11.6072 16.4038 11.8328 16.4043 12.0681V15.1783C16.4041 15.414 16.3103 15.64 16.1436 15.8067C15.977 15.9734 15.751 16.0671 15.5153 16.0674C7.16875 16.0684 0.403321 9.30296 0.403321 0.957439C0.403144 0.840488 0.426017 0.72465 0.470632 0.616544C0.515247 0.508438 0.58073 0.410184 0.663338 0.327399C0.830286 0.160808 1.05653 0.06729 1.29238 0.0673829H4.40357C4.63928 0.0676476 4.86526 0.161401 5.03194 0.328074C5.19861 0.494747 5.29236 0.720728 5.29263 0.956438C5.29122 2.03445 5.4624 3.10574 5.79966 4.12964C5.8503 4.28656 5.85636 4.45446 5.81716 4.61462C5.77796 4.77478 5.69504 4.9209 5.57764 5.03669L3.62152 6.99182Z" fill="white"/>
</svg>
