<svg width="15" height="13" viewBox="0 0 15 13" fill="none" xmlns="http://www.w3.org/2000/svg">
<path d="M14.9932 0.582207C15.0223 0.407363 14.9567 0.230159 14.8208 0.116448C14.6848 0.00273758 14.4988 -0.0304814 14.3318 0.0291361L0.331836 5.02914C0.143209 5.0965 0.0129867 5.26994 0.000913704 5.46987C-0.0111592 5.6698 0.0972469 5.85765 0.276398 5.94722L4.2764 7.94722C4.43688 8.02746 4.62806 8.01556 4.77735 7.91603L8.09775 5.70244L6.10957 8.18766C6.02203 8.29709 5.98442 8.43824 6.00592 8.57672C6.02742 8.7152 6.10605 8.8383 6.22265 8.91603L12.2227 12.916C12.3638 13.0101 12.5431 13.0262 12.6988 12.9588C12.8545 12.8914 12.9653 12.7496 12.9932 12.5822L14.9932 0.582207Z" fill="white"/>
</svg>
