<svg width="337" height="190" viewBox="0 0 337 190" fill="none" xmlns="http://www.w3.org/2000/svg">
<path d="M65.0916 187.733C65.0916 187.733 32.1635 186.853 18.0928 164.417C-7.39891 123.779 4.08887 88.1321 49.4711 90.7854C100.239 93.7536 93.9782 -32.2316 181.884 28.4227C200.967 41.5948 243.455 13.9319 260.429 71.5616C264.464 85.2656 294.774 86.2203 314.363 97.2109C345.09 114.449 336.413 188.016 307.385 188.306C278.358 188.597 65.0916 187.733 65.0916 187.733Z" fill="#C2E7F2" fill-opacity="0.6"/>
<path d="M34.7413 99.9206C36.2096 100.264 42.8451 100.345 47.5042 99.2882C48.3923 99.1011 49.2606 98.8282 50.0968 98.4732C50.9757 98.0835 51.6369 97.6153 51.9748 97.0442C52.5011 96.1594 53.4638 93.1323 54.5967 89.1616C57.7169 78.2237 62.1122 60.1494 62.1122 60.1494C62.1122 60.1494 53.2949 61.9644 51.4303 63.5123C49.5657 65.0601 47.9162 89.6297 46.161 90.2928C45.9033 90.3908 45.4572 90.5967 44.8847 90.881L44.8009 90.9227C44.4605 91.0918 44.0716 91.2903 43.6619 91.5036C40.0215 93.3885 33.9974 96.7869 33.3739 97.5418C32.5473 98.5333 32.6008 99.423 34.7413 99.9206Z" fill="#739AF0"/>
<path d="M51.6587 74.1365C51.6612 73.7149 51.7019 73.2944 51.7802 72.8803C52.9143 66.5908 61.9346 60.1494 62.112 60.1494V60.2805C62.112 61.2414 63.6156 63.0159 65.93 63.1691C68.6758 63.3505 72.0634 61.7671 72.0634 60.1739C72.0792 60.1739 73.6059 60.3823 74.1298 60.4411C76.3311 60.6923 80.7227 61.8909 82.6055 63.326C84.3948 64.6888 81.8653 73.2823 80.2961 79.3671C79.6324 81.9407 79.1438 84.067 79.224 85.0045C79.2641 85.4641 79.6737 91.7107 80.0396 97.3616C80.3423 102.019 80.6157 106.277 80.6243 106.545C80.6437 107.074 78.0328 108.928 73.6484 110.329C72.506 110.694 71.3452 110.997 70.1709 111.238C67.6794 111.755 65.1418 112.01 62.5982 112.001C61.6927 112.001 60.8358 111.952 60.025 111.87C53.7676 111.251 51.6222 104.054 51.6587 74.1365Z" fill="#739AF0"/>
<path d="M72.0616 60.1015C72.1138 57.659 72.0749 54.741 71.7468 52.2777L62.0762 53.8709C62.0762 53.8709 62.0664 56.8477 62.109 60.1493C62.1029 60.1493 61.8452 63.2132 65.5866 63.6605C69.3279 64.1078 72.1625 62.4656 72.0616 60.1015Z" fill="#D9935C"/>
<path d="M63.971 189.211C65.1865 188.456 64.473 182.864 64.473 182.864C64.473 182.864 58.7771 178.305 58.0089 181.815C57.2407 185.325 52.634 186.917 50.0097 187.355C48.1973 187.659 47.5288 188.604 47.3574 189.203L63.971 189.211Z" fill="#233862"/>
<path d="M72.8291 93.06C72.8291 102.411 77.3265 99.8911 80.0371 97.3665C79.6724 91.7156 79.4147 71.7013 79.4147 71.7013C79.4147 71.7013 72.8291 79.6697 72.8291 93.06Z" fill="#4A75CB"/>
<path d="M43.6582 91.5036C43.8381 92.8149 45.8923 96.6324 47.5041 99.2882C48.3922 99.101 49.2605 98.8281 50.0968 98.4732C50.9756 98.0835 51.6368 97.6153 51.9747 97.0442C52.501 96.1594 53.4637 93.1323 54.5966 89.1616C53.7591 84.2741 52.9617 79.448 52.9617 79.448L52.7186 76.2113C52.7186 76.4564 48.9603 90.6812 47.2573 91.0134C46.2314 91.2143 45.5046 90.9705 44.8847 90.881L44.8008 90.9227C44.4568 91.0918 44.0727 91.2879 43.6582 91.5036Z" fill="#4A75CB"/>
<path d="M81.4232 189.211C82.6387 188.456 81.924 182.864 81.924 182.864C81.924 182.864 76.2281 178.305 75.4611 181.815C74.6941 185.325 70.0861 186.917 67.4606 187.355C65.6495 187.659 64.9907 188.604 64.8193 189.203L81.4232 189.211Z" fill="#233862"/>
<path d="M72.9829 49.4651C72.9829 49.4651 79.4385 39.2024 67.0415 38.5235C67.0415 38.5235 62.3921 39.075 61.3395 38.0137C61.3395 38.0137 57.7331 43.5408 61.0964 49.4651C64.4597 55.3893 72.9829 49.4651 72.9829 49.4651Z" fill="#233862"/>
<path d="M62.3622 54.8207C63.3018 55.5658 66.0573 56.3073 66.8596 56.3931C66.8596 56.3931 70.9461 55.4751 71.6888 55.0229C72.8387 54.3207 72.7645 52.8966 72.8241 50.9186C72.8946 48.5778 73.128 46.7383 72.8691 45.389C72.5603 43.7737 71.5454 42.8546 68.7023 42.6058C63.4829 42.1487 61.3096 43.4637 61.2184 45.2309C61.1953 45.7039 61.1734 46.1562 61.1576 46.579C60.9425 52.0853 61.374 54.0364 62.3622 54.8207Z" fill="#D9935C"/>
<path d="M61.1048 48.3879C61.1558 51.5743 62.0079 53.4617 62.6254 53.6994C63.4099 53.9944 64.2207 54.2128 65.0467 54.3514C65.3408 54.3869 65.6228 54.3771 65.6192 54.208C65.6095 53.7056 64.9434 53.0867 65.4381 52.6406C65.9571 52.1736 68.7443 52.0168 68.963 53.0352C69.0724 53.5327 68.1742 54.409 68.7892 54.4298C68.9764 54.398 69.1539 54.3612 69.335 54.3146C70.0931 54.1034 70.8167 53.7817 71.4828 53.3599C72.6327 52.6565 72.5573 51.5792 72.8114 49.6172C72.9767 48.3475 72.9767 49.035 72.8114 50.9187C72.64 52.8906 72.9767 54.1553 71.6773 55.023C70.948 55.5059 66.7885 57.3932 66.7885 57.3932C66.8481 56.3932 63.2963 55.5659 62.3568 54.8196C61.4901 54.1296 61.0525 52.5303 61.1048 48.3879Z" fill="#233862"/>
<path d="M80.621 106.549C80.6417 107.079 78.0296 108.933 73.6452 110.334C73.2927 110.448 72.9269 110.557 72.5513 110.662C72.5489 110.663 72.5468 110.664 72.5451 110.666C72.5434 110.668 72.5421 110.67 72.5415 110.672C72.1331 115.511 71.0258 122.347 70.0267 128.942C69.7678 130.652 69.5186 132.346 69.2876 133.984C68.6799 138.32 68.2228 142.27 68.173 145.115V145.144C68.1511 146.449 69.2427 149.704 69.3253 150.456C69.3764 150.916 69.4177 151.403 69.4469 151.912C69.5684 153.948 69.5186 156.355 69.3545 158.925C68.6386 170.14 65.6994 184.489 64.6517 185.1C62.5671 186.315 58.7735 185.1 56.8457 184.815C56.0471 184.692 55.4089 184.01 55.4491 183.197C56.3911 164.586 53.6866 138.665 51.664 122.731C51.6113 122.316 51.5594 121.907 51.5084 121.506C51.2653 119.627 51.106 117.872 51.0064 116.29C50.914 114.903 50.869 113.643 50.8496 112.55C50.8496 112.21 50.8411 111.884 50.8398 111.578C50.8398 110.58 51.6214 104.049 51.6579 74.1315C51.6595 73.7987 51.7914 73.4799 52.025 73.2446C52.2586 73.0094 52.5748 72.8767 52.905 72.8754H71.0513C71.4678 72.8757 71.88 72.9593 72.2641 73.1216C72.6482 73.2838 72.9966 73.5213 73.2889 73.8204C73.5812 74.1194 73.8117 74.4741 73.967 74.8637C74.1222 75.2533 74.1992 75.6701 74.1934 76.0899C74.1655 78.3719 74.2469 81.5583 74.7392 84.5989C75.4089 88.7534 76.8432 92.6347 79.803 93.5686C79.803 93.5686 79.8091 93.5686 79.8103 93.5747C79.8237 93.6041 79.9039 93.7867 80.034 94.0882C80.0615 94.8399 80.0927 95.605 80.1275 96.3836C80.1348 96.5393 80.1409 96.6974 80.1494 96.8555C80.1494 96.9486 80.1579 97.0393 80.1628 97.1324C80.1628 97.2905 80.1774 97.4486 80.1859 97.6092C80.1968 97.8714 80.2102 98.1349 80.2248 98.4021C80.2369 98.6117 80.2479 98.82 80.26 99.0308C80.2807 99.4364 80.3062 99.8458 80.3318 100.256C80.339 100.389 80.3463 100.52 80.3573 100.655C80.3913 101.189 80.4278 101.732 80.4691 102.278C80.48 102.445 80.4934 102.613 80.5068 102.782C80.5068 102.864 80.5177 102.945 80.525 103.027C80.5408 103.242 80.5578 103.456 80.5761 103.672C80.5943 103.888 80.6137 104.128 80.6332 104.359C80.7098 105.211 80.6004 105.96 80.621 106.549Z" fill="#2B478B"/>
<path d="M69.354 158.926C68.638 170.141 65.6989 184.49 64.6512 185.101C62.5666 186.316 58.773 185.101 56.8452 184.816C56.0466 184.693 55.4084 184.011 55.4485 183.198C56.3906 164.587 53.6861 138.666 51.6635 122.733C51.6108 122.317 51.5589 121.908 51.5079 121.507C51.2648 119.628 51.1055 117.873 51.0059 116.291C51.9673 109.974 57.3934 109.635 62.3101 122.703C61.706 127.043 69.5181 156.357 69.354 158.926Z" fill="#233862"/>
<path d="M80.8315 144.588C80.9798 145.884 82.4846 148.968 82.6657 149.702C85.1539 159.789 83.7791 183.708 82.5442 184.664C80.6358 186.144 76.717 185.441 74.7649 185.415C73.9578 185.403 73.2346 184.803 73.1701 183.997C71.6398 164.94 65.3022 138.764 61.2253 123.366C59.1723 115.61 58.8818 109.906 58.8818 109.906C58.8818 109.906 77.9337 98.1411 79.994 104.567C81.8173 110.255 79.6756 134.634 80.8315 144.588Z" fill="#2B478B"/>
<path d="M61.4207 35.6533C61.552 35.5046 61.691 35.36 61.8376 35.2195C62.4979 34.588 63.2675 34.0841 64.1082 33.7329C67.4302 32.3358 70.1858 33.625 71.9069 34.9462C72.0759 35.0749 72.2351 35.2048 72.3846 35.3334C72.9223 35.7866 73.4112 36.2955 73.8432 36.8519C73.8432 36.8519 75.4574 39.0701 75.4039 43.748L58.7855 43.9269C58.7855 43.9269 58.5399 38.8753 61.4207 35.6533Z" fill="#FFA412"/>
<path d="M70.7424 43.797L69.8296 43.8068C69.8101 43.5396 69.8551 37.4598 72.105 35.0981C72.2752 35.2281 72.2387 35.2048 72.3882 35.3334C70.2477 37.4132 70.7339 43.7345 70.7424 43.797Z" fill="#E27F2B"/>
<path d="M63.5174 43.8742C63.3278 40.1511 61.9129 36.2391 61.5312 35.5406C61.6273 35.4263 61.7295 35.3175 61.8375 35.2146C62.1025 35.6754 64.2686 39.7258 64.4995 43.8608L75.4026 43.7382C75.4026 43.7382 69.8769 44.9883 66.544 45.0299C63.2111 45.0716 58.7842 43.9171 58.7842 43.9171L63.5174 43.8742Z" fill="#E27F2B"/>
<path d="M74.7771 60.5305C74.7771 60.5305 69.1627 67.1251 68.832 72.8803L71.6933 73.0335C71.6933 73.0335 72.4129 66.6239 76.6393 60.9251C76.6393 60.9251 75.978 60.7634 75.758 60.7193C75.4639 60.6641 74.7771 60.5305 74.7771 60.5305Z" fill="#2B478B"/>
<path d="M60.775 60.4398C56.7529 66.5773 56.3226 73.0053 56.3226 73.0053L53.4346 72.955C53.6716 68.4316 56.4904 63.4559 58.0462 61.0979C58.0474 61.0979 60.0457 60.5893 60.775 60.4398Z" fill="#2B478B"/>
<path d="M67.0467 123.731H69.3647C70.4429 123.241 76.2481 120.702 81.8285 120.668C85.8555 120.646 90.4428 123.679 90.7188 123.711C91.4189 123.794 88.3862 123.822 88.3862 123.822C88.3862 123.822 83.8426 121.799 81.803 121.751C79.8582 121.704 75.5358 123.131 73.8098 123.731H86.8036C87.3271 123.733 87.8287 123.943 88.1989 124.316C88.569 124.689 88.7775 125.195 88.7788 125.723V140.662C88.7769 141.19 88.5681 141.695 88.1981 142.068C87.8281 142.441 87.3268 142.651 86.8036 142.652H67.0467C66.523 142.651 66.0213 142.44 65.651 142.067C65.2807 141.694 65.0719 141.188 65.0703 140.66V125.72C65.0726 125.193 65.2816 124.688 65.6519 124.315C66.0222 123.943 66.5236 123.733 67.0467 123.731Z" fill="#FFA412"/>
<path d="M93.2255 123.731H73.4674C72.3765 123.731 71.4922 124.623 71.4922 125.723V140.664C71.4922 141.763 72.3765 142.655 73.4674 142.655H93.2255C94.3163 142.655 95.2007 141.763 95.2007 140.664V125.723C95.2007 124.623 94.3163 123.731 93.2255 123.731Z" fill="#E27F2B"/>
<path d="M79.27 95.9339C79.1277 102.687 79.9628 116.134 79.9628 116.134H83.9144C85.7802 106.672 86.4378 100.585 86.4378 97.2612C86.4378 96.6079 86.4378 95.9976 86.4293 95.4351C86.405 92.6004 86.3296 90.9533 86.3296 90.9533C87.0699 73.775 83.6677 64.5883 82.5992 63.3236C81.5308 62.0588 76.6432 60.9215 76.6432 60.9215C76.6432 60.9215 75.029 65.6668 74.3702 69.4856C73.7114 73.3043 79.5495 89.3393 79.3089 94.8285C79.291 95.1741 79.2781 95.5425 79.27 95.9339Z" fill="#739AF0"/>
<path d="M27.9853 100.531H31.1809C31.3338 100.532 31.4802 100.594 31.5881 100.703C31.696 100.812 31.7568 100.96 31.7571 101.114V188.848C31.7567 189.002 31.696 189.15 31.588 189.259C31.4801 189.368 31.3337 189.429 31.1809 189.43H27.9853C27.8324 189.43 27.6859 189.368 27.5779 189.259C27.4698 189.15 27.4092 189.002 27.4092 188.848V101.114C27.4092 100.96 27.4698 100.812 27.5778 100.703C27.6858 100.593 27.8323 100.532 27.9853 100.531Z" fill="#F1A34F"/>
<path d="M27.9853 100.531H31.1809C31.3338 100.532 31.4802 100.594 31.5881 100.703C31.696 100.812 31.7568 100.96 31.7571 101.114V103.832H27.4092V101.114C27.4092 100.96 27.4698 100.812 27.5778 100.703C27.6858 100.593 27.8323 100.532 27.9853 100.531Z" fill="#2B478B"/>
<path d="M31.7571 188.848C31.7567 189.002 31.696 189.15 31.588 189.259C31.4801 189.368 31.3337 189.429 31.1809 189.43H27.9853C27.8324 189.43 27.6859 189.368 27.5779 189.259C27.4698 189.15 27.4092 189.002 27.4092 188.848V186.504H31.7571V188.848Z" fill="#2B478B"/>
<path d="M29.556 106.28C29.6432 106.28 29.7268 106.315 29.7885 106.377C29.8502 106.44 29.8851 106.524 29.8854 106.612V183.837C29.8854 183.925 29.8507 184.009 29.7889 184.072C29.7271 184.134 29.6433 184.169 29.556 184.169C29.4686 184.169 29.3848 184.134 29.323 184.072C29.2613 184.009 29.2266 183.925 29.2266 183.837V106.612C29.2269 106.524 29.2617 106.44 29.3234 106.377C29.3851 106.315 29.4687 106.28 29.556 106.28Z" fill="#E27F2B"/>
<path d="M79.9629 116.134C79.9629 116.134 79.1278 102.686 79.27 95.9338C82.4304 94.9068 84.9829 95.1323 86.4294 95.4436C86.4355 96.0061 86.4379 96.6164 86.4379 97.2696C86.4379 100.59 85.7803 106.677 83.9145 116.143C84.7374 119.628 84.6827 123.391 83.2557 124.055C81.8287 124.719 77.1089 122.229 77.1636 121.122C77.2183 120.016 79.9629 116.134 79.9629 116.134Z" fill="#D9935C"/>
<path d="M25.8998 100.586C26.2851 99.1619 26.5707 98.3727 27.5432 97.6802C28.9556 96.6753 30.633 96.9449 31.8837 97.1692C32.8391 97.3383 33.8395 97.0148 34.2588 96.853C36.4735 95.3652 42.0308 92.2977 44.7973 90.9226C46.6862 92.0256 49.0054 94.2107 50.0969 98.4731C45.8427 100.368 36.516 100.335 34.7414 99.9205C34.7414 99.9205 33.098 101.125 31.8485 101.236C31.3744 101.277 30.7788 101.139 30.2209 100.95C29.3421 100.653 28.3977 100.95 27.768 101.737C27.1603 102.494 26.3678 102.91 26.0384 102.91C25.5254 102.91 25.6567 101.482 25.8998 100.586Z" fill="#D9935C"/>
<path d="M132.726 83.9616C131.096 88.9863 122.218 97.6815 120.991 98.5455C120.991 98.5455 118.924 95.0735 119.337 93.1298C119.675 91.5428 123.132 85.8857 124.321 83.1062C124.383 82.9615 124.443 82.8243 124.486 82.6956C124.649 82.2691 124.729 81.9395 124.715 81.7434C124.657 81.1392 122.77 79.6698 120.582 77.927C117.739 75.661 114.383 72.9354 113.832 71.0505C112.869 67.7183 109.528 54.5229 109.528 54.5229C109.528 54.5229 117.827 56.3318 120.168 58.4153C122.509 60.4987 132.566 77.8547 132.977 82.2985C133.006 82.8643 132.921 83.43 132.726 83.9616Z" fill="#FFA412"/>
<path d="M132.726 83.9615C131.096 88.9862 122.218 97.6814 120.99 98.5454C120.99 98.5454 118.924 95.0735 119.337 93.1298C119.693 91.4606 123.5 85.2863 124.48 82.6955C125.955 82.4406 129.418 82.1232 132.726 83.9615Z" fill="#D9935C"/>
<path d="M109.528 53.3661L109.522 54.3906C109.522 54.3906 109.799 57.5954 105.886 58.0672C101.972 58.539 99.024 57.1039 99.1297 54.6357C99.4822 52.7214 99.8517 51.1184 99.8773 49.535C99.8858 48.8925 99.8394 48.2504 99.7387 47.6158L107.323 47.4626L109.556 47.8303L109.528 53.3661Z" fill="#D9935C"/>
<path d="M109.556 47.8217L109.528 53.3661C108.673 53.7707 107.739 53.9799 106.794 53.9789C103.308 53.9789 101.055 51.4052 99.8769 49.5314C99.8854 48.8888 99.839 48.2467 99.7383 47.6122L107.323 47.459L109.556 47.8217Z" fill="#CB7D45"/>
<path d="M102.842 189.259C102.842 189.259 102.478 186.368 101.621 184.648C100.764 182.929 95.344 184.023 95.344 184.023C95.344 184.023 94.2585 184.961 94.0264 189.337L102.842 189.259Z" fill="#233862"/>
<path d="M121.327 189.249C120.052 188.464 120.778 182.612 120.778 182.612C120.778 182.612 126.718 177.821 127.535 181.489C128.352 185.157 133.177 186.804 135.922 187.249C137.818 187.559 138.405 188.618 138.588 189.244L121.327 189.249Z" fill="#233862"/>
<path d="M109.022 146.031C109.231 147.1 109.376 148.18 109.459 149.266C110.011 160.126 118.525 184.957 120.048 185.542C122.405 186.437 126.116 184.532 128.057 183.908C128.862 183.649 129.405 182.831 129.225 182.001C125.009 162.456 123.459 134.313 122.895 117.65C122.61 109.253 121.186 103.455 121.186 103.455C121.186 103.455 100.415 97.869 100.291 104.935C100.182 111.189 107.171 135.715 109.022 146.031Z" fill="#2B478B"/>
<path d="M109.022 146.031L122.895 117.652C122.61 109.253 121.186 103.455 121.186 103.455C121.186 103.455 100.415 97.869 100.291 104.935C100.182 111.189 107.171 135.715 109.022 146.031Z" fill="#233862"/>
<path d="M113.65 104.961L102.672 185.185C102.672 185.185 97.8498 186.356 94.0999 185.419C94.0999 185.419 90.8861 142.752 91.1547 132.438C91.4234 122.124 88.8453 104.836 91.7418 102.929C94.6384 101.022 113.65 104.961 113.65 104.961Z" fill="#2B478B"/>
<path d="M121.779 105.109C121.779 105.109 116.169 108.407 108.044 108.314C105.278 108.294 102.516 108.085 99.7782 107.688C93.2606 106.708 89.9727 104.879 89.9982 104.195C90.0201 103.582 90.0626 101.531 90.1404 100.65C91.176 88.6088 90.64 79.242 92.0342 72.2062C92.0512 72.1217 92.067 72.0371 92.0852 71.9538C93.9292 63.0073 96.8257 57.8686 98.2552 55.7607C98.7803 54.9911 99.106 54.6271 99.1255 54.6271C99.1255 56.2963 102.65 57.7387 105.525 57.5488C107.946 57.3895 109.518 55.5328 109.518 54.5278C109.717 54.5278 120.441 62.0428 120.449 69.0259C120.493 100.32 122.375 105.12 121.779 105.109Z" fill="#FFA412"/>
<path d="M99.793 107.585C99.793 107.619 99.7833 107.655 99.7772 107.688C93.2596 106.708 89.9717 104.879 89.9972 104.195C90.0191 103.582 90.0616 101.531 90.1394 100.65C91.1751 88.6088 90.639 79.242 92.0332 72.2062C95.4585 76.8167 102.491 88.8907 99.793 107.585Z" fill="#E27F2B"/>
<path d="M117.649 92.6163L116.774 95.5576L115.904 98.4731L78.1016 87.007C78.0492 87.0106 77.9965 87.0048 77.946 86.9898C77.8939 86.9737 77.8446 86.9493 77.8002 86.9175C77.3237 86.5768 77.2374 85.3317 77.6033 83.9272C77.6227 83.85 77.6446 83.7715 77.6677 83.6931C78.1101 82.1832 78.9148 81.0668 79.5311 81.057C79.5808 81.056 79.6304 81.0626 79.6781 81.0766C79.7279 81.0918 79.775 81.1145 79.8179 81.144L117.649 92.6163Z" fill="#E9F3FE"/>
<path d="M116.774 95.5552L115.904 98.4707L78.1016 87.0046C78.0492 87.0082 77.9965 87.0024 77.946 86.9874C77.8939 86.9713 77.8446 86.9469 77.8002 86.9151C77.3237 86.5744 77.2374 85.3293 77.6033 83.9248C79.1482 85.094 86.5288 90.267 99.1263 92.783C112.146 95.3836 116.175 95.5466 116.774 95.5552Z" fill="#BED4F4"/>
<path d="M117.722 92.5991C117.09 92.4104 116.189 93.5795 115.711 95.2156C115.234 96.8517 115.358 98.3248 115.99 98.5136C116.622 98.7023 117.523 97.5331 118 95.897C118.478 94.2609 118.354 92.7878 117.722 92.5991Z" fill="#AFCDFB"/>
<path d="M80.0873 80.0656L75.6312 79.3364C75.5842 79.3146 75.5342 79.2997 75.4829 79.2923C75.4337 79.2855 75.3838 79.2855 75.3346 79.2923C74.7269 79.3842 74.0717 80.5963 73.8298 82.1515C73.8165 82.2336 73.8043 82.3132 73.7958 82.3966C73.7102 83.0067 73.7155 83.6263 73.8116 84.2349C73.9113 84.7802 74.1021 85.1773 74.3634 85.3256L74.3792 85.3354C74.4274 85.3616 74.4796 85.3794 74.5336 85.3881C74.5855 85.3973 74.6385 85.3973 74.6904 85.3881L113.66 91.7609L114.146 88.7559L114.632 85.7276L80.0873 80.0656Z" fill="#E9F3FE"/>
<path d="M96.2852 88.3282C87.9504 87.7877 83.532 83.3439 80.0873 80.0656L75.6312 79.3364C75.5842 79.3146 75.5342 79.2997 75.4829 79.2923C75.4337 79.2855 75.3838 79.2855 75.3346 79.2923C74.7269 79.3842 74.0717 80.5963 73.8298 82.1515C73.8165 82.2336 73.8043 82.3132 73.7958 82.3966C73.7102 83.0067 73.7155 83.6263 73.8116 84.2349C74.0207 84.8317 74.2358 85.2374 74.3634 85.3256L74.3792 85.3354C74.4274 85.3616 74.4796 85.3794 74.5336 85.3881C74.5855 85.3973 74.6385 85.3973 74.6904 85.3881L113.66 91.7609L114.146 88.7559C113.549 88.8159 109.533 89.1873 96.2852 88.3282Z" fill="#BED4F4"/>
<path d="M114.701 85.6907C114.05 85.5866 113.31 86.8673 113.047 88.5487C112.785 90.2302 113.101 91.6787 113.752 91.7817C114.404 91.8846 115.143 90.6052 115.406 88.9225C115.668 87.2398 115.352 85.7937 114.701 85.6907Z" fill="#AFCDFB"/>
<path d="M100.837 97.2525C91.7985 95.8027 85.8243 91.9827 83.3714 90.1371C82.5339 89.5071 82.1061 89.1051 82.1061 89.1051C77.475 79.2923 85.8535 62.0747 87.385 59.1567C89.0381 56.0107 99.1293 54.6222 99.1293 54.6222C98.0138 58.2061 97.2632 61.8952 96.8891 65.6324C96.2595 71.8643 89.5438 84.0081 89.8197 85.0278C89.8878 85.2851 90.6997 85.8232 91.8861 86.4984C95.394 88.512 102.173 91.7584 102.583 92.5207C103.132 93.549 100.837 97.2525 100.837 97.2525Z" fill="#D9935C"/>
<path d="M102.581 92.528C102.581 92.528 107.63 90.4912 108.87 91.3245C110.11 92.1579 112.176 93.408 112.176 94.2401C112.176 95.0722 109.559 97.2954 107.356 97.9903C105.152 98.6851 100.837 97.2488 100.837 97.2488L102.581 92.528Z" fill="#D9935C"/>
<path d="M96.8892 65.6373C96.2596 71.8692 89.5439 84.013 89.8198 85.0327C89.8879 85.2901 90.6999 85.8281 91.8862 86.5033C91.8105 86.5077 91.7346 86.5077 91.6589 86.5033C86.3751 86.268 83.9854 89.2154 83.3752 90.1272C82.5377 89.4973 82.1099 89.0953 82.1099 89.0953C77.4751 79.2923 85.8536 62.0747 87.3852 59.1567C89.0383 56.0107 99.1294 54.6222 99.1294 54.6222C98.0136 58.2077 97.263 61.8984 96.8892 65.6373Z" fill="#FFA412"/>
<path d="M110.004 50.5154C110.004 50.5154 100.289 52.4947 99.16 46.3756C98.0308 40.2565 96.0143 36.3985 102.168 34.8714C108.323 33.3444 109.961 35.4573 110.831 37.4071C111.702 39.3569 112.497 49.8438 110.004 50.5154Z" fill="#D9935C"/>
<path d="M99.3503 48.1403C99.3503 48.1403 97.4723 44.0961 95.9067 42.3043C94.3412 40.5126 95.1944 31.538 101.958 31.826C108.721 32.114 111.141 36.9929 111.211 37.9267C111.282 38.8606 105.801 38.1424 104.306 39.3618C102.811 40.5812 104.235 42.5923 102.526 43.3093C100.817 44.0262 99.4657 44.0274 99.7502 45.6059C100.035 47.1844 99.3503 48.1403 99.3503 48.1403Z" fill="#233862"/>
<path d="M101.438 27.6591C99.5024 28.1494 98.0511 28.9325 96.9669 29.8761C96.8599 29.9693 96.7554 30.0649 96.6545 30.1617C92.6433 34.0185 94.2441 40.1559 94.2441 40.1559C94.2441 40.1559 94.7777 41.7063 95.1448 42.308C95.5119 42.9097 100.838 42.2161 101.113 41.0579C101.388 39.8998 102.45 38.6976 102.45 38.6976C102.45 38.6976 108.063 38.3091 108.44 38.2809C109.709 38.189 113.328 36.9193 113.328 36.9193C113.285 36.5614 111.243 25.1762 101.438 27.6591Z" fill="#FFA412"/>
<path d="M116.647 35.7171C115.974 35.5516 114.824 35.3666 112.934 35.2967C112.934 35.2967 111.345 36.624 108.186 37.635C106.702 35.7489 102.473 31.2046 96.9668 29.8761L96.9182 29.8639C96.7967 30.0122 96.7359 30.0624 96.6544 30.1617C96.6256 30.1956 96.5989 30.2312 96.5742 30.2683C101.057 31.0563 105.317 36.1325 106.784 38.0321C105.362 38.382 103.911 38.6047 102.45 38.6976C102.45 38.6976 112.26 38.8826 116.744 36.5014C116.82 36.4612 116.881 36.399 116.92 36.3229C116.959 36.2468 116.975 36.1605 116.964 36.0754C116.953 35.9903 116.918 35.9105 116.861 35.8465C116.804 35.7825 116.73 35.7374 116.647 35.7171Z" fill="#E27F2B"/>
<path d="M126.637 80.6404C126.455 81.6784 125.899 82.7716 124.314 83.1135C124.376 82.9689 124.436 82.8317 124.48 82.703C124.643 82.2765 124.723 81.9468 124.708 81.7507C124.65 81.1466 122.763 79.6771 120.575 77.9344C120.396 76.9466 119.954 74.0127 120.575 71.6842C121.334 68.8324 126.844 79.4541 126.637 80.6404Z" fill="#E27F2B"/>
<path d="M90.8292 85.8072C90.8292 85.8072 84.0807 85.252 81.877 89.2093C81.877 89.2093 82.0654 90.5439 83.372 90.137C83.372 90.137 89.0849 86.203 91.8806 86.5082C91.883 86.5082 91.4491 85.8194 90.8292 85.8072Z" fill="#E27F2B"/>
<path d="M124.314 83.1086C124.314 83.1086 127.816 83.2557 132.224 85.192C132.224 85.192 133.196 84.2238 132.811 83.6674C132.426 83.1111 126.217 81.1147 124.314 83.1086Z" fill="#E27F2B"/>
<path d="M251.35 108.318L257.699 184.443C257.699 184.443 258.366 189.058 254.961 189.066C249.37 189.08 227.101 189.066 227.101 189.066C227.101 189.066 231.314 188.105 231.263 185.945C231.204 183.397 223.849 107.602 223.849 107.602L251.35 108.318Z" fill="#D86713"/>
<path d="M253.11 187.681C247.659 187.751 226.396 187.681 225.295 187.681C225.709 187.681 228.907 187.602 229.36 185.175C229.397 184.973 229.415 184.768 229.413 184.562C229.413 184.087 229.152 181.076 228.732 176.486C228.357 172.371 227.851 166.987 227.285 161.028C225.097 137.939 221.991 106.22 221.991 106.22L249.499 106.939L254.011 161.028L254.893 171.585L255.684 181.083L255.849 183.062C255.849 183.062 256.626 187.636 253.11 187.681Z" fill="#EE9849"/>
<path d="M318.155 66.896L302.689 129.534L300.571 138.113L293.367 167.288H159.537L186.087 66.896H318.155Z" fill="#F1A34F"/>
<path d="M318.155 66.896L320.299 67.6166L296.218 169.467L293.367 167.288L318.155 66.896Z" fill="#EE9849"/>
<path d="M296.217 169.467H163.21L159.537 167.288H293.367L296.217 169.467Z" fill="#D86713"/>
<path d="M249.509 187.712H220.711V189.092H249.509V187.712Z" fill="#F1A34F"/>
<path d="M255.072 169.423L254.892 171.583L254.885 171.662C254.885 171.662 236.178 173.471 228.732 176.484C228.544 174.42 228.322 172.037 228.078 169.423H255.072Z" fill="#D86713"/>
<path opacity="0.4" d="M253.109 187.681C247.659 187.751 226.396 187.681 225.295 187.681C225.709 187.681 228.907 187.602 229.36 185.175C231.547 185.289 243.726 185.681 255.684 181.081L255.849 183.06C255.849 183.06 256.626 187.636 253.109 187.681Z" fill="#D86713"/>
<path opacity="0.4" d="M298.06 147.58L293.198 167.288H248.136C267.188 161.186 276.205 152.258 279.84 147.58H298.06Z" fill="#D86713"/>
<path d="M317.146 68.2233L298.06 147.581H166.348L187.736 68.2233H317.146Z" fill="#D2E4FF"/>
<path d="M164.719 147.58H166.348L166.021 148.79L164.445 148.61L164.719 147.58Z" fill="#F1A34F"/>
<path d="M219.299 21.2448H218.886V28.6519H219.299V21.2448Z" fill="#739AF0"/>
<path d="M242.163 21.2448H241.75V28.6519H242.163V21.2448Z" fill="#739AF0"/>
<path d="M222.188 21.2448H221.774V28.6519H222.188V21.2448Z" fill="#739AF0"/>
<path d="M244.228 21.2448H243.814V28.6519H244.228V21.2448Z" fill="#739AF0"/>
<path d="M214.069 14.2003L214.055 14.1905L213.987 14.1427L193.457 0L145.415 14.5839L145.07 29.1568H143.968C143.654 29.1577 143.353 29.2839 143.131 29.5078C142.909 29.7317 142.784 30.0351 142.783 30.3517V31.5466C142.784 31.8632 142.909 32.1665 143.131 32.3904C143.353 32.6143 143.654 32.7405 143.968 32.7415H147.787C148.101 32.7405 148.402 32.6143 148.624 32.3904C148.846 32.1665 148.972 31.8632 148.973 31.5466V30.3517C148.972 30.0351 148.846 29.7317 148.624 29.5078C148.402 29.2839 148.101 29.1577 147.787 29.1568H145.929L154.988 19.3329H187.486V147.58H195.387V19.3365H202.101V22.1246C202.102 22.4412 202.227 22.7446 202.449 22.9685C202.672 23.1924 202.972 23.3186 203.286 23.3195H213.359C213.673 23.3186 213.974 23.1924 214.196 22.9685C214.418 22.7446 214.544 22.4412 214.544 22.1246V15.1538C214.544 14.9686 214.501 14.786 214.418 14.6205C214.336 14.455 214.216 14.3112 214.069 14.2003ZM145.758 28.3185L146.093 19.3365H154.04L145.758 28.3185ZM203.283 13.9601C203.003 13.961 202.733 14.0612 202.519 14.2433C202.306 14.4253 202.163 14.6774 202.116 14.9552H146.613L193.342 0.762284L212.632 13.9601H203.283Z" fill="#739AF0"/>
<path d="M313.08 61.2132H312.407L312.256 52.3305L282.83 43.384L270.248 52.0498L270.664 51.9175C270.47 51.9175 270.285 51.9949 270.148 52.1328C270.011 52.2707 269.935 52.4578 269.935 52.6528V56.9127C269.935 57.1078 270.011 57.2948 270.148 57.4327C270.285 57.5706 270.47 57.6481 270.664 57.6481H276.822C277.015 57.6481 277.201 57.5706 277.337 57.4327C277.474 57.2948 277.551 57.1078 277.551 56.9127V55.2092H281.656V133.6H286.485V55.2092H306.349L311.887 61.2144H310.751C310.558 61.2144 310.372 61.2918 310.236 61.4297C310.099 61.5676 310.022 61.7547 310.022 61.9497V62.685C310.022 62.88 310.099 63.0671 310.236 63.205C310.372 63.3429 310.558 63.4203 310.751 63.4203H313.085C313.279 63.4203 313.464 63.3429 313.601 63.205C313.738 63.0671 313.814 62.88 313.814 62.685V61.9497C313.815 61.8526 313.796 61.7565 313.759 61.6668C313.722 61.5771 313.668 61.4957 313.6 61.4272C313.531 61.3587 313.45 61.3046 313.361 61.2678C313.272 61.2311 313.177 61.2125 313.08 61.2132ZM277.535 52.5302C277.507 52.3598 277.419 52.205 277.289 52.093C277.158 51.9809 276.993 51.9188 276.822 51.9175H271.042L282.9 43.851L311.465 52.5253L277.535 52.5302ZM306.916 55.2092H311.837L311.979 60.6997L306.916 55.2092Z" fill="#739AF0"/>
<path d="M273.099 63.4951V62.9742H271.969V59.5427H271.036V62.9742H268.669V59.5427H267.735V62.9742H265.163V59.5427H264.228V62.9742H261.861V59.5427H260.928V62.9742H259.69V63.4951H260.928V65.1655H259.69V65.6888H260.928V67.3555H259.69V67.8764H260.928V69.5468H259.69V70.0664H260.928V71.7381H259.69V72.2577H260.928V73.9281H259.69V74.4477H260.928V75.7958H259.69V76.3167H260.928V77.9871H259.69V78.5067H260.928V80.1783H259.69V80.698H260.928V82.3684H259.69V82.888H260.928V84.5621H259.69V85.0817H260.928V86.7521H259.69V87.273H260.928V88.8662H259.69V89.3858H260.928V91.0574H259.69V91.5771H260.928V93.2487H259.69V93.7683H260.928V95.4387H259.69V95.9596H260.928V97.63H259.69V98.1496H260.928V99.82H259.69V100.341H260.928V101.689H259.69V102.21H260.928V103.88H259.69V104.401H260.928V106.072H259.69V106.591H260.928V108.262H259.69V108.782H260.928V110.453H259.69V110.972H260.928V112.644H259.69V113.164H260.928V114.654H259.69V115.174H260.928V116.845H259.69V117.365H260.928V119.035H259.69V119.555H260.928V121.23H259.69V121.75H260.928V123.42H259.69V123.94H260.928V125.618H259.69V126.137H260.928V127.485H259.69V128.005H260.928V129.677H259.69V130.196H260.928V131.868H259.69V132.389H273.099V131.868H271.969V130.197H273.099V129.678H271.969V128.006H273.099V127.487H271.969V126.138H273.099V125.618H271.969V123.946H273.099V123.426H271.969V121.75H273.099V121.23H271.969V119.559H273.099V119.039H271.969V117.369H273.099V116.849H271.969V115.177H273.099V114.658H271.969V113.167H273.099V112.648H271.969V110.976H273.099V110.456H271.969V108.786H273.099V108.265H271.969V106.595H273.099V106.075H271.969V104.405H273.099V103.884H271.969V102.21H273.099V101.69H271.969V100.342H273.099V99.8213H271.969V98.1509H273.099V97.6312H271.969V95.9596H273.099V95.4387H271.969V93.7696H273.099V93.2499H271.969V91.5783H273.099V91.0574H271.969V89.3883H273.099V88.8686H271.969V87.2754H273.099V86.7546H271.969V85.0829H273.099V84.5621H271.969V82.8917H273.099V82.3721H271.969V80.7016H273.099V80.182H271.969V78.5104H273.099V77.9908H271.969V76.3203H273.099V75.7995H271.969V74.4514H273.099V73.9318H271.969V72.2577H273.099V71.7381H271.969V70.0664H273.099V69.5468H271.969V67.8764H273.099V67.3555H271.969V65.6888H273.099V65.1692H271.969V63.4951H273.099ZM267.735 63.4951V65.1655H265.163V63.4951H267.735ZM265.163 129.674V128.003H267.735V129.674H265.163ZM267.735 130.194V131.868H265.163V130.197L267.735 130.194ZM265.163 127.483V126.135H267.735V127.483H265.163ZM265.163 125.611V123.94H267.735V125.618L265.163 125.611ZM265.163 123.42V121.75H267.735V123.42H265.163ZM265.163 121.23V119.559H267.735V121.23H265.163ZM265.163 119.039V117.369H267.735V119.039H265.163ZM265.163 116.849V115.177H267.735V116.849H265.163ZM265.163 114.658V113.167H267.735V114.658H265.163ZM265.163 112.648V110.976H267.735V112.648H265.163ZM265.163 110.456V108.786H267.735V110.456H265.163ZM265.163 108.265V106.595H267.735V108.265H265.163ZM265.163 106.075V104.405H267.735V106.075H265.163ZM265.163 103.884V102.21H267.735V103.88L265.163 103.884ZM265.163 101.694V100.346H267.735V101.694H265.163ZM265.163 99.8213V98.1509H267.735V99.8213H265.163ZM265.163 97.6312V95.9596H267.735V97.63L265.163 97.6312ZM265.163 95.44V93.7696H267.735V95.44H265.163ZM265.163 93.2499V91.5783H267.735V93.2499H265.163ZM265.163 91.0587V89.3883H267.735V91.0574L265.163 91.0587ZM265.163 88.8686V87.2754H267.735V88.8686H265.163ZM265.163 86.7534V85.0829H267.735V86.7534H265.163ZM265.163 84.5633V82.8917H267.735V84.5621L265.163 84.5633ZM265.163 82.3721V80.7016H267.735V82.3721H265.163ZM265.163 80.182V78.5104H267.735V80.182H265.163ZM265.163 77.9908V76.3203H267.735V77.9908H265.163ZM265.163 75.7995V74.4514H267.735V75.7995H265.163ZM265.163 73.9281V72.2577H267.735V73.9281H265.163ZM265.163 71.7381V70.0664H267.735V71.7381H265.163ZM265.163 69.5468V67.8764H267.735V69.5468H265.163ZM265.163 67.3555V65.6888H267.735V67.3555H265.163ZM261.861 63.4951H264.228V65.1655H261.861V63.4951ZM261.861 65.6851H264.228V67.3555H261.861V65.6851ZM261.861 67.8764H264.228V69.5468H261.861V67.8764ZM261.861 70.0664H264.228V71.7381H261.861V70.0664ZM261.861 72.2577H264.228V73.9281H261.861V72.2577ZM261.861 74.4477H264.228V75.7958H261.861V74.4477ZM261.861 76.3203H264.228V77.9908H261.861V76.3203ZM261.861 78.5104H264.228V80.182H261.861V78.5104ZM261.861 80.7016H264.228V82.3721H261.861V80.7016ZM261.861 82.8917H264.228V84.5621H261.861V82.8917ZM261.861 85.0829H264.228V86.7534H261.861V85.0829ZM261.861 87.2742H264.228V88.8674H261.861V87.2742ZM261.861 89.3883H264.228V91.0574H261.861V89.3883ZM261.861 91.5783H264.228V93.2499H261.861V91.5783ZM261.861 93.7696H264.228V95.44H261.861V93.7696ZM261.861 95.9608H264.228V97.6312H261.861V95.9608ZM261.861 98.1509H264.228V99.8213H261.861V98.1509ZM261.861 100.342H264.228V101.69H261.861V100.342ZM261.861 102.214H264.228V103.884H261.861V102.214ZM261.861 104.405H264.228V106.075H261.861V104.405ZM261.861 106.595H264.228V108.265H261.861V106.595ZM261.861 108.786H264.228V110.456H261.861V108.786ZM261.861 110.976H264.228V112.648H261.861V110.976ZM261.861 113.167H264.228V114.658H261.861V113.167ZM261.861 115.177H264.228V116.849H261.861V115.177ZM261.861 117.369H264.228V119.039H261.861V117.369ZM261.861 119.559H264.228V121.23H261.861V119.559ZM261.861 121.75H264.228V123.42H261.861V121.75ZM261.861 123.94H264.228V125.618H261.861V123.94ZM261.861 126.131H264.228V127.479H261.861V126.131ZM261.861 128.003H264.228V129.674H261.861V128.003ZM261.861 130.194H264.228V131.868H261.861V130.194ZM271.036 131.864H268.669V130.194H271.036V131.864ZM271.036 129.674H268.669V128.003H271.036V129.674ZM271.036 127.483H268.669V126.135H271.036V127.483ZM271.036 125.611H268.669V123.94H271.036V125.611ZM271.036 123.42H268.669V121.75H271.036V123.42ZM271.036 121.23H268.669V119.559H271.036V121.23ZM271.036 119.039H268.669V117.369H271.036V119.039ZM271.036 116.849H268.669V115.177H271.036V116.849ZM271.036 114.658H268.669V113.167H271.036V114.658ZM271.036 112.648H268.669V110.976H271.036V112.648ZM271.036 110.456H268.669V108.786H271.036V110.456ZM271.036 108.265H268.669V106.595H271.036V108.265ZM271.036 106.075H268.669V104.405H271.036V106.075ZM271.036 103.884H268.669V102.21H271.036V103.884ZM271.036 101.694H268.669V100.346H271.036V101.694ZM271.036 99.8213H268.669V98.1509H271.036V99.8213ZM271.036 97.6312H268.669V95.9596H271.036V97.6312ZM271.036 95.44H268.669V93.7696H271.036V95.44ZM271.036 93.2499H268.669V91.5783H271.036V93.2499ZM271.036 91.0587H268.669V89.3883H271.036V91.0587ZM271.036 88.8686H268.669V87.2754H271.036V88.8686ZM271.036 86.7534H268.669V85.0829H271.036V86.7534ZM271.036 84.5633H268.669V82.8917H271.036V84.5633ZM271.036 82.3721H268.669V80.7016H271.036V82.3721ZM271.036 80.182H268.669V78.5104H271.036V80.182ZM271.036 77.9908H268.669V76.3203H271.036V77.9908ZM271.036 75.7995H268.669V74.4514H271.036V75.7995ZM271.036 73.9281H268.669V72.2577H271.036V73.9281ZM271.036 71.7381H268.669V70.0664H271.036V71.7381ZM271.036 69.5468H268.669V67.8764H271.036V69.5468ZM271.036 67.3555H268.669V65.6888H271.036V67.3555ZM271.036 65.1655H268.669V63.4951H271.036V65.1655Z" fill="#739AF0"/>
<path d="M255.22 27.3049H216.886V147.58H255.22V27.3049Z" fill="#739AF0"/>
<path opacity="0.5" d="M244.647 43.8325H216.9V61.4533H244.647V43.8325Z" fill="#AED3FF"/>
<path opacity="0.5" d="M244.647 76.0985H216.9V93.7193H244.647V76.0985Z" fill="#AED3FF"/>
<path opacity="0.5" d="M244.647 107.948H216.9V125.569H244.647V107.948Z" fill="#AED3FF"/>
<path d="M297.853 125.455V109.161H255.236V27.2375H244.648V147.58H255.236H298.06L303.381 125.455H297.853Z" fill="#4A75CB"/>
<path d="M292.231 147.571H293.165V146.063H295.532V147.576H296.463V146.062H298.422L298.544 145.542H296.463V143.878H298.949L300.084 139.157H299.97V137.486H300.486L300.608 136.966H299.966V135.296H301.009L301.13 134.776H299.962V133.104H301.533L301.654 132.585H299.953V130.914H302.049L302.171 130.394H299.949V129.045H302.316V129.785L303.249 125.901V124.652H303.549L303.671 124.132H303.27V122.467H304.098L304.219 121.946H303.27V120.276H304.399V119.756H303.27V118.086H304.399V117.565H303.27V115.971H304.399V115.446H303.27V113.78H304.399V113.259H303.27V111.589H304.399V111.069H303.27V109.399H304.399V108.878H303.27V107.208H304.399V106.688H303.27V105.016H304.399V104.497H303.27V103.149H304.399V102.629H303.27V100.955H304.399V100.434H303.27V98.7637H304.399V98.2441H303.27V96.5724H304.399V96.0528H303.27V94.3824H304.399V93.8628H303.27V92.1911H304.399V91.6703H303.27V88.2388H302.336V91.6703H299.97V88.2388H299.036V91.6703H296.463V88.2388H295.529V91.6703H293.163V88.2388H292.228V91.6703H290.993V92.1899H292.231V93.8615H290.993V94.3812H292.231V96.0516H290.993V96.5724H292.231V98.2441H290.993V98.7637H292.231V100.434H290.993V100.955H292.231V102.625H290.993V103.145H292.231V104.493H290.993V105.013H292.231V106.684H290.993V107.204H292.231V108.874H290.993V109.395H292.231V111.066H290.993V111.585H292.231V113.256H290.993V113.777H292.231V115.446H290.993V115.965H292.231V117.559H290.993V118.079H292.231V119.75H290.993V120.269H292.231V121.941H290.993V122.462H292.231V124.132H290.993V124.652H292.231V126.324H290.993V126.843H292.231V128.514H290.993V129.033H292.231V130.381H290.993V130.902H292.231V132.573H290.993V133.092H292.231V134.764H290.993V135.283H292.231V136.954H290.993V137.474H292.231V139.145H290.993V139.665H292.231V141.335H290.993V141.856H292.231V143.346H290.993V143.878H292.231V145.549H290.993V146.068H292.231V147.571ZM299.972 92.1911H302.339V93.8628H299.972V92.1911ZM299.972 94.3824H302.339V96.0528H299.972V94.3824ZM299.972 96.5724H302.339V98.2441H299.972V96.5724ZM299.972 98.7637H302.339V100.434H299.972V98.7637ZM299.972 100.955H302.339V102.625H299.972V100.955ZM299.972 103.145H302.339V104.493H299.972V103.145ZM299.972 105.016H302.339V106.688H299.972V105.016ZM299.972 107.208H302.339V108.878H299.972V107.208ZM299.972 109.399H302.339V111.069H299.972V109.399ZM299.972 111.589H302.339V113.259H299.972V111.589ZM299.972 113.78H302.339V115.446H299.972V113.78ZM299.972 115.97H302.339V117.563H299.972V115.97ZM299.972 118.086H302.339V119.756H299.972V118.086ZM299.972 120.276H302.339V121.941H299.972V120.276ZM299.972 122.467H302.339V124.137H299.972V122.467ZM299.972 124.657H302.339V126.328H299.972V124.657ZM299.972 126.848H302.339V128.519H299.972V126.848ZM296.463 92.1911H299.036V93.8628H296.463V92.1911ZM296.463 94.3824H299.036V96.0528H296.463V94.3824ZM296.463 96.5724H299.036V98.2441H296.463V96.5724ZM296.463 98.7637H299.036V100.434H296.463V98.7637ZM296.463 100.955H299.036V102.625H296.463V100.955ZM296.463 103.145H299.036V104.493H296.463V103.145ZM296.463 105.016H299.036V106.688H296.463V105.016ZM296.463 107.208H299.036V108.878H296.463V107.208ZM296.463 109.399H299.036V111.069H296.463V109.399ZM296.463 111.589H299.036V113.259H296.463V111.589ZM296.463 113.78H299.036V115.446H296.463V113.78ZM296.463 115.97H299.036V117.563H296.463V115.97ZM296.463 118.086H299.036V119.756H296.463V118.086ZM296.463 120.276H299.036V121.941H296.463V120.276ZM296.463 122.467H299.036V124.137H296.463V122.467ZM296.463 124.657H299.036V126.328H296.463V124.657ZM296.463 126.848H299.036V128.519H296.463V126.848ZM296.463 129.038H299.036V130.386H296.463V129.038ZM296.463 130.911H299.036V132.581H296.463V130.911ZM296.463 133.101H299.036V134.772H296.463V133.101ZM296.463 135.292H299.036V136.962H296.463V135.292ZM296.463 137.482H299.036V139.154H296.463V137.482ZM296.463 139.673H299.036V141.344H296.463V139.673ZM296.463 141.865H299.036V143.355H296.463V141.865ZM293.163 92.1911H295.529V93.8628H293.163V92.1911ZM293.163 94.3824H295.529V96.0528H293.163V94.3824ZM293.163 96.5724H295.529V98.2441H293.163V96.5724ZM293.163 98.7637H295.529V100.434H293.163V98.7637ZM293.163 100.955H295.529V102.625H293.163V100.955ZM293.163 103.145H295.529V104.493H293.163V103.145ZM293.163 105.016H295.529V106.688H293.163V105.016ZM293.163 107.208H295.529V108.878H293.163V107.208ZM293.163 109.399H295.529V111.069H293.163V109.399ZM293.163 111.589H295.529V113.259H293.163V111.589ZM293.163 113.78H295.529V115.446H293.163V113.78ZM293.163 115.97H295.529V117.563H293.163V115.97ZM293.163 118.086H295.529V119.756H293.163V118.086ZM293.163 120.276H295.529V121.941H293.163V120.276ZM293.163 122.467H295.529V124.137H293.163V122.467ZM293.163 124.657H295.529V126.328H293.163V124.657ZM293.163 126.848H295.529V128.519H293.163V126.848ZM293.163 129.038H295.529V130.386H293.163V129.038ZM293.163 130.911H295.529V132.581H293.163V130.911ZM293.163 133.101H295.529V134.772H293.163V133.101ZM293.163 135.292H295.529V136.962H293.163V135.292ZM293.163 137.482H295.529V139.154H293.163V137.482ZM293.163 139.673H295.529V141.344H293.163V139.673ZM293.163 141.865H295.529V143.355H293.163V141.865ZM293.163 143.875H295.529V145.545H293.163V143.875Z" fill="#739AF0"/>
<path d="M336.629 190H0.364653C0.268429 189.998 0.176585 189.959 0.108535 189.891C0.040486 189.822 0.00156492 189.729 0 189.632H0C0.00156492 189.535 0.040486 189.443 0.108535 189.374C0.176585 189.305 0.268429 189.266 0.364653 189.265H336.629C336.727 189.265 336.82 189.303 336.889 189.372C336.959 189.441 336.998 189.534 337 189.632C336.998 189.73 336.958 189.824 336.889 189.892C336.82 189.961 336.726 190 336.629 190Z" fill="#283250"/>
<path d="M216.886 80.4504H178.649V147.58H216.886V80.4504Z" fill="#4A75CB"/>
<path d="M184.213 83.6123H181.174V95.6275H184.213V83.6123Z" fill="white"/>
<path d="M190.291 83.6123H187.252V95.6275H190.291V83.6123Z" fill="white"/>
<path d="M196.347 83.6123H193.309V95.6275H196.347V83.6123Z" fill="white"/>
<path d="M202.425 83.6123H199.386V95.6275H202.425V83.6123Z" fill="white"/>
<path d="M208.503 83.6123H205.464V95.6275H208.503V83.6123Z" fill="white"/>
<path d="M214.58 83.6123H211.541V95.6275H214.58V83.6123Z" fill="white"/>
<path d="M184.213 99.5443H181.174V111.559H184.213V99.5443Z" fill="#EBF2F9"/>
<path d="M190.291 99.5443H187.252V111.559H190.291V99.5443Z" fill="#EBF2F9"/>
<path d="M196.347 99.5443H193.309V111.559H196.347V99.5443Z" fill="#EBF2F9"/>
<path d="M202.425 99.5443H199.386V111.559H202.425V99.5443Z" fill="#EBF2F9"/>
<path d="M208.503 99.5443H205.464V111.559H208.503V99.5443Z" fill="#EBF2F9"/>
<path d="M214.58 99.5443H211.541V111.559H214.58V99.5443Z" fill="#EBF2F9"/>
<path d="M184.213 115.476H181.174V127.492H184.213V115.476Z" fill="#EBF2F9"/>
<path d="M190.291 115.476H187.252V127.492H190.291V115.476Z" fill="#EBF2F9"/>
<path d="M196.347 115.476H193.309V127.492H196.347V115.476Z" fill="#EBF2F9"/>
<path d="M202.425 115.476H199.386V127.492H202.425V115.476Z" fill="#EBF2F9"/>
<path d="M208.503 115.476H205.464V127.492H208.503V115.476Z" fill="#EBF2F9"/>
<path d="M214.58 115.476H211.541V127.492H214.58V115.476Z" fill="#EBF2F9"/>
<path d="M184.213 131.531H181.174V143.546H184.213V131.531Z" fill="#EBF2F9"/>
<path d="M190.291 131.531H187.252V143.546H190.291V131.531Z" fill="#EBF2F9"/>
<path d="M196.347 131.531H193.309V143.546H196.347V131.531Z" fill="#EBF2F9"/>
<path d="M202.425 131.531H199.386V143.546H202.425V131.531Z" fill="#EBF2F9"/>
<path d="M208.503 131.531H205.464V143.546H208.503V131.531Z" fill="#EBF2F9"/>
<path d="M214.58 131.531H211.541V143.546H214.58V131.531Z" fill="#EBF2F9"/>
<path d="M213.465 62.859H198.475V80.9014H213.465V62.859Z" fill="#4A75CB"/>
</svg>
