<svg width="321" height="234" viewBox="0 0 321 234" fill="none" xmlns="http://www.w3.org/2000/svg">
<path d="M293.008 88.3672C272.092 12.0346 174.695 -2.97459 93.9436 36.5501C13.1921 76.0748 11.5859 226.516 147.367 230.991C283.147 235.465 306.792 138.675 293.008 88.3672Z" fill="#E5F4FB" fill-opacity="0.6"/>
<path d="M102.384 233.839C87.2678 233.839 73.2412 229 60.1479 214.504C53.7974 207.464 49.6738 200.127 47.5487 192.056C45.6496 184.867 45.3963 177.233 46.7742 168.755C49.3288 153.022 56.9777 137.21 65.0734 120.465C67.8912 114.643 70.8032 108.622 73.4447 102.667C78.2734 91.7904 81.7962 79.7781 85.2023 68.1599C94.1397 37.6705 102.593 8.84688 132.811 2.20861C168.623 -5.66162 181.656 9.91772 198.156 29.6441C206.845 40.0303 216.693 51.8022 231.435 62.1637C260.873 82.8543 279.034 100.883 288.587 118.899C300.255 140.916 299.205 163.292 285.359 187.314C277.74 200.529 267.914 208.525 254.439 212.481C242.443 216.001 229.042 215.885 214.856 215.761C200.837 215.639 186.343 215.513 171.756 218.832C163.412 220.728 155.37 222.979 147.588 225.156C131.503 229.632 116.471 233.839 102.384 233.839ZM132.896 2.56556L132.977 2.94482C103.211 9.48889 94.8348 38.087 85.9496 68.3607C82.536 80.0111 78.9983 92.0433 74.1572 102.965C71.5083 108.931 68.5937 114.957 65.7735 120.788C49.7781 153.86 34.6715 185.098 60.7264 213.971C85.6964 241.64 114.281 233.645 147.369 224.382C155.159 222.203 163.213 219.95 171.574 218.049C186.252 214.71 200.792 214.826 214.856 214.96C243.495 215.208 268.232 215.426 284.677 186.9C298.376 163.136 299.426 141.002 287.889 119.228C278.396 101.326 260.312 83.3848 230.978 62.7685C216.152 52.3575 206.269 40.5335 197.55 30.1101C181.229 10.6019 168.32 -4.81882 132.977 2.94978L132.896 2.56556Z" fill="#B8DBF2"/>
<path d="M149.882 64.8557C170.308 55.0421 187.076 39.5172 203.754 48.5377C220.432 57.5581 206.147 85.0481 221.686 97.3083C237.224 109.569 270.409 130.668 253.257 167.092C236.105 203.516 185.696 182.213 171.718 174.132C157.741 166.051 145.626 212.35 106.853 197.866C68.0799 183.383 96.1581 149.373 96.1209 135.896C96.0836 122.419 70.9349 100.308 88.1766 85.4869C105.418 70.666 120.798 78.8263 149.882 64.8557Z" fill="#F2FBFF"/>
<path d="M252.88 153.686C284.875 123.006 320.876 122.867 320.903 138.144C320.93 153.421 257.234 178.856 253.128 176.68C249.022 174.504 252.88 153.686 252.88 153.686Z" fill="#FFB970"/>
<path d="M251.708 179.714C272.162 168.963 287.745 168.807 287.209 177.912C286.673 187.017 253.609 195.157 249.948 190.569C246.286 185.98 251.708 179.714 251.708 179.714Z" fill="#FFB970"/>
<path d="M254.052 81.1638C258.317 54.8685 274.926 48.5599 279.225 58.3042C285.365 72.2252 259.27 103.334 256.904 102.13C254.538 100.925 254.052 81.1638 254.052 81.1638Z" fill="#F1A24F"/>
<path d="M251.698 108.188C278.597 80.4598 317.003 69.2704 318.061 88.4416C319.118 107.613 243.396 123.792 243.396 123.792L251.698 108.188Z" fill="#F1A24F"/>
<path d="M78.5491 101.954C65.1952 69.1068 34.411 69.5084 30.7839 83.6277C27.1569 97.747 66.2429 107.385 73.3431 116.698C80.4434 126.01 78.5491 101.954 78.5491 101.954Z" fill="#F1A24F"/>
<path d="M82.1893 162.362C73.8825 130.633 31.2812 122.166 28.8159 135.839C26.3507 149.512 78.0409 157.754 77.3408 174.615C76.6407 191.476 82.1893 162.362 82.1893 162.362Z" fill="#FFB970"/>
<path d="M74.7262 162.451C38.0259 146.889 -3.09086 147.824 0.183688 168.244C3.89021 191.354 60.2949 158.262 70.3643 178.655C80.4337 199.049 74.7262 162.451 74.7262 162.451Z" fill="#FFB970"/>
<path d="M253.722 164.182C253.576 164.211 253.424 164.192 253.29 164.126C253.156 164.061 253.048 163.953 252.981 163.82C252.915 163.687 252.894 163.535 252.923 163.389C252.951 163.243 253.027 163.11 253.139 163.012C270.378 147.643 305.593 136.426 305.946 136.315C306.118 136.261 306.304 136.277 306.463 136.359C306.623 136.442 306.743 136.585 306.798 136.756C306.852 136.927 306.836 137.113 306.753 137.273C306.67 137.432 306.527 137.552 306.356 137.606C306.006 137.718 271.063 148.86 254.042 164.023C253.952 164.104 253.841 164.159 253.722 164.182Z" fill="#F2F2E8"/>
<path d="M292.946 150.776C292.89 150.785 292.832 150.785 292.775 150.776L276.194 149.785C276.105 149.779 276.018 149.757 275.937 149.718C275.857 149.679 275.786 149.624 275.726 149.558C275.667 149.491 275.622 149.413 275.593 149.329C275.564 149.245 275.552 149.156 275.557 149.067C275.562 148.978 275.585 148.891 275.624 148.811C275.663 148.731 275.718 148.66 275.784 148.601C275.851 148.542 275.929 148.496 276.013 148.467C276.097 148.438 276.187 148.426 276.276 148.431L292.857 149.423C293.023 149.431 293.179 149.5 293.298 149.617C293.416 149.733 293.487 149.888 293.498 150.054C293.509 150.219 293.459 150.383 293.357 150.514C293.256 150.644 293.109 150.733 292.946 150.764V150.776Z" fill="#F2F2E8"/>
<path d="M249.02 115.966C248.823 115.798 248.702 115.559 248.682 115.302C248.662 115.044 248.745 114.789 248.913 114.593C252.92 109.93 284.749 90.613 303.853 87.2468C304.108 87.2018 304.37 87.2596 304.582 87.4077C304.794 87.5558 304.939 87.7819 304.984 88.0363C305.029 88.2907 304.971 88.5526 304.823 88.7644C304.674 88.9761 304.448 89.1204 304.193 89.1654C285.874 92.3878 254.186 111.447 250.395 115.86C250.227 116.056 249.987 116.177 249.73 116.197C249.472 116.217 249.216 116.134 249.02 115.966Z" fill="#F2F2E8"/>
<path d="M76.4288 111.078C76.2641 111.142 76.0826 111.149 75.9136 111.097C75.7447 111.045 75.5981 110.938 75.4978 110.793C75.3538 110.585 60.709 89.7727 39.5374 84.9762C39.3342 84.9302 39.1577 84.8054 39.0467 84.6295C38.9357 84.4535 38.8992 84.2408 38.9453 84.0379C38.9913 83.8351 39.1162 83.6589 39.2925 83.548C39.4687 83.4372 39.6818 83.4007 39.8849 83.4467C61.6598 88.3796 76.6423 109.687 76.7912 109.901C76.9092 110.072 76.9546 110.283 76.9174 110.487C76.8802 110.691 76.7634 110.873 76.5926 110.991C76.5421 111.027 76.487 111.057 76.4288 111.078Z" fill="#F2F2E8"/>
<path d="M74.6191 163.029C74.4907 163.006 74.3738 162.941 74.2866 162.844C74.1994 162.747 74.147 162.624 74.1375 162.494C73.5491 154.371 61.1982 140.752 40.3891 137.398H40.3766C40.2265 137.368 40.0941 137.281 40.0075 137.155C39.9209 137.029 39.8869 136.874 39.9127 136.723C39.9386 136.572 40.0223 136.438 40.146 136.348C40.2697 136.257 40.4237 136.219 40.5752 136.241C49.9669 137.758 58.805 141.642 65.4683 147.18C71.29 152.016 74.9692 157.71 75.3093 162.412C75.315 162.489 75.3055 162.566 75.2813 162.639C75.257 162.712 75.2185 162.78 75.168 162.838C75.1175 162.897 75.0559 162.944 74.9869 162.979C74.9178 163.013 74.8426 163.034 74.7656 163.039C74.7165 163.042 74.6673 163.039 74.6191 163.029Z" fill="#F2F2E8"/>
<path d="M7.26145 165.277C7.12948 165.255 7.00931 165.187 6.92095 165.087C6.8326 164.986 6.7814 164.859 6.77589 164.725C6.77037 164.591 6.81087 164.46 6.89064 164.352C6.97041 164.245 7.08463 164.168 7.21428 164.135C32.6187 157.301 63.321 161.289 66.9506 171.896C66.9953 172.041 66.9815 172.199 66.9123 172.335C66.843 172.47 66.7236 172.574 66.5793 172.623C66.4349 172.673 66.277 172.665 66.1388 172.6C66.0005 172.535 65.8928 172.42 65.8384 172.277C64.2942 167.766 56.6279 164.167 45.3246 162.645C33.4454 161.046 19.667 162.005 7.51964 165.272C7.43494 165.293 7.34687 165.294 7.26145 165.277Z" fill="#F2F2E8"/>
<path d="M44.7438 143.045C44.5987 143.022 44.4676 142.945 44.3767 142.829C44.2857 142.714 44.2414 142.569 44.2527 142.423C44.2639 142.276 44.3299 142.139 44.4374 142.039C44.5449 141.939 44.6862 141.883 44.8332 141.882L56.7497 141.553C56.8996 141.557 57.0422 141.619 57.1481 141.725C57.254 141.831 57.3152 141.974 57.3194 142.124C57.3235 142.273 57.2701 142.419 57.1702 142.531C57.0703 142.643 56.9314 142.712 56.7819 142.725L44.8655 143.055C44.8247 143.055 44.784 143.052 44.7438 143.045Z" fill="#F2F2E8"/>
<path d="M19.833 169.172C19.712 169.148 19.6011 169.089 19.5152 169.001C19.4615 168.945 19.4193 168.879 19.391 168.808C19.3628 168.736 19.3491 168.659 19.3507 168.582C19.3523 168.505 19.3692 168.428 19.4005 168.358C19.4317 168.287 19.4766 168.223 19.5326 168.17L26.9457 161.068C27 161.009 27.0659 160.962 27.1392 160.93C27.2126 160.897 27.2918 160.88 27.372 160.879C27.4523 160.878 27.5318 160.894 27.6058 160.925C27.6798 160.956 27.7467 161.002 27.8023 161.059C27.858 161.117 27.9012 161.185 27.9293 161.261C27.9574 161.336 27.9699 161.416 27.9659 161.496C27.962 161.576 27.9416 161.654 27.9062 161.726C27.8708 161.798 27.821 161.862 27.7599 161.914L20.3568 169.018C20.2883 169.084 20.205 169.132 20.1138 169.159C20.0226 169.186 19.9263 169.19 19.833 169.172Z" fill="#F2F2E8"/>
<path d="M28.4577 169.536C28.342 169.516 28.2354 169.46 28.1524 169.377C28.0979 169.323 28.0546 169.259 28.0251 169.187C27.9957 169.116 27.9805 169.04 27.9805 168.963C27.9805 168.887 27.9957 168.81 28.0251 168.739C28.0546 168.668 28.0979 168.604 28.1524 168.549L35.6424 160.922C35.7528 160.816 35.9001 160.758 36.0531 160.759C36.206 160.76 36.3526 160.82 36.4617 160.927C36.5708 161.034 36.6339 161.179 36.6376 161.332C36.6413 161.485 36.5853 161.633 36.4815 161.745L28.9915 169.37C28.9234 169.44 28.839 169.492 28.7457 169.521C28.6525 169.55 28.5535 169.555 28.4577 169.536Z" fill="#F2F2E8"/>
<path d="M37.8797 170.79C37.7892 170.772 37.7042 170.733 37.6314 170.676C37.5702 170.629 37.5189 170.571 37.4803 170.505C37.4417 170.438 37.4166 170.365 37.4065 170.289C37.3963 170.212 37.4013 170.135 37.4212 170.061C37.441 169.986 37.4753 169.917 37.5222 169.856L43.89 161.564C43.9872 161.447 44.1258 161.373 44.2768 161.356C44.4279 161.339 44.5796 161.381 44.7003 161.473C44.821 161.565 44.9012 161.701 44.9241 161.851C44.9471 162.001 44.911 162.154 44.8235 162.278L38.4556 170.57C38.3895 170.656 38.3006 170.722 38.1989 170.761C38.0972 170.8 37.9867 170.81 37.8797 170.79Z" fill="#F2F2E8"/>
<path d="M252.694 69.9224H76.9137C72.2135 69.9224 68.4033 73.7268 68.4033 78.4197V181.702C68.4033 186.395 72.2135 190.199 76.9137 190.199H252.694C257.394 190.199 261.204 186.395 261.204 181.702V78.4197C261.204 73.7268 257.394 69.9224 252.694 69.9224Z" fill="#003545"/>
<path d="M251.607 74.7139H78.001C75.8717 74.7139 74.1455 76.4375 74.1455 78.5635V174.176C74.1455 176.302 75.8717 178.026 78.001 178.026H251.607C253.736 178.026 255.462 176.302 255.462 174.176V78.5635C255.462 76.4375 253.736 74.7139 251.607 74.7139Z" fill="white"/>
<path d="M250.643 79.6864H78.9668V173.053H250.643V79.6864Z" fill="#E5F4FB"/>
<path d="M250.643 79.6864H78.9668V92.8489H250.643V79.6864Z" fill="#81CAEB"/>
<path d="M90.7815 86.2627C90.782 86.5662 90.6923 86.8632 90.5237 87.1158C90.3551 87.3685 90.1153 87.5655 89.8346 87.682C89.5538 87.7985 89.2447 87.8293 88.9465 87.7703C88.6482 87.7114 88.3742 87.5655 88.159 87.351C87.9438 87.1365 87.7972 86.8631 87.7377 86.5654C87.6782 86.2677 87.7085 85.9591 87.8247 85.6785C87.941 85.398 88.138 85.1582 88.3907 84.9895C88.6435 84.8208 88.9407 84.7308 89.2448 84.7308C89.6519 84.7308 90.0424 84.8921 90.3305 85.1793C90.6186 85.4665 90.7808 85.8562 90.7815 86.2627Z" fill="#E5F4FB"/>
<path d="M95.7317 86.2627C95.7321 86.5662 95.6424 86.8632 95.4739 87.1158C95.3053 87.3685 95.0655 87.5655 94.7847 87.682C94.504 87.7985 94.1949 87.8293 93.8967 87.7703C93.5984 87.7114 93.3243 87.5655 93.1092 87.351C92.894 87.1365 92.7474 86.8631 92.6879 86.5654C92.6284 86.2677 92.6587 85.9591 92.7749 85.6785C92.8912 85.398 93.0881 85.1582 93.3409 84.9895C93.5937 84.8208 93.8909 84.7308 94.1949 84.7308C94.6021 84.7308 94.9926 84.8921 95.2807 85.1793C95.5688 85.4665 95.731 85.8562 95.7317 86.2627Z" fill="white"/>
<path d="M100.679 86.2627C100.679 86.5662 100.59 86.8632 100.421 87.1158C100.253 87.3685 100.013 87.5655 99.732 87.682C99.4512 87.7985 99.1422 87.8293 98.8439 87.7703C98.5456 87.7114 98.2716 87.5655 98.0564 87.351C97.8413 87.1365 97.6947 86.8631 97.6352 86.5654C97.5757 86.2677 97.606 85.9591 97.7222 85.6785C97.8384 85.398 98.0354 85.1582 98.2882 84.9895C98.5409 84.8208 98.8381 84.7308 99.1422 84.7308C99.5493 84.7308 99.9398 84.8921 100.228 85.1793C100.516 85.4665 100.678 85.8562 100.679 86.2627Z" fill="white"/>
<path d="M237.449 88.7415C237.365 88.6579 237.318 88.5447 237.318 88.4267C237.318 88.3087 237.365 88.1955 237.449 88.1119L241.805 83.7839C241.846 83.7379 241.895 83.7007 241.95 83.6745C242.006 83.6484 242.066 83.6339 242.127 83.6318C242.188 83.6298 242.249 83.6403 242.306 83.6628C242.363 83.6852 242.414 83.7191 242.458 83.7623C242.501 83.8055 242.535 83.8571 242.557 83.9139C242.58 83.9707 242.59 84.0315 242.588 84.0926C242.586 84.1536 242.572 84.2136 242.546 84.2688C242.519 84.324 242.482 84.3732 242.436 84.4135L238.082 88.7415C238.04 88.7834 237.991 88.8167 237.937 88.8394C237.882 88.8621 237.824 88.8738 237.765 88.8738C237.706 88.8738 237.648 88.8621 237.594 88.8394C237.539 88.8167 237.49 88.7834 237.449 88.7415Z" fill="#E5F4FB"/>
<path d="M241.805 88.7415L237.458 84.4036C237.404 84.3662 237.36 84.3176 237.327 84.261C237.294 84.2045 237.274 84.1415 237.268 84.0764C237.263 84.0114 237.271 83.9459 237.294 83.8845C237.316 83.8231 237.352 83.7675 237.398 83.7214C237.444 83.6753 237.5 83.6399 237.562 83.6177C237.623 83.5956 237.689 83.5872 237.754 83.5932C237.819 83.5991 237.882 83.6193 237.939 83.6522C237.995 83.6852 238.044 83.7301 238.081 83.7839L242.426 88.1218C242.488 88.2072 242.517 88.312 242.509 88.4173C242.501 88.5226 242.455 88.6214 242.38 88.6961C242.305 88.7708 242.206 88.8163 242.101 88.8247C241.996 88.833 241.891 88.8035 241.805 88.7415Z" fill="#E5F4FB"/>
<path d="M130.543 150.761H89.8555V153.163H130.543V150.761Z" fill="#81CAEB"/>
<path d="M130.543 155.749H89.8555V158.151H130.543V155.749Z" fill="#81CAEB"/>
<path d="M111.481 160.736H89.8555V163.138H111.481V160.736Z" fill="#81CAEB"/>
<path d="M130.543 105.283H89.8555V143.335H130.543V105.283Z" fill="#81CAEB"/>
<path d="M107.248 130.79C106.998 130.789 106.752 130.723 106.535 130.599C106.317 130.474 106.136 130.294 106.011 130.076C105.886 129.858 105.822 129.61 105.825 129.359V119.246C105.826 118.997 105.892 118.753 106.017 118.537C106.142 118.322 106.322 118.143 106.538 118.019C106.754 117.895 106.998 117.829 107.248 117.829C107.497 117.829 107.742 117.895 107.958 118.019L116.736 123.081C116.952 123.205 117.132 123.384 117.257 123.6C117.381 123.815 117.447 124.06 117.447 124.309C117.447 124.558 117.381 124.802 117.257 125.018C117.132 125.234 116.952 125.413 116.736 125.537L107.958 130.599C107.742 130.723 107.497 130.789 107.248 130.79ZM107.248 118.529C107.121 118.53 106.997 118.563 106.888 118.626C106.778 118.688 106.687 118.778 106.624 118.887C106.562 118.996 106.529 119.12 106.53 119.246V129.369C106.531 129.495 106.564 129.618 106.627 129.727C106.69 129.835 106.78 129.926 106.889 129.988C106.998 130.051 107.121 130.084 107.247 130.084C107.373 130.084 107.496 130.052 107.605 129.989L116.394 124.932C116.502 124.869 116.591 124.778 116.654 124.669C116.716 124.561 116.749 124.438 116.749 124.313C116.749 124.187 116.716 124.064 116.654 123.956C116.591 123.847 116.502 123.756 116.394 123.693L107.613 118.631C107.502 118.565 107.376 118.53 107.248 118.529Z" fill="#E5F4FB"/>
<path d="M110.2 136.979C107.69 136.98 105.236 136.237 103.149 134.845C101.062 133.453 99.4345 131.474 98.4736 129.159C97.5127 126.843 97.261 124.295 97.7504 121.837C98.2398 119.379 99.4483 117.121 101.223 115.348C102.998 113.576 105.259 112.369 107.721 111.88C110.183 111.39 112.735 111.641 115.054 112.6C117.373 113.559 119.355 115.183 120.75 117.267C122.145 119.351 122.889 121.801 122.889 124.308C122.886 127.667 121.548 130.888 119.169 133.263C116.79 135.639 113.565 136.975 110.2 136.979ZM110.2 112.34C107.829 112.34 105.511 113.042 103.54 114.357C101.568 115.673 100.032 117.542 99.1242 119.73C98.2169 121.917 97.9797 124.324 98.4424 126.646C98.9052 128.968 100.047 131.101 101.724 132.775C103.401 134.449 105.537 135.589 107.863 136.051C110.189 136.512 112.599 136.275 114.79 135.368C116.98 134.462 118.853 132.927 120.17 130.959C121.487 128.99 122.189 126.675 122.189 124.308C122.184 121.134 120.92 118.093 118.672 115.849C116.425 113.606 113.378 112.344 110.2 112.34Z" fill="#E5F4FB"/>
<path d="M238.915 150.761H198.228V153.163H238.915V150.761Z" fill="#81CAEB"/>
<path d="M238.915 155.749H198.228V158.151H238.915V155.749Z" fill="#81CAEB"/>
<path d="M219.853 160.736H198.228V163.138H219.853V160.736Z" fill="#81CAEB"/>
<path d="M238.915 105.283H198.228V143.335H238.915V105.283Z" fill="#81CAEB"/>
<path d="M215.629 130.79C215.379 130.789 215.133 130.723 214.916 130.599C214.698 130.474 214.517 130.294 214.392 130.076C214.267 129.858 214.203 129.61 214.206 129.359V119.246C214.207 118.997 214.273 118.753 214.398 118.537C214.523 118.322 214.702 118.143 214.918 118.019C215.134 117.895 215.379 117.829 215.629 117.829C215.878 117.829 216.123 117.895 216.339 118.019L225.117 123.081C225.333 123.205 225.513 123.384 225.637 123.6C225.762 123.815 225.828 124.06 225.828 124.309C225.828 124.558 225.762 124.802 225.637 125.018C225.513 125.234 225.333 125.413 225.117 125.537L216.339 130.599C216.123 130.723 215.878 130.789 215.629 130.79ZM215.629 118.529C215.503 118.53 215.38 118.563 215.271 118.626C215.161 118.688 215.07 118.778 215.007 118.887C214.943 118.996 214.91 119.12 214.911 119.246V129.369C214.912 129.495 214.946 129.618 215.009 129.727C215.072 129.835 215.163 129.925 215.272 129.988C215.381 130.051 215.504 130.084 215.63 130.084C215.756 130.084 215.879 130.051 215.989 129.989L224.767 124.932C224.875 124.869 224.965 124.778 225.027 124.669C225.089 124.561 225.122 124.438 225.122 124.313C225.122 124.187 225.089 124.064 225.027 123.956C224.965 123.847 224.875 123.756 224.767 123.693L215.986 118.626C215.877 118.563 215.753 118.53 215.626 118.529H215.629Z" fill="#E5F4FB"/>
<path d="M218.573 136.979C216.063 136.979 213.609 136.236 211.522 134.844C209.435 133.451 207.808 131.472 206.848 129.157C205.887 126.841 205.636 124.293 206.126 121.835C206.615 119.377 207.824 117.119 209.599 115.347C211.374 113.575 213.635 112.368 216.097 111.879C218.559 111.39 221.111 111.641 223.43 112.6C225.748 113.56 227.731 115.184 229.125 117.268C230.52 119.351 231.264 121.801 231.264 124.308C231.261 127.667 229.922 130.888 227.543 133.264C225.164 135.64 221.938 136.976 218.573 136.979ZM218.573 112.34C216.202 112.34 213.884 113.042 211.912 114.357C209.941 115.673 208.404 117.542 207.497 119.73C206.589 121.917 206.352 124.324 206.815 126.646C207.278 128.968 208.42 131.101 210.097 132.775C211.773 134.449 213.91 135.589 216.236 136.051C218.561 136.512 220.972 136.275 223.162 135.368C225.353 134.462 227.225 132.927 228.542 130.959C229.859 128.99 230.562 126.675 230.561 124.308C230.557 121.134 229.293 118.092 227.045 115.849C224.798 113.605 221.751 112.343 218.573 112.34Z" fill="#E5F4FB"/>
<path d="M30.7598 185.663H298.851C298.851 187.337 298.52 188.994 297.879 190.541C297.237 192.087 296.297 193.492 295.112 194.676C293.926 195.86 292.519 196.798 290.97 197.439C289.421 198.079 287.761 198.409 286.085 198.409H43.5352C41.858 198.41 40.1969 198.082 38.647 197.442C37.0971 196.802 35.6887 195.863 34.5022 194.679C33.3158 193.496 32.3746 192.09 31.7324 190.543C31.0903 188.996 30.7598 187.338 30.7598 185.663Z" fill="#054659"/>
<path d="M102.899 210.092C115.339 210.092 125.423 208.064 125.423 205.563C125.423 203.062 115.339 201.034 102.899 201.034C90.4586 201.034 80.374 203.062 80.374 205.563C80.374 208.064 90.4586 210.092 102.899 210.092Z" fill="#B8DBF2"/>
<path d="M233.538 210.092C245.978 210.092 256.063 208.064 256.063 205.563C256.063 203.062 245.978 201.034 233.538 201.034C221.098 201.034 211.014 203.062 211.014 205.563C211.014 208.064 221.098 210.092 233.538 210.092Z" fill="#B8DBF2"/>
<path d="M156.921 110.949C164.348 107.38 170.456 101.733 176.513 105.017C182.571 108.302 177.38 118.301 183.032 122.761C188.685 127.22 200.753 134.907 194.51 148.154C188.266 161.401 169.934 153.647 164.845 150.712C159.756 147.777 155.354 164.606 141.26 159.333C127.167 154.061 137.375 141.689 137.363 136.788C137.35 131.888 128.204 123.839 134.473 118.445C140.741 113.051 146.34 116.028 156.921 110.949Z" fill="#F2FBFF"/>
<path d="M178.799 113.43C176.681 115.428 174.68 114.833 174.68 114.833L167.823 128.586C167.823 128.586 170.249 131.717 168.379 134.079C167.455 135.28 166.102 136.079 164.603 136.31C164.557 136.317 164.51 136.309 164.469 136.288C164.427 136.268 164.393 136.234 164.371 136.193C164.349 136.152 164.34 136.106 164.346 136.06C164.351 136.013 164.371 135.97 164.402 135.936C165.01 135.251 166.075 133.806 166.011 132.113C165.941 130.274 163.335 129.178 161.699 130.445C160.641 131.261 160.393 132.924 160.338 133.806C160.337 133.853 160.321 133.898 160.293 133.935C160.264 133.972 160.225 134 160.18 134.013C160.136 134.027 160.088 134.026 160.044 134.011C159.999 133.996 159.961 133.968 159.933 133.93C159.313 133.115 158.312 131.31 159.601 129.349C160.094 128.586 160.789 127.974 161.609 127.581C162.428 127.187 163.341 127.027 164.246 127.118L166.691 122.409L171.455 113.225C171.455 113.225 169.809 112.389 170.132 109.811C170.289 108.712 170.828 107.703 171.656 106.961C172.132 106.512 172.664 106.126 173.238 105.813C173.282 105.789 173.332 105.781 173.382 105.789C173.431 105.797 173.476 105.821 173.51 105.858C173.544 105.895 173.564 105.942 173.568 105.992C173.572 106.042 173.558 106.091 173.531 106.133C172.267 108.161 172.813 110.389 175.569 111.004C177.803 111.499 178.695 109.288 179.012 108.029C179.025 107.981 179.053 107.938 179.093 107.908C179.132 107.878 179.181 107.861 179.231 107.861C179.281 107.861 179.329 107.878 179.369 107.908C179.408 107.938 179.437 107.981 179.449 108.029C179.837 109.353 180.336 111.975 178.799 113.43Z" fill="#F5B3A2"/>
<path d="M165.85 128.209C165.805 128.21 165.761 128.2 165.721 128.179C165.69 128.165 165.663 128.144 165.64 128.118C165.618 128.092 165.601 128.062 165.591 128.03C165.58 127.997 165.577 127.963 165.581 127.929C165.584 127.895 165.595 127.862 165.612 127.832L173.02 113.703C173.036 113.673 173.058 113.647 173.085 113.625C173.111 113.604 173.142 113.588 173.175 113.578C173.207 113.569 173.242 113.565 173.276 113.569C173.309 113.573 173.342 113.583 173.372 113.599C173.402 113.615 173.429 113.637 173.45 113.664C173.472 113.69 173.488 113.721 173.498 113.754C173.507 113.786 173.51 113.82 173.507 113.854C173.503 113.888 173.493 113.921 173.477 113.951L166.069 128.068C166.048 128.108 166.016 128.143 165.978 128.167C165.94 128.192 165.896 128.207 165.85 128.209Z" fill="#EA917A"/>
<path d="M174.499 112.29C174.545 112.411 174.555 112.543 174.526 112.669C174.497 112.795 174.432 112.91 174.338 112.999C174.244 113.088 174.126 113.147 173.998 113.169C173.87 113.191 173.739 113.174 173.621 113.122C173.502 113.069 173.402 112.983 173.333 112.874C173.264 112.764 173.228 112.637 173.232 112.508C173.235 112.379 173.276 112.253 173.351 112.147C173.425 112.042 173.529 111.96 173.65 111.913C173.731 111.882 173.816 111.867 173.903 111.869C173.989 111.872 174.074 111.891 174.153 111.926C174.232 111.961 174.303 112.011 174.363 112.073C174.422 112.136 174.468 112.21 174.499 112.29Z" fill="#EA917A"/>
<path d="M165.718 128.757C165.764 128.878 165.773 129.01 165.745 129.136C165.716 129.262 165.65 129.376 165.557 129.465C165.463 129.554 165.344 129.613 165.217 129.635C165.089 129.657 164.958 129.641 164.839 129.588C164.721 129.536 164.621 129.45 164.552 129.34C164.483 129.231 164.447 129.104 164.45 128.975C164.454 128.845 164.495 128.72 164.569 128.614C164.644 128.508 164.748 128.427 164.869 128.38C164.949 128.349 165.035 128.334 165.122 128.336C165.208 128.338 165.293 128.357 165.372 128.392C165.451 128.427 165.522 128.478 165.581 128.54C165.641 128.603 165.687 128.676 165.718 128.757Z" fill="#C8417B"/>
<path d="M154.306 108.964C154.322 109.544 154.29 110.124 154.211 110.699C154.211 110.699 154.035 110.724 153.782 110.778C153.363 110.863 152.956 111.001 152.573 111.19C152.465 111.246 152.364 111.313 152.27 111.39C152.071 111.556 151.865 111.336 151.681 110.969C151.393 110.306 151.17 109.617 151.014 108.912C151.19 108.888 151.364 108.853 151.535 108.805C151.95 108.692 152.352 108.537 152.734 108.341C152.965 108.226 153.19 108.098 153.407 107.957C154.06 107.533 154.266 108.188 154.306 108.964Z" fill="#2C7EA1"/>
<path d="M151.536 108.8C151.833 109.363 152.098 109.942 152.33 110.535C152.42 110.758 152.501 110.974 152.578 111.175C152.782 111.75 152.906 112.199 152.859 112.275C152.71 112.508 151.397 113.227 150.86 113.039C150.644 112.964 150.277 112.434 149.925 111.799C149.391 110.835 148.887 109.623 148.971 109.321C149.11 108.825 150.94 108.111 151.084 108.183C151.279 108.352 151.433 108.563 151.536 108.8Z" fill="#459FC4"/>
<path d="M154.309 111.172C154.949 111.742 155.895 113.183 155.9 114.514C155.905 115.845 158.402 113.953 158 113.77C157.598 113.587 156.24 111.011 156.292 110.25C156.344 109.489 154.309 111.172 154.309 111.172Z" fill="#2C7EA1"/>
<path d="M162.141 109.425C162.062 109.722 160.803 109.127 158.377 109.673C156.955 110 154.827 111.368 154.343 111.408C154.212 111.408 154.008 111.16 153.782 110.758C153.626 110.488 153.462 110.153 153.305 109.806C153.089 109.321 152.899 108.825 152.734 108.319C152.595 107.873 152.538 107.553 152.625 107.521C153.799 107.093 155.028 106.833 156.275 106.748C160.565 106.529 162.206 109.187 162.141 109.425Z" fill="#459FC4"/>
<path d="M155.001 114.702C155.301 114.191 157.883 113.128 158.742 113.349C159.601 113.569 166.624 130.599 166.463 131.3C166.301 132.002 163.6 133.464 162.677 132.815C161.753 132.165 154.683 115.247 155.001 114.702Z" fill="#FB503A"/>
<path d="M190.028 156.413C189.844 157.04 186.18 158.312 180.807 159.417L180.448 159.492C178.553 159.871 176.458 160.235 174.241 160.53C173.541 160.627 172.826 160.716 172.101 160.796L171.746 160.835C169.204 161.118 166.533 161.316 163.851 161.381H163.491C160.545 161.45 157.596 161.328 154.666 161.014L154.303 160.974H154.276C151.737 160.69 149.22 160.233 146.744 159.606L146.384 159.512C137.911 157.191 137.069 153.729 137.288 152.695C137.332 152.479 137.422 152.09 137.536 151.562C137.561 151.448 137.588 151.327 137.618 151.2C137.993 149.534 138.586 146.771 139.03 143.499C139.03 143.382 139.06 143.263 139.075 143.144C139.374 140.909 139.553 138.659 139.611 136.404C139.611 135.799 139.636 135.165 139.644 134.535C139.644 134.416 139.644 134.287 139.644 134.173C139.666 131.464 139.644 128.529 139.584 125.882V125.522C139.497 121.013 139.358 117.439 139.358 117.439C141.426 118.802 144.264 119.655 147.508 120.165L147.863 120.22C150.591 120.599 153.34 120.805 156.093 120.837H156.456C158.797 120.874 161.173 120.837 163.519 120.763L163.876 120.75C166.734 120.659 169.509 120.52 172.032 120.416L172.391 120.401C175.145 120.292 177.58 120.23 179.469 120.327C179.593 120.327 179.718 120.327 179.832 120.349H179.904C180.435 120.382 180.965 120.442 181.49 120.53C186.299 121.365 188.608 123.142 189.38 126.283C189.41 126.402 189.437 126.531 189.462 126.643C189.694 127.94 189.755 129.263 189.643 130.576C189.601 131.241 189.529 131.942 189.435 132.683C189.345 133.378 189.281 134.141 189.238 134.952C189.238 135.066 189.226 135.18 189.221 135.296C189.117 137.743 189.196 140.611 189.343 143.432C189.343 143.551 189.355 143.679 189.36 143.789C189.514 146.595 189.727 149.334 189.886 151.547C189.886 151.669 189.904 151.795 189.911 151.907C190.068 154.262 190.167 155.955 190.028 156.413Z" fill="#81CAEB"/>
<path d="M147.854 120.222C147.715 121.787 147.591 123.693 147.482 125.842C147.482 125.961 147.482 126.09 147.464 126.201C147.343 128.68 147.241 131.456 147.156 134.364C147.156 134.483 147.156 134.612 147.156 134.721C147.075 137.544 147.01 140.484 146.955 143.397V143.756C146.901 146.776 146.861 149.758 146.829 152.529C146.829 152.653 146.829 152.777 146.829 152.896C146.801 155.345 146.784 157.623 146.769 159.608L146.409 159.514C146.424 157.531 146.441 155.283 146.469 152.859C146.469 152.735 146.469 152.611 146.469 152.489C146.499 149.728 146.541 146.756 146.593 143.744C146.593 143.625 146.593 143.496 146.593 143.387C146.648 140.482 146.712 137.542 146.796 134.711C146.796 134.592 146.796 134.463 146.796 134.354C146.881 131.444 146.985 128.665 147.104 126.174C147.104 126.053 147.117 125.926 147.122 125.815C147.233 123.653 147.358 121.727 147.499 120.153L147.854 120.222Z" fill="#3B6BBF"/>
<path d="M156.446 120.845C156.362 122.136 156.245 123.931 156.113 126.05L156.091 126.41C155.942 128.774 155.776 131.528 155.612 134.441L155.589 134.798C155.428 137.646 155.269 140.638 155.128 143.565C155.128 143.684 155.113 143.813 155.108 143.925C154.951 147.194 154.817 150.37 154.733 153.176C154.733 153.295 154.733 153.424 154.733 153.525C154.641 156.663 154.611 159.298 154.686 161.001L154.323 160.962C154.254 159.227 154.281 156.611 154.371 153.503C154.371 153.386 154.371 153.27 154.371 153.151C154.455 150.352 154.587 147.18 154.743 143.917C154.743 143.798 154.758 143.67 154.763 143.558C154.904 140.633 155.066 137.644 155.227 134.798C155.227 134.676 155.227 134.55 155.247 134.438C155.416 131.526 155.58 128.772 155.729 126.402C155.729 126.283 155.743 126.154 155.748 126.043C155.885 123.918 155.997 122.124 156.086 120.837L156.446 120.845Z" fill="#3B6BBF"/>
<path d="M163.866 120.758C163.866 122.161 163.866 124.022 163.866 126.191V126.551C163.866 128.921 163.866 131.635 163.866 134.51V134.87C163.866 137.73 163.866 140.745 163.866 143.719V144.079C163.866 147.361 163.866 150.593 163.866 153.523V153.86C163.866 156.748 163.866 159.331 163.866 161.368H163.506C163.506 160.513 163.506 159.561 163.506 158.53V153.52C163.506 150.794 163.506 147.636 163.506 144.074V143.714C163.506 143.154 163.506 142.584 163.506 142.004C163.506 139.592 163.506 137.183 163.506 134.867V134.508C163.506 131.632 163.506 128.916 163.506 126.546V126.186C163.506 124.025 163.506 122.168 163.506 120.77L163.866 120.758Z" fill="#3B6BBF"/>
<path d="M172.431 134.575V134.932C172.431 137.802 172.431 140.821 172.409 143.789V144.143C172.389 147.4 172.357 150.588 172.31 153.409C172.31 153.523 172.31 153.634 172.31 153.746C172.258 156.537 172.191 158.971 172.096 160.783L171.741 160.823C171.833 159.028 171.9 156.579 171.952 153.758C171.952 153.647 171.952 153.535 171.952 153.424C171.999 150.593 172.032 147.405 172.047 144.143C172.047 144.024 172.047 143.895 172.047 143.789C172.061 140.814 172.069 137.802 172.069 134.929V134.572C172.069 131.694 172.069 128.978 172.049 126.64V126.271C172.049 123.804 172.029 121.772 172.019 120.423L172.379 120.408C172.379 121.764 172.402 123.807 172.409 126.273C172.409 126.392 172.409 126.521 172.409 126.633C172.424 128.983 172.429 131.702 172.431 134.575Z" fill="#3B6BBF"/>
<path d="M180.981 152.802C180.981 152.918 180.981 153.035 180.981 153.149C180.981 155.56 180.922 157.705 180.807 159.403L180.447 159.477C180.559 157.789 180.611 155.627 180.616 153.186C180.616 153.069 180.616 152.953 180.616 152.836C180.616 150.169 180.569 147.182 180.487 144.108C180.487 143.989 180.487 143.86 180.487 143.754C180.408 140.844 180.301 137.867 180.184 135.023L180.169 134.664C180.05 131.781 179.921 129.042 179.802 126.657C179.802 126.538 179.79 126.41 179.785 126.301C179.658 123.822 179.536 121.742 179.467 120.332C179.591 120.332 179.715 120.332 179.829 120.354C179.911 121.777 180.023 123.837 180.15 126.303C180.15 126.42 180.149 126.551 180.167 126.662C180.289 129.05 180.415 131.789 180.539 134.674C180.539 134.79 180.539 134.922 180.554 135.033C180.671 137.872 180.775 140.844 180.855 143.749C180.855 143.868 180.855 143.997 180.855 144.106C180.936 147.162 180.981 150.137 180.981 152.802Z" fill="#3B6BBF"/>
<path d="M189.452 126.652C187.496 126.652 185.232 126.652 182.749 126.652H179.795C177.464 126.652 174.984 126.64 172.414 126.625H172.044C169.385 126.608 166.635 126.583 163.852 126.546H163.492C161.029 126.514 158.546 126.472 156.084 126.422H155.719C152.911 126.362 150.135 126.291 147.456 126.206L147.096 126.194C144.472 126.107 141.945 126.006 139.574 125.887V125.527C141.953 125.649 144.49 125.75 147.121 125.834H147.481C150.162 125.921 152.943 125.993 155.746 126.05C155.868 126.05 155.994 126.05 156.113 126.05C158.569 126.102 161.044 126.142 163.499 126.174H163.859C166.642 126.209 169.393 126.236 172.052 126.253H172.412C174.976 126.271 177.451 126.278 179.777 126.283H180.142C183.618 126.283 186.763 126.283 189.37 126.283C189.4 126.419 189.422 126.531 189.452 126.652Z" fill="#3B6BBF"/>
<path d="M189.229 134.961C189.229 135.076 189.216 135.19 189.211 135.306C187.245 135.182 184.181 135.095 180.547 135.033H180.177C177.784 134.994 175.152 134.964 172.431 134.939H172.071C169.363 134.917 166.575 134.897 163.849 134.88H163.489H162.968C160.458 134.865 157.975 134.847 155.589 134.828H155.224C152.34 134.803 149.606 134.776 147.146 134.736H146.789C143.966 134.694 141.518 134.634 139.639 134.555C139.639 134.436 139.639 134.307 139.639 134.193C141.52 134.275 143.981 134.332 146.794 134.379H147.154C149.636 134.416 152.384 134.446 155.242 134.468H155.609C158.017 134.488 160.5 134.503 162.965 134.52H163.851C166.796 134.54 169.542 134.56 172.074 134.582H172.434C175.304 134.609 177.896 134.637 180.165 134.674H180.535C184.373 134.741 187.312 134.83 189.229 134.961Z" fill="#3B6BBF"/>
<path d="M189.351 143.798C188.025 143.905 186.079 144.002 183.211 144.064C182.466 144.081 181.687 144.093 180.858 144.106H180.49C178.628 144.128 176.55 144.14 174.284 144.14H172.049C169.683 144.14 167.144 144.113 164.463 144.083H163.842H163.482C160.679 144.046 157.846 143.999 155.111 143.947H154.743C152.012 143.89 149.356 143.831 146.943 143.766H146.583C143.631 143.687 141.032 143.605 139.028 143.518C139.028 143.402 139.058 143.283 139.073 143.164C141.071 143.238 143.653 143.322 146.588 143.412H146.948C149.368 143.476 152.015 143.538 154.763 143.593H155.13C157.861 143.647 160.687 143.692 163.482 143.729H163.842H164.338C167.188 143.764 169.746 143.784 172.035 143.793H172.394C175.572 143.793 178.236 143.793 180.465 143.761H180.833C185.053 143.702 187.687 143.583 189.318 143.454C189.341 143.56 189.346 143.679 189.351 143.798Z" fill="#3B6BBF"/>
<path d="M189.902 151.917C186.937 152.452 183.943 152.856 180.982 153.156L180.617 153.193C177.789 153.468 174.996 153.644 172.305 153.751H171.947C169.8 153.83 167.727 153.865 165.741 153.865C165.095 153.865 164.462 153.865 163.842 153.865H163.482C161.295 153.838 159.261 153.771 157.399 153.686C156.496 153.647 155.604 153.6 154.726 153.545L154.363 153.523C151.689 153.357 149.15 153.141 146.816 152.896L146.456 152.859C142.822 152.467 139.736 152.008 137.536 151.567C137.561 151.453 137.588 151.332 137.618 151.205C139.664 151.607 142.712 152.075 146.461 152.489L146.819 152.529C149.105 152.777 151.645 152.997 154.373 153.171L154.738 153.196C157.489 153.367 160.423 153.486 163.482 153.528H163.842C166.473 153.56 169.189 153.528 171.957 153.429C172.077 153.429 172.206 153.429 172.315 153.414C175.046 153.305 177.836 153.121 180.624 152.844L180.989 152.809C183.968 152.507 186.947 152.1 189.882 151.57C189.884 151.679 189.894 151.798 189.902 151.917Z" fill="#3B6BBF"/>
<path d="M163.171 158.699C162.061 158.704 160.952 158.654 159.847 158.547C150.344 157.578 141.444 153.704 141.357 153.667L141.223 153.607L141.262 153.466C141.282 153.404 143.09 147.155 142.926 137.51C142.762 127.865 142.027 121.915 142.02 121.858L141.99 121.611L142.226 121.67C162.044 126.692 184.844 124.087 185.073 124.06H185.192L186.826 127.562V127.612C186.826 127.694 185.785 136.04 186.135 142.733C186.387 146.964 187.101 151.155 188.265 155.231L188.318 155.402L188.141 155.441C187.968 155.459 173.117 158.699 163.171 158.699ZM141.622 153.419C142.762 153.914 151.056 157.318 159.882 158.218C168.842 159.14 185.969 155.545 187.888 155.134C186.75 151.089 186.048 146.934 185.795 142.74C185.458 136.295 186.399 128.311 186.483 127.619L184.993 124.419C183.181 124.617 161.458 126.836 142.382 122.067C142.519 123.271 143.127 128.921 143.261 137.515C143.41 146.399 141.89 152.432 141.622 153.419Z" fill="#FEFEF1"/>
<path d="M189.634 130.586C187.918 128.202 182.28 128.965 182.28 128.965C182.28 128.965 183.705 123.276 179.895 120.359C180.426 120.392 180.956 120.452 181.481 120.54C188.157 121.71 190.016 124.684 189.634 130.586Z" fill="#3B6BBF"/>
<path d="M174.231 160.518C168.042 161.358 160.86 161.757 154.283 160.969C138.395 159.073 137.017 153.986 137.275 152.692C138.636 149.656 139.542 149.591 139.542 149.591C139.542 149.591 136.334 161.492 174.231 160.518Z" fill="#3B6BBF"/>
<path d="M176.324 152.556H155.011V150.142H155.351V140.244C154.376 140.707 153.613 140.784 153.077 140.467C152.635 140.219 152.395 139.701 152.395 139.044C152.395 138.811 152.395 138.107 157.407 133.853C159.073 132.441 161.002 130.879 162.7 129.587C165.088 127.763 165.505 127.587 165.659 127.585C165.813 127.582 165.994 127.634 167.32 128.601C168.08 129.156 169.058 129.897 170.086 130.713C170.056 129.627 170.108 129.587 170.212 129.508C170.269 129.466 170.346 129.409 171.339 129.399C172.384 129.399 172.442 129.461 172.516 129.553C172.59 129.644 172.63 129.694 172.595 131.01C173.181 131.028 173.286 131.09 173.365 131.174C173.445 131.258 173.569 131.404 173.365 133.37C178.953 138.048 178.953 138.796 178.953 139.044C178.953 139.701 178.705 140.207 178.271 140.467C177.734 140.784 176.97 140.715 175.994 140.244V150.142H176.334L176.324 152.556ZM155.51 152.06H175.825V150.645H175.485V139.416L175.855 139.619C177.096 140.291 177.705 140.219 178.008 140.041C178.385 139.817 178.442 139.322 178.442 139.049C178.442 138.97 178.288 138.147 172.931 133.673L172.829 133.586L172.844 133.454C172.937 132.821 172.98 132.181 172.973 131.541C172.761 131.518 172.548 131.507 172.335 131.509H172.087V131.261C172.111 130.45 172.104 130.086 172.087 129.925C171.581 129.896 171.075 129.896 170.57 129.925C170.57 130.113 170.57 130.51 170.59 131.233L170.612 131.779L170.185 131.439C167.757 129.511 166.014 128.251 165.657 128.093C165.182 128.303 162.263 130.462 158.941 133.209C154.16 137.175 152.884 138.737 152.881 139.044C152.879 139.351 152.938 139.813 153.318 140.036C153.621 140.214 154.239 140.284 155.468 139.614L155.838 139.411V150.64H155.51V152.06Z" fill="#FEFEF1"/>
<path d="M163.571 139.751C163.459 139.637 159.847 139.525 159.561 139.751C159.457 139.837 159.422 144.349 159.561 144.507C159.7 144.666 163.707 144.621 163.732 144.507C163.757 144.393 163.687 139.865 163.571 139.751ZM160.686 144.292L160.319 144.279C160.151 144.284 159.983 144.261 159.822 144.212C159.751 143.724 159.725 143.23 159.745 142.738C159.745 141.555 159.77 140.09 159.822 140.043C159.926 139.959 160.567 139.927 161.279 139.927H161.448V144.302C161.175 144.302 160.917 144.299 160.686 144.292ZM163.469 144.212C162.992 144.285 162.509 144.314 162.027 144.299H161.778V139.934C162.027 139.934 162.275 139.949 162.491 139.959L162.766 139.974C162.958 139.973 163.149 139.996 163.335 140.043C163.386 140.309 163.41 140.58 163.407 140.851C163.454 142.036 163.481 144.141 163.469 144.212Z" fill="#FEFEF1"/>
<path d="M161.771 139.934V144.302H161.438V139.929L161.771 139.934Z" fill="#FEFEF1"/>
<path d="M161.771 139.934V144.302H161.438V139.929L161.771 139.934Z" fill="#FEFEF1"/>
<path d="M171.701 139.751C171.587 139.637 167.963 139.525 167.69 139.751C167.59 139.837 167.555 144.349 167.69 144.507C167.824 144.666 171.84 144.621 171.86 144.507C171.88 144.393 171.816 139.865 171.701 139.751ZM168.817 144.292L168.449 144.279C168.281 144.284 168.113 144.262 167.953 144.212C167.883 143.724 167.857 143.23 167.876 142.738C167.876 141.555 167.898 140.09 167.953 140.043C168.054 139.959 168.697 139.927 169.41 139.927H169.561V144.302C169.313 144.302 169.045 144.299 168.817 144.292ZM171.597 144.212C171.121 144.286 170.639 144.315 170.157 144.299H169.909V139.934C170.157 139.934 170.405 139.949 170.621 139.959L170.9 139.974C171.091 139.973 171.282 139.996 171.468 140.043C171.52 140.309 171.545 140.58 171.542 140.851C171.587 142.036 171.612 144.141 171.597 144.212Z" fill="#FEFEF1"/>
<path d="M169.899 139.934V144.302H169.562V139.929L169.899 139.934Z" fill="#FEFEF1"/>
<path d="M169.899 139.934V144.302H169.562V139.929L169.899 139.934Z" fill="#FEFEF1"/>
<path d="M165.668 134.032C165.292 134.032 164.924 134.143 164.612 134.352C164.299 134.561 164.055 134.857 163.911 135.204C163.767 135.551 163.73 135.933 163.803 136.301C163.877 136.669 164.058 137.008 164.324 137.273C164.59 137.539 164.928 137.72 165.297 137.793C165.666 137.866 166.049 137.829 166.396 137.685C166.744 137.541 167.041 137.298 167.249 136.986C167.458 136.673 167.57 136.306 167.57 135.931C167.57 135.681 167.521 135.434 167.426 135.204C167.33 134.973 167.19 134.764 167.014 134.587C166.837 134.411 166.627 134.271 166.396 134.176C166.166 134.08 165.918 134.032 165.668 134.032ZM166.023 137.465C165.907 137.493 165.788 137.507 165.668 137.507C165.443 137.507 165.221 137.459 165.015 137.366C164.928 137.33 164.845 137.285 164.767 137.232C164.439 137.007 164.208 136.668 164.119 136.28C164.092 136.166 164.079 136.048 164.079 135.931C164.079 135.724 164.12 135.518 164.199 135.327C164.278 135.136 164.394 134.962 164.541 134.815C164.688 134.669 164.862 134.553 165.054 134.474C165.245 134.394 165.451 134.354 165.658 134.354C165.778 134.353 165.897 134.367 166.013 134.394C166.269 134.452 166.505 134.574 166.701 134.748C166.743 134.783 166.781 134.82 166.82 134.86C166.949 135.001 167.051 135.164 167.123 135.341C167.198 135.528 167.237 135.729 167.237 135.931C167.237 136.286 167.118 136.63 166.897 136.909C166.677 137.187 166.369 137.383 166.023 137.465Z" fill="#FEFEF1"/>
<path d="M169.562 152.13C167.988 152.13 167.893 152.033 167.841 151.981L167.794 151.936V151.872C167.625 148.352 167.6 146.485 167.719 146.322C167.774 146.248 167.858 146.191 168.41 146.146C168.961 146.101 171.553 146.039 171.813 146.302C172.074 146.565 172.091 150.977 172.062 151.55C172.044 151.874 172.024 151.939 171.96 151.993C171.895 152.048 171.816 152.112 169.922 152.127L169.562 152.13ZM168.119 151.743C169.317 151.819 170.519 151.814 171.716 151.728C171.788 151.076 171.716 147.058 171.568 146.54C171.153 146.404 168.449 146.399 167.995 146.54C167.926 146.994 168.03 149.884 168.117 151.743H168.119Z" fill="#FEFEF1"/>
<path d="M171.177 149.088C171.178 149.145 171.162 149.2 171.131 149.247C171.099 149.295 171.055 149.331 171.003 149.353C170.951 149.375 170.893 149.381 170.838 149.371C170.782 149.36 170.731 149.333 170.691 149.293C170.651 149.253 170.623 149.203 170.612 149.147C170.601 149.092 170.606 149.034 170.628 148.982C170.649 148.93 170.686 148.885 170.733 148.854C170.78 148.822 170.835 148.806 170.892 148.806C170.967 148.806 171.039 148.835 171.093 148.888C171.146 148.941 171.177 149.013 171.177 149.088Z" fill="#FEFEF1"/>
<path d="M151.752 128.784C149.878 128.782 148.01 128.589 146.176 128.207L146.347 127.394C148.753 127.905 151.221 128.065 153.673 127.867L153.77 128.693C153.099 128.759 152.426 128.79 151.752 128.784Z" fill="#FEFEF1"/>
<path d="M169.976 150.694V163.282H150.897V150.412L161.379 141.265L169.976 150.694Z" fill="#F5B3A2"/>
<path d="M164.884 143.523C164.884 143.523 164.807 141.917 164.884 141.86C164.961 141.803 166.661 141.766 166.738 141.86C166.815 141.954 166.738 143.806 166.738 143.806L164.884 143.523Z" fill="#F5B3A2"/>
<path d="M164.43 143.419C164.43 143.419 167.382 143.231 167.553 143.419C167.724 143.608 167.362 146.309 167.362 146.309L164.43 143.419Z" fill="#FB503A"/>
<path d="M160.436 140.093C159.971 140.018 148.095 149.353 148.095 150.714C148.095 152.075 149.336 153.248 153.695 149.391C158.055 145.534 160.436 142.324 160.436 142.324V140.093Z" fill="#EA917A"/>
<path d="M160.436 140.093C160.9 140.018 172.777 149.353 172.777 150.714C172.777 152.075 171.536 153.248 167.176 149.391C162.817 145.534 160.334 142.324 160.334 142.324L160.436 140.093Z" fill="#EA917A"/>
<path d="M154.649 151.386C154.552 151.465 154.52 155.741 154.649 155.893C154.778 156.044 158.579 155.999 158.601 155.893C158.623 155.786 158.559 151.493 158.449 151.386C158.34 151.28 154.914 151.17 154.649 151.386Z" fill="#FEFEF1"/>
<path d="M158.353 155.612C157.9 155.682 157.442 155.71 156.985 155.694H156.426H155.716L155.366 155.682C155.204 155.688 155.042 155.666 154.887 155.617C154.82 155.155 154.796 154.687 154.815 154.219C154.815 153.099 154.837 151.711 154.887 151.669C154.984 151.587 155.594 151.557 156.267 151.557H156.426H156.741C156.99 151.557 157.211 151.57 157.417 151.579C157.511 151.579 157.598 151.579 157.68 151.594C157.862 151.592 158.043 151.614 158.219 151.661C158.268 151.914 158.291 152.17 158.288 152.427C158.34 153.558 158.365 155.543 158.353 155.612Z" fill="#3B6BBF"/>
<g style="mix-blend-mode:screen">
<g style="mix-blend-mode:screen">
<path d="M157.417 151.582L155.366 155.67C155.204 155.676 155.042 155.654 154.887 155.605C154.82 155.142 154.796 154.674 154.815 154.207L156.267 151.545H156.426H156.741C156.98 151.565 157.211 151.572 157.417 151.582Z" fill="#333333"/>
</g>
<g style="mix-blend-mode:screen">
<path d="M158.288 152.43L156.984 155.694H156.426H155.716L157.68 151.602C157.861 151.599 158.043 151.622 158.218 151.669C158.267 151.919 158.291 152.174 158.288 152.43Z" fill="#333333"/>
</g>
</g>
<path d="M156.741 151.56V155.697H156.426V151.555L156.741 151.56Z" fill="#FEFEF1"/>
<path d="M162.362 151.386C162.265 151.465 162.232 155.741 162.362 155.893C162.491 156.044 166.291 155.999 166.314 155.893C166.336 155.786 166.272 151.493 166.162 151.386C166.053 151.28 162.61 151.17 162.362 151.386Z" fill="#FEFEF1"/>
<path d="M166.053 155.612C165.602 155.682 165.144 155.71 164.688 155.694H164.129H163.419L163.069 155.682C162.907 155.688 162.745 155.666 162.59 155.617C162.523 155.155 162.499 154.687 162.518 154.219C162.518 153.099 162.54 151.711 162.59 151.669C162.687 151.587 163.297 151.557 163.97 151.557H164.129H164.444C164.693 151.557 164.914 151.57 165.12 151.579C165.214 151.579 165.301 151.579 165.383 151.594C165.565 151.592 165.746 151.614 165.922 151.661C165.971 151.914 165.994 152.17 165.991 152.427C166.043 153.558 166.068 155.543 166.053 155.612Z" fill="#3B6BBF"/>
<g style="mix-blend-mode:screen">
<g style="mix-blend-mode:screen">
<path d="M165.12 151.582L163.069 155.67C162.907 155.676 162.745 155.654 162.59 155.605C162.523 155.142 162.499 154.674 162.518 154.207L163.97 151.545H164.129H164.444C164.683 151.565 164.914 151.572 165.12 151.582Z" fill="#333333"/>
</g>
<g style="mix-blend-mode:screen">
<path d="M165.991 152.43L164.688 155.694H164.129H163.419L165.383 151.602C165.564 151.599 165.746 151.622 165.921 151.669C165.97 151.919 165.994 152.174 165.991 152.43Z" fill="#333333"/>
</g>
</g>
<path d="M164.445 151.56V155.697H164.13V151.555L164.445 151.56Z" fill="#FEFEF1"/>
<path d="M162.184 148.169C162.413 147.202 161.813 146.232 160.844 146.004C159.875 145.776 158.904 146.375 158.676 147.342C158.447 148.309 159.047 149.279 160.016 149.507C160.985 149.735 161.955 149.136 162.184 148.169Z" fill="#FEFEF1"/>
<path d="M161.933 147.765C161.935 148.103 161.821 148.433 161.61 148.698C161.399 148.964 161.104 149.149 160.773 149.225C160.663 149.252 160.549 149.265 160.436 149.264C160.222 149.265 160.011 149.219 159.817 149.13C159.738 149.096 159.662 149.053 159.591 149.004C159.281 148.791 159.062 148.469 158.978 148.102C158.951 147.993 158.938 147.881 158.939 147.77C158.939 147.375 159.095 146.997 159.375 146.718C159.654 146.439 160.033 146.282 160.428 146.282C160.635 146.28 160.84 146.323 161.03 146.406C161.22 146.489 161.389 146.612 161.528 146.766C161.783 147.041 161.925 147.402 161.925 147.777L161.933 147.765Z" fill="#3B6BBF"/>
<g style="mix-blend-mode:screen">
<g style="mix-blend-mode:screen">
<path d="M161.426 146.644L159.592 148.999C159.281 148.786 159.063 148.464 158.979 148.097L160.773 146.309C161.015 146.365 161.24 146.48 161.426 146.644Z" fill="#333333"/>
</g>
<g style="mix-blend-mode:screen">
<path d="M161.823 147.207L160.773 149.225C160.663 149.252 160.549 149.265 160.436 149.264C160.222 149.265 160.011 149.219 159.817 149.13L161.535 146.758C161.658 146.889 161.755 147.041 161.823 147.207Z" fill="#333333"/>
</g>
</g>
<path d="M170.296 161.467H150.574V163.282H170.296V161.467Z" fill="#EA917A"/>
<path d="M162.61 162.858C162.61 162.858 162.362 157.9 162.51 157.7C162.659 157.499 165.959 157.509 166.15 157.7C166.341 157.89 166.416 162.764 166.301 162.858C166.187 162.952 162.754 163.014 162.61 162.858Z" fill="#FB503A"/>
<path d="M165.386 160.503C165.535 160.503 165.656 160.382 165.656 160.233C165.656 160.084 165.535 159.963 165.386 159.963C165.236 159.963 165.115 160.084 165.115 160.233C165.115 160.382 165.236 160.503 165.386 160.503Z" fill="#F8EA42"/>
<path d="M159.052 160.196L157.563 160.154H157.419L155.877 160.109L154.819 160.079C154.819 160.079 154.683 158.456 154.819 158.344C155.17 158.298 155.524 158.285 155.877 158.307C156.344 158.307 156.902 158.327 157.419 158.347H157.563C158.061 158.352 158.558 158.384 159.052 158.441C159.154 158.523 159.052 160.196 159.052 160.196Z" fill="#F8EA42"/>
<path d="M155.88 158.314V160.107L154.822 160.077C154.822 160.077 154.686 158.453 154.822 158.342C155.173 158.299 155.527 158.29 155.88 158.314Z" fill="#FFA72B"/>
<path d="M160.663 162.831C160.663 162.88 160.663 162.927 160.663 162.975C160.664 163.396 160.63 163.816 160.562 164.231C160.524 164.303 159.832 164.35 158.876 164.375H158.735C157.96 164.392 157.036 164.397 156.155 164.39H156.011C155.515 164.39 155.03 164.375 154.603 164.363C153.648 164.335 152.955 164.288 152.925 164.226C152.865 163.81 152.836 163.39 152.838 162.97C152.838 162.923 152.838 162.875 152.838 162.826C152.826 162.375 152.818 161.871 152.813 161.418C152.813 161.368 152.813 161.321 152.813 161.274C152.813 160.57 152.813 160.007 152.828 159.97C152.843 159.933 153.6 159.866 154.611 159.856C155.214 159.856 155.914 159.856 156.619 159.856H156.761C157.421 159.856 158.079 159.871 158.655 159.886H158.799C159.792 159.911 160.507 159.94 160.569 159.968C160.631 159.995 160.681 160.563 160.688 161.272C160.688 161.319 160.688 161.366 160.688 161.415C160.683 161.867 160.678 162.38 160.663 162.831Z" fill="#F8EA42"/>
<path d="M154.602 159.861V164.368C154.122 164.353 153.71 164.335 153.412 164.313H153.271C153.151 164.316 153.033 164.292 152.923 164.244C152.863 163.828 152.834 163.407 152.836 162.987C152.836 162.94 152.836 162.893 152.836 162.843C152.824 162.392 152.816 161.889 152.812 161.435C152.812 161.386 152.812 161.339 152.812 161.291C152.812 160.587 152.812 160.025 152.826 159.988C152.841 159.95 153.005 159.931 153.278 159.913H153.42C153.723 159.883 154.132 159.866 154.602 159.861Z" fill="#FFA72B"/>
<path d="M157.71 161.351H157.568V162.903H157.71V161.351Z" fill="#FFA72B"/>
<path d="M156.751 159.861V161.348H156.609V159.861H156.751Z" fill="#FFA72B"/>
<path d="M158.789 159.883V161.341H158.638V159.883H158.789Z" fill="#FFA72B"/>
<path d="M158.887 162.903V164.375H158.745V162.888L158.887 162.903Z" fill="#FFA72B"/>
<path d="M156.156 162.903V164.39H156.012V162.903H156.156Z" fill="#FFA72B"/>
<path d="M153.425 159.883V161.272H153.283V159.893L153.425 159.883Z" fill="#F5801A"/>
<path d="M153.866 161.351H153.725V162.903H153.866V161.351Z" fill="#F5801A"/>
<path d="M153.425 162.903V164.313H153.283V162.915L153.425 162.903Z" fill="#F5801A"/>
<path d="M160.681 161.423H152.807C152.807 161.373 152.807 161.326 152.807 161.279H160.681C160.681 161.326 160.681 161.371 160.681 161.423Z" fill="#FFA72B"/>
<path d="M160.664 162.831C160.664 162.88 160.664 162.927 160.664 162.975H152.836C152.836 162.927 152.836 162.88 152.836 162.831H160.664Z" fill="#FFA72B"/>
<path d="M154.602 161.279V161.423H152.807C152.807 161.373 152.807 161.326 152.807 161.279H154.602Z" fill="#F5801A"/>
<path d="M154.601 162.831V162.975H152.836C152.836 162.927 152.836 162.88 152.836 162.831H154.601Z" fill="#F5801A"/>
<path d="M98.5593 129.02C95.2103 128.655 93.2192 125.996 94.4133 122.374C95.6075 118.753 105.905 117.362 106.496 118.686C107.087 120.009 106.777 121.236 106.3 121.799C105.823 122.362 98.5593 129.02 98.5593 129.02Z" fill="#40312A"/>
<path d="M104.786 129.749C104.392 129.924 103.965 130.017 103.534 130.021C103.102 130.026 102.674 129.942 102.276 129.776C102.257 129.769 102.239 129.76 102.221 129.749C102.281 130.277 102.414 130.794 102.619 131.285C102.89 131.976 103.37 132.566 103.991 132.973C105.583 133.945 103.947 135.933 101.469 135.844C98.9915 135.755 96.2557 132.797 96.2557 132.797C96.2557 132.797 97.6708 131.65 98.0233 130.103C98.2402 128.998 98.3144 127.87 98.2443 126.747C98.2443 126.747 96.6529 126.437 96.2582 125.378C95.8634 124.32 96.3029 123.256 97.003 123.346C97.7031 123.435 97.4995 124.228 98.284 124.228C98.9493 124.228 99.3068 122.937 99.4061 122.51C99.5054 122.57 99.8629 122.602 100.938 122.463C101.512 122.399 102.058 122.181 102.517 121.832C102.977 121.483 103.333 121.016 103.547 120.48C103.764 121.007 104.155 121.444 104.654 121.72C104.896 121.875 105.174 121.964 105.461 121.979C105.748 121.994 106.034 121.935 106.29 121.806C106.866 127.322 106.114 129.131 104.786 129.749Z" fill="#FEC6AB"/>
<path d="M102.618 131.285C99.7181 130.839 99.6387 128.006 99.6387 128.006C99.6387 128.006 100.369 129.131 102.226 129.741C102.283 130.272 102.415 130.792 102.618 131.285Z" fill="#FD9B73"/>
<path d="M104.168 122.882C104.875 124.122 105.185 125.609 105.118 125.753C105.051 125.896 104.078 125.973 103.902 125.753C103.726 125.532 104.168 122.882 104.168 122.882Z" fill="#FD9B73"/>
<path d="M89.1252 165.855C89.1252 165.855 90.0537 169.762 89.7235 170.292C89.3933 170.822 88.5616 170.292 88.5616 170.292C88.5616 170.292 87.8317 174.233 85.7091 174.258C83.5865 174.283 85.4757 165.481 85.4757 165.481L89.1252 165.855Z" fill="#FEC6AB"/>
<path d="M109.413 147.556C108.705 146.709 108.067 145.805 107.507 144.854L91.4516 147.437C91.4516 147.437 89.6592 153.731 89.5922 158.096C89.5251 162.461 89.3935 165.384 89.1279 165.848C88.8623 166.311 86.1488 166.641 85.2128 165.848C84.2769 165.054 81.9582 158.096 83.0877 150.214C84.2173 142.331 87.338 135.837 91.6502 134.114C91.7644 134.072 91.8737 134.027 91.9804 133.982C93.887 133.239 95.0564 132.815 95.7564 132.587C96.0799 132.47 96.4119 132.378 96.7495 132.312C102.286 135.782 103.994 132.966 103.994 132.966C104.34 132.956 104.687 132.972 105.031 133.013C106.298 133.156 107.524 133.543 108.644 134.151C108.644 134.151 109.165 140.826 109.413 147.556Z" fill="white"/>
<path d="M110.845 157.838C111.223 157.276 113.047 157.474 113.179 159.296C113.311 161.118 110.294 161.941 108.71 160.005C107.126 158.069 108.792 155.62 109.547 155.62C110.302 155.62 110.845 157.838 110.845 157.838Z" fill="#FEC6AB"/>
<path d="M110.845 193.082H104.39L102.002 169.499L98.5588 196.349L91.039 194.141C91.039 194.141 90.7908 177.808 92.2158 166.837C92.4399 164.936 92.7857 163.051 93.251 161.195C93.3426 160.833 93.457 160.478 93.5936 160.131C96.2624 153.686 104.939 158.208 107.943 160.017C108.596 160.411 108.978 160.677 108.978 160.677L109.318 166.569L110.845 193.082Z" fill="#1A6185"/>
<path d="M109.329 166.556C108.087 166.031 106.796 164.194 106.598 161.847C106.956 161.167 107.412 160.543 107.951 159.995C108.604 160.389 108.986 160.654 108.986 160.654L109.329 166.556Z" fill="#0B4063"/>
<path d="M97.2234 161.725C96.8733 164.345 94.0382 167.568 92.2061 166.837C92.4301 164.936 92.7759 163.051 93.2413 161.195C93.3361 160.833 93.4539 160.478 93.5938 160.131C95.4707 160.483 97.2234 161.725 97.2234 161.725Z" fill="#0B4063"/>
<path d="M108.641 134.158C114.599 138.097 117.725 145.717 117.261 149.326C116.797 152.935 111.732 157.838 110.846 157.838C109.96 157.838 108.502 156.25 108.363 154.99C108.224 153.731 112.144 148.962 111.946 147.504C111.747 146.047 107.956 144.059 107.956 144.059L108.641 134.158Z" fill="white"/>
<path d="M109.522 155.342C109.507 156.098 109.482 156.807 109.442 157.452C109.361 158.877 109.214 160.002 108.988 160.674C107.573 164.826 94.3036 162.531 93.241 161.205C92.9506 160.84 92.68 159.638 92.4491 158.084C92.3597 157.486 92.2753 156.844 92.2008 156.163C91.9824 154.319 91.8061 152.291 91.6795 150.657C91.6199 149.914 91.5777 149.269 91.5405 148.746C91.4834 147.945 91.4561 147.447 91.4561 147.447C91.4561 147.447 92.3175 145.328 92.6502 140.69C92.7936 138.438 92.5689 136.177 91.9848 133.997C93.8915 133.254 95.0608 132.83 95.7609 132.602C96.4759 138.59 100.54 141.379 103.328 140.321C106.116 139.262 105.033 133.028 105.033 133.028C106.3 133.171 107.526 133.557 108.646 134.166C108.646 134.166 109.169 140.834 109.418 147.551C109.418 147.747 109.433 147.941 109.435 148.134C109.462 148.813 109.482 149.492 109.497 150.162C109.537 152.001 109.552 153.771 109.522 155.342Z" fill="#F8EA42"/>
<path d="M99.4351 122.374C99.4351 122.374 99.4351 122.426 99.4053 122.51C99.3159 122.453 99.4351 122.374 99.4351 122.374Z" fill="#FEC6AB"/>
<path d="M107.44 121.492C107.042 121.821 105.915 120.807 104.078 120.827C102.241 120.847 99.7436 122.086 99.0137 122.443C98.2838 122.8 94.761 122.852 94.0485 122.443C93.9591 122.389 93.552 121.531 93.3658 120.346C92.9636 117.939 93.3658 114.182 98.7654 113.056C104.634 111.834 106.769 116.703 107.335 119.556C107.551 120.619 107.546 121.402 107.44 121.492Z" fill="#FFB970"/>
<path d="M94.1698 120.674C94.1549 120.624 93.9712 118.356 94.1698 118.123C94.3684 117.89 95.2646 118.306 95.2646 118.306L95.7462 121.122L94.1698 120.674Z" fill="#F58B1D"/>
<path d="M95.9947 121.006C95.9947 120.956 95.6645 118.42 95.7465 118.356C95.8284 118.291 96.7246 118.42 96.8736 118.886C97.0225 119.352 97.1889 121.402 97.1889 121.402L95.9947 121.006Z" fill="#F58B1D"/>
<path d="M101.104 119.87C101.104 119.87 101.017 116.831 101.292 116.467C101.568 116.103 103.725 115.904 104.19 116.103C104.654 116.301 105.98 119.077 105.98 119.556C105.98 120.034 101.104 119.87 101.104 119.87Z" fill="#F58B1D"/>
<path d="M107.439 121.492C107.042 121.821 105.915 120.807 104.078 120.827C102.241 120.847 99.743 122.087 99.0131 122.443C98.2833 122.8 94.7605 122.852 94.0479 122.443C93.9586 122.389 93.5514 121.531 93.3652 120.346C95.18 119.851 96.7937 121.043 97.6378 120.939C98.4819 120.835 102.541 117.902 107.335 119.556C107.551 120.619 107.546 121.402 107.439 121.492Z" fill="#F99F41"/>
<path d="M107.34 119.556C108.269 119.945 108.601 120.227 108.634 120.475C108.666 120.723 108.584 121.866 108.269 121.883C107.953 121.901 106.973 121.524 106.486 121.345C106 121.167 107.34 119.556 107.34 119.556Z" fill="#F99F41"/>
<path d="M109.483 150.169C107.192 151.242 104.118 151.671 100.898 151.671C97.7933 151.652 94.6988 151.309 91.6654 150.647C91.6058 149.904 91.5636 149.259 91.5264 148.736C97.6584 150.186 105.662 150.452 109.421 148.141C109.458 148.82 109.483 149.5 109.483 150.169Z" fill="#FFA72B"/>
<path d="M109.522 155.342C109.507 156.098 109.483 156.807 109.443 157.452C107.154 158.513 104.1 158.939 100.908 158.939C98.0672 158.923 95.2348 158.635 92.4494 158.079C92.3601 157.481 92.2756 156.839 92.2012 156.158C98.2811 157.477 105.93 157.633 109.522 155.342Z" fill="#FFA72B"/>
<path d="M103.259 163.401C103.163 163.402 103.071 163.364 103.002 163.298C102.933 163.231 102.894 163.14 102.892 163.044L102.251 140.502C102.25 140.453 102.258 140.405 102.275 140.36C102.292 140.315 102.318 140.274 102.352 140.239C102.385 140.204 102.425 140.176 102.469 140.157C102.513 140.137 102.56 140.126 102.609 140.125C102.657 140.123 102.706 140.131 102.751 140.147C102.797 140.164 102.838 140.19 102.874 140.224C102.909 140.257 102.937 140.297 102.957 140.341C102.977 140.385 102.987 140.433 102.988 140.482L103.629 163.024C103.63 163.072 103.622 163.12 103.605 163.165C103.588 163.21 103.562 163.251 103.528 163.286C103.495 163.321 103.455 163.35 103.411 163.369C103.367 163.389 103.32 163.4 103.271 163.401H103.259Z" fill="#FFA72B"/>
<path d="M99.1699 192.462V204.034H87.7127C87.7127 204.034 87.0498 202.224 87.9783 200.811C88.9068 199.398 91.0145 199.354 91.0145 199.354L90.6769 191.756L99.1699 192.462Z" fill="#FB503A"/>
<path d="M117.657 204.034H105.14L104.418 198.332L104.098 195.801L103.636 192.155L111.553 192.463L111.863 199.22C112.613 199.041 113.391 199.015 114.151 199.143C114.911 199.271 115.637 199.55 116.287 199.963C118.499 201.384 117.657 204.034 117.657 204.034Z" fill="#FB503A"/>
<path d="M99.1697 193.199H99.1076L90.6146 192.49C90.4397 192.45 90.2851 192.349 90.1791 192.204C90.0731 192.06 90.0229 191.882 90.0377 191.703C90.0525 191.525 90.1313 191.358 90.2596 191.233C90.388 191.108 90.5572 191.033 90.7363 191.022L99.2293 191.729C99.4047 191.762 99.5623 191.857 99.6733 191.997C99.7844 192.136 99.8415 192.311 99.8343 192.489C99.8271 192.668 99.756 192.837 99.634 192.967C99.512 193.098 99.3472 193.18 99.1697 193.199Z" fill="#DE331E"/>
<path d="M111.553 193.199H111.526L103.609 192.889C103.503 192.901 103.395 192.889 103.293 192.855C103.192 192.822 103.099 192.767 103.02 192.694C102.942 192.621 102.88 192.532 102.839 192.433C102.799 192.334 102.78 192.228 102.784 192.121C102.788 192.014 102.815 191.909 102.863 191.814C102.912 191.718 102.98 191.635 103.064 191.568C103.148 191.501 103.245 191.454 103.349 191.428C103.453 191.402 103.561 191.399 103.666 191.419L111.583 191.729C111.759 191.759 111.917 191.851 112.031 191.988C112.144 192.126 112.204 192.299 112.201 192.477C112.197 192.654 112.13 192.825 112.011 192.957C111.892 193.09 111.73 193.175 111.553 193.199Z" fill="#DE331E"/>
<path d="M182.633 108.148L192.777 128.378L259.345 177.855L265.658 168.78L204.442 117.263L182.633 108.148Z" fill="#0B4063"/>
<path d="M182.633 108.148L185.379 113.619L192.777 128.378L204.442 117.263L188.477 110.592L182.633 108.148Z" fill="#FFD194"/>
<path d="M182.633 108.148L185.379 113.619L188.477 110.592L182.633 108.148Z" fill="#0B4063"/>
<g style="mix-blend-mode:screen">
<g style="mix-blend-mode:screen">
<path d="M241.357 153.286C242.082 152.439 234.103 144.446 223.535 135.435C212.967 126.423 203.813 119.804 203.088 120.651C202.363 121.499 210.342 129.491 220.91 138.503C231.478 147.515 240.632 154.134 241.357 153.286Z" fill="#333333"/>
</g>
</g>
<path d="M232.158 120.111C230.994 121.764 229.025 121.987 228.931 122.3C228.836 122.612 229.735 123.539 229.735 123.539C229.735 123.539 228.494 126.397 230.05 127.604C230.532 127.96 231.081 128.215 231.665 128.354C232.248 128.492 232.853 128.511 233.444 128.41C233.444 128.41 232.779 131.583 232.153 132.074C231.528 132.564 235.107 134.218 236.374 132.968C237.64 131.719 236.284 121.975 234.986 121.036C234.15 120.466 233.169 120.145 232.158 120.111Z" fill="#FEC6AB"/>
<path d="M209.993 130.936C210.428 129.696 209.288 124.969 208.752 125.103C208.216 125.237 207.98 126.774 207.98 126.774C207.98 126.774 205.026 122.121 203.449 123.462C201.873 124.803 204.194 131.672 208.047 132.812C211.9 133.953 209.993 130.936 209.993 130.936Z" fill="#FEC6AB"/>
<path d="M240.579 152.107C240.316 152.07 240.056 152.016 239.799 151.946C234.852 150.61 226.294 142.792 226.076 142.596C226.076 142.596 223.66 144.331 216.364 143.355C209.067 142.378 206.93 134.015 207.233 132.899C207.536 131.784 209.383 130.708 210.232 130.529C211.081 130.351 214.887 135.579 218.332 135.891C221.778 136.203 228.315 131.826 229.752 131.449C230.053 131.371 230.361 131.321 230.671 131.298C231.31 131.251 231.953 131.302 232.578 131.449C233.04 131.863 233.582 132.177 234.171 132.372C234.76 132.567 235.383 132.64 236.001 132.584C236.001 132.584 236.813 133.145 238.044 134.057C241.654 136.719 248.868 142.413 249.797 145.94C251.031 150.657 245.405 152.732 240.579 152.107Z" fill="white"/>
<path d="M247.018 189.956C245.946 193.712 241.621 192.118 241.621 192.118L237.619 171.323C236.75 174.385 236.203 177.53 235.988 180.705C235.698 185.663 235.224 192.108 235.224 192.108L232.426 192.852L231.703 193.045L229.186 193.709C229.186 193.709 227.681 188.211 227.279 178.963C226.877 169.714 229.293 153.265 229.186 152.212C229.079 151.158 226.165 142.849 226.075 142.594C226.075 142.594 226.889 142.529 228.866 140.963C229.064 140.809 229.268 140.64 229.489 140.452C229.71 140.264 229.921 140.08 230.157 139.867C232.887 137.388 232.967 133.796 230.653 131.295C231.293 131.248 231.936 131.299 232.56 131.446C233.022 131.86 233.564 132.174 234.153 132.37C234.742 132.565 235.365 132.637 235.983 132.582C235.983 132.582 236.795 133.142 238.026 134.054C239.742 137.772 241.614 143.308 241.614 143.308L239.799 151.951C240.53 152.991 241.209 154.066 241.832 155.174C243.124 157.414 244.176 159.785 244.97 162.246C246.686 167.791 248.091 186.203 247.018 189.956Z" fill="#FB503A"/>
<path d="M232.425 119.305C231.35 123.418 235.653 130.299 234.394 134.23C233.135 138.162 226.976 143.258 232.252 147.1C237.527 150.942 238.87 146.029 241.288 147.1C243.706 148.171 244.779 149.827 247.286 148.588C249.794 147.348 249.434 145.933 250.238 145.306C251.042 144.678 254.357 143.518 252.567 138.692C250.777 133.866 244.958 133.509 243.793 130.016C242.629 126.524 242.899 122.686 242.899 122.686L232.425 119.305Z" fill="#40312A"/>
<path d="M234.819 115.453C234.305 115.029 233.712 114.618 233.178 114.957C232.644 115.297 231.045 117.761 231.013 118.125C230.981 118.49 232.796 119.583 233.074 119.335C233.352 119.087 234.819 115.453 234.819 115.453Z" fill="#F58B1D"/>
<path d="M243.274 116.256C241.018 113.867 237.857 112.885 237.175 113.034C236.492 113.183 234.277 115.872 234.277 115.872L243.274 116.256Z" fill="#F99F41"/>
<path d="M232.741 117.778C232.422 118.351 232.187 118.966 232.041 119.605L242.917 125.609C243.377 125.148 243.771 124.626 244.087 124.057V124.04C245.894 120.778 244.816 116.73 241.681 114.997C238.545 113.264 234.546 114.521 232.741 117.778Z" fill="#FFB970"/>
<path d="M240.579 120.565L240.236 120.872C240.236 120.872 238.93 122.438 239.024 122.577C239.119 122.716 239.608 123.026 239.816 122.857C240.025 122.689 240.579 120.565 240.579 120.565Z" fill="#F58B1D"/>
<path d="M236.751 118.453C236.47 118.653 235.142 120.136 235.227 120.366C235.311 120.597 236.011 121.075 236.22 120.664C236.428 120.252 236.751 118.453 236.751 118.453Z" fill="#F58B1D"/>
<path d="M239.48 122.978L240.751 123.679C240.859 123.739 240.995 123.7 241.054 123.592L242.195 121.531C242.255 121.423 242.216 121.287 242.108 121.228L240.837 120.526C240.729 120.467 240.593 120.506 240.533 120.614L239.392 122.675C239.332 122.782 239.372 122.918 239.48 122.978Z" fill="#F99F41"/>
<path d="M235.653 120.865L236.924 121.566C237.032 121.626 237.168 121.587 237.227 121.479L238.368 119.418C238.428 119.31 238.389 119.174 238.281 119.115L237.01 118.413C236.902 118.354 236.766 118.393 236.706 118.501L235.565 120.562C235.505 120.67 235.545 120.805 235.653 120.865Z" fill="#F99F41"/>
<path d="M229.102 118.239L242.877 125.842C243.029 125.928 243.209 125.95 243.377 125.903C243.545 125.857 243.688 125.745 243.774 125.594C243.86 125.442 243.882 125.263 243.835 125.095C243.789 124.927 243.677 124.785 243.525 124.699L229.74 117.079C229.587 116.994 229.407 116.972 229.239 117.019C229.071 117.065 228.928 117.176 228.841 117.327C228.796 117.404 228.768 117.489 228.757 117.576C228.746 117.664 228.753 117.753 228.777 117.839C228.802 117.924 228.843 118.003 228.899 118.072C228.954 118.141 229.023 118.198 229.102 118.239Z" fill="#F99F41"/>
<path d="M247.018 189.956C245.946 193.712 241.621 192.118 241.621 192.118L237.619 171.323C239.434 164.896 242.515 159.509 241.84 155.179C243.132 157.419 244.184 159.79 244.978 162.251C246.686 167.791 248.091 186.204 247.018 189.956Z" fill="#DE331E"/>
<path d="M231.542 166.135C230.286 177.438 231.944 189.671 232.426 192.854L231.703 193.048C231.229 189.956 229.524 177.538 230.805 166.053C230.889 165.277 230.971 164.549 231.053 163.86C231.078 163.644 231.1 163.431 231.127 163.222C231.463 160.221 231.706 157.982 231.788 156.034C231.976 151.483 231.291 148.471 228.863 140.96C229.062 140.807 229.265 140.638 229.486 140.45C232.269 149.081 232.845 152.053 232.441 157.581C232.317 159.256 232.103 161.165 231.835 163.53L231.79 163.931C231.713 164.635 231.626 165.359 231.542 166.135Z" fill="#DE331E"/>
<path d="M232.438 157.578C232.314 159.254 232.101 161.163 231.833 163.527C231.715 163.494 231.599 163.452 231.488 163.401C231.363 163.346 231.241 163.282 231.125 163.21C228.074 161.363 229.114 155.166 229.114 155.166C229.904 155.701 230.832 155.997 231.786 156.019C231.85 156.023 231.915 156.023 231.979 156.019C231.979 156.019 232.193 156.676 232.438 157.578Z" fill="#DE331E"/>
<path d="M235.872 189.956L234.799 204.034H224.427C224.427 204.034 222.548 202.246 224.427 200.348C225.902 198.86 228.873 199.274 228.873 199.274L227.694 190.351L235.872 189.956Z" fill="#1A6185"/>
<path d="M240.316 190.584L242.138 200.288C242.138 200.288 239.499 200.154 238.245 201.585C236.991 203.015 237.617 204.041 237.617 204.041H248.851L248.091 188.886L240.316 190.584Z" fill="#1A6185"/>
<path d="M227.682 190.918C227.534 190.922 227.39 190.867 227.283 190.764C227.175 190.662 227.113 190.522 227.11 190.374C227.106 190.226 227.161 190.083 227.263 189.976C227.366 189.869 227.506 189.806 227.654 189.803L235.847 189.399C235.995 189.393 236.14 189.445 236.25 189.545C236.359 189.645 236.425 189.784 236.433 189.932C236.437 190.005 236.426 190.078 236.402 190.148C236.377 190.217 236.339 190.28 236.29 190.335C236.24 190.389 236.18 190.433 236.114 190.465C236.047 190.496 235.975 190.513 235.902 190.517L227.709 190.918H227.682Z" fill="#0B4063"/>
<path d="M240.316 191.141C240.177 191.142 240.044 191.091 239.941 190.999C239.838 190.907 239.773 190.78 239.758 190.643C239.743 190.506 239.78 190.368 239.861 190.257C239.942 190.145 240.061 190.067 240.196 190.038L247.984 188.338C248.129 188.305 248.282 188.331 248.408 188.41C248.534 188.489 248.623 188.615 248.656 188.76C248.689 188.905 248.663 189.057 248.583 189.183C248.504 189.309 248.378 189.398 248.233 189.431L240.445 191.129C240.402 191.139 240.359 191.143 240.316 191.141Z" fill="#0B4063"/>
<path d="M31.7396 97.9701C33.974 101.193 32.7774 103.723 32.7774 103.723L49.7062 115.622C49.7062 115.622 54.3685 113.046 57.1366 116.008C58.5443 117.477 59.3319 119.429 59.3362 121.462C59.3351 121.524 59.3149 121.585 59.2783 121.635C59.2417 121.686 59.1904 121.724 59.1314 121.745C59.0724 121.765 59.0085 121.767 58.9484 121.75C58.8882 121.733 58.8347 121.698 58.795 121.65C58.008 120.706 56.3 119 54.0309 118.74C51.5657 118.46 49.5796 121.7 50.9326 124.132C51.8065 125.701 53.9738 126.362 55.1381 126.61C55.1989 126.624 55.2542 126.655 55.2965 126.7C55.3389 126.746 55.3664 126.803 55.3753 126.865C55.3842 126.926 55.3741 126.989 55.3464 127.044C55.3186 127.1 55.2746 127.146 55.2201 127.176C54.0086 127.832 51.3993 128.797 49.0483 126.68C48.1337 125.869 47.4611 124.823 47.1049 123.655C46.7487 122.487 46.7228 121.243 47.03 120.061L41.2505 115.847L29.9795 107.667C29.9795 107.667 28.5321 109.665 25.1732 108.721C23.7399 108.29 22.5047 107.368 21.6851 106.118C21.1836 105.395 20.7765 104.611 20.4736 103.785C20.4478 103.721 20.4452 103.649 20.4662 103.582C20.4873 103.516 20.5307 103.459 20.5891 103.421C20.6475 103.382 20.7173 103.366 20.7868 103.373C20.8562 103.38 20.921 103.411 20.9701 103.461C23.413 105.553 26.4914 105.278 27.8718 101.743C28.9889 98.8749 26.2184 97.2439 24.6096 96.5647C24.5482 96.5386 24.497 96.4931 24.4639 96.4353C24.4308 96.3774 24.4176 96.3103 24.4264 96.2442C24.4351 96.1781 24.4653 96.1167 24.5123 96.0694C24.5593 96.0221 24.6205 95.9914 24.6866 95.9821C26.5187 95.7665 30.1135 95.6326 31.7396 97.9701Z" fill="#ABDEF0"/>
<path d="M48.8058 118.165C48.8001 118.226 48.7782 118.285 48.7425 118.334C48.7068 118.384 48.6585 118.424 48.6025 118.449C48.5465 118.474 48.4848 118.484 48.4237 118.478C48.3626 118.472 48.3042 118.449 48.2546 118.413L30.9485 105.711C30.9074 105.686 30.872 105.653 30.8446 105.614C30.8171 105.574 30.7981 105.53 30.7888 105.483C30.7795 105.435 30.7801 105.387 30.7905 105.34C30.801 105.293 30.8211 105.249 30.8495 105.21C30.878 105.171 30.9141 105.139 30.9558 105.115C30.9974 105.091 31.0436 105.076 31.0914 105.07C31.1392 105.065 31.1876 105.07 31.2335 105.084C31.2794 105.098 31.3218 105.122 31.3581 105.154L48.6593 117.845C48.7098 117.881 48.75 117.929 48.7757 117.985C48.8015 118.042 48.8118 118.104 48.8058 118.165Z" fill="#89CAE0"/>
<path d="M29.3492 103.448C29.5198 103.41 29.6979 103.424 29.8609 103.487C30.0238 103.55 30.1644 103.66 30.2649 103.803C30.3653 103.945 30.421 104.115 30.4251 104.289C30.4291 104.464 30.3812 104.636 30.2875 104.783C30.1938 104.93 30.0584 105.046 29.8985 105.117C29.7386 105.187 29.5614 105.209 29.3892 105.179C29.217 105.149 29.0576 105.068 28.9312 104.948C28.8048 104.827 28.717 104.672 28.6789 104.502C28.6533 104.389 28.6503 104.272 28.6702 104.157C28.6901 104.043 28.7324 103.934 28.7947 103.836C28.8569 103.738 28.938 103.653 29.0332 103.587C29.1284 103.52 29.2358 103.473 29.3492 103.448Z" fill="#89CAE0"/>
<path d="M49.5079 118.448C49.6785 118.41 49.8564 118.424 50.0192 118.487C50.1819 118.551 50.3222 118.661 50.4223 118.804C50.5223 118.947 50.5777 119.116 50.5814 119.291C50.5851 119.465 50.5369 119.637 50.443 119.784C50.3491 119.931 50.2136 120.047 50.0536 120.117C49.8937 120.187 49.7165 120.209 49.5445 120.179C49.3724 120.148 49.2132 120.068 49.0869 119.947C48.9607 119.827 48.873 119.671 48.8351 119.501C48.7848 119.272 48.8273 119.033 48.9535 118.836C49.0796 118.638 49.2789 118.499 49.5079 118.448Z" fill="#89CAE0"/>
<path d="M311.318 111.844C310.526 111.891 309.731 111.872 308.942 111.787C308.942 111.787 308.9 111.539 308.813 111.202C308.68 110.633 308.474 110.083 308.2 109.566C308.119 109.422 308.023 109.287 307.915 109.162C307.666 108.897 307.969 108.607 308.468 108.339C309.461 107.799 311.261 107.347 311.261 107.347C311.3 107.587 311.357 107.823 311.43 108.054C311.602 108.617 311.831 109.16 312.115 109.675C312.283 109.987 312.468 110.289 312.669 110.58C313.28 111.452 312.388 111.76 311.318 111.844Z" fill="#89CAE0"/>
<path d="M311.437 108.049C310.672 108.48 309.883 108.868 309.073 109.209C308.773 109.338 308.48 109.457 308.207 109.566C307.427 109.868 306.817 110.062 306.717 109.995C306.39 109.804 305.349 108.037 305.585 107.293C305.68 106.998 306.395 106.472 307.261 105.962C308.559 105.193 310.203 104.455 310.622 104.556C311.323 104.725 312.36 107.201 312.271 107.4C312.191 107.558 311.876 107.786 311.437 108.049Z" fill="#ABDEF0"/>
<path d="M308.294 111.941C307.55 112.838 305.603 114.191 303.776 114.253C301.949 114.315 304.65 117.652 304.888 117.094C305.127 116.536 308.612 114.576 309.647 114.615C310.683 114.655 308.294 111.941 308.294 111.941Z" fill="#89CAE0"/>
<path d="M311.012 122.582C310.602 122.483 311.365 120.736 310.516 117.444C310.019 115.51 308.033 112.657 307.961 111.99C307.939 111.814 308.294 111.522 308.827 111.197C309.192 110.974 309.644 110.736 310.116 110.51C310.771 110.191 311.443 109.909 312.129 109.665C312.735 109.457 313.172 109.365 313.217 109.482C313.854 111.069 314.262 112.738 314.428 114.439C314.92 120.304 311.345 122.662 311.012 122.582Z" fill="#ABDEF0"/>
<path d="M303.48 113.034C304.193 113.421 305.759 116.911 305.494 118.093C305.228 119.276 282.157 129.58 281.181 129.389C280.206 129.198 278.096 125.564 278.947 124.273C279.799 122.981 302.72 112.62 303.48 113.034Z" fill="#7FBFD4"/>
<path d="M161.306 36.5873L160.584 36.2402C162.265 32.7501 167.59 34.0861 172.287 35.2661C174.179 35.742 175.966 36.1907 177.284 36.2576C178.305 36.3096 179.241 35.9106 180.07 35.0752C182.004 33.1219 182.746 29.483 182.801 28.784C182.289 28.3502 179.325 26.9397 176.636 25.7722L176.954 25.0286C183.459 27.847 183.548 28.3328 183.593 28.5658C183.677 29.0318 182.952 33.0277 180.919 35.3379C179.861 36.5402 178.63 37.1153 177.252 37.0459C175.874 36.9764 174.025 36.5179 172.103 36.032C167.692 34.9364 162.704 33.6846 161.306 36.5873Z" fill="#89CAE0"/>
<path d="M161.272 12.8898C163.364 11.2563 182.086 20.9832 182.423 22.2251C182.761 23.4669 179.228 32.2568 177.257 32.7427C175.286 33.2285 157.396 24.746 156.671 23.5215C155.946 22.2969 159.879 13.9855 161.272 12.8898Z" fill="#ABDEF0"/>
<path d="M158.417 34.6092C158.824 34.4431 164.068 36.8401 164.224 37.5367C164.381 38.2332 160.175 45.2359 159.919 45.4069C159.664 45.5779 156.034 44.2592 155.555 43.3544C155.076 42.4497 157.938 34.8075 158.417 34.6092Z" fill="#7FBFD4"/>
<g style="mix-blend-mode:screen">
<g style="mix-blend-mode:screen">
<path d="M177.151 21.1814C176.853 21.8458 173.295 20.9013 169.206 19.072C165.118 17.2426 162.044 15.2174 162.344 14.5531C162.645 13.8888 166.2 14.8307 170.289 16.6626C174.378 18.4944 177.449 20.5146 177.151 21.1814Z" fill="#333333"/>
</g>
</g>
<path d="M234.871 53.2772C235.115 53.4503 235.403 53.5506 235.702 53.5664C236.001 53.5822 236.298 53.5128 236.559 53.3664L236.686 53.2945L237.034 53.1012L238.339 52.3575L238.685 52.1666L239.993 51.423L240.338 51.2297L241.644 50.486L241.986 50.2902L243.297 49.5465L243.637 49.3557L244.946 48.612L245.291 48.4212L246.599 47.6775L246.942 47.4817L248.255 46.738L248.595 46.5472L249.903 45.8035L250.248 45.6077L251.557 44.8641L251.897 44.6682L253.208 43.9246L253.548 43.7312L254.856 42.9876L255.201 42.7967L256.512 42.0531L256.85 41.8597L258.165 41.1161L258.503 40.9252L259.814 40.1816L260.159 39.9858L261.467 39.2421L261.807 39.0512L263.118 38.3076L263.461 38.1167L264.275 37.6557C264.556 37.4974 264.78 37.2569 264.919 36.9668C265.058 36.6768 265.105 36.351 265.052 36.0338C265 35.7165 264.851 35.423 264.626 35.1931C264.4 34.9631 264.11 34.8077 263.794 34.748H263.749C255.541 33.4243 242.173 31.1835 240.316 30.6456C240.161 30.5589 239.993 30.4994 239.819 30.4696C239.616 30.4312 239.408 30.4332 239.206 30.4754C239.004 30.5176 238.813 30.5992 238.643 30.7155C238.472 30.8318 238.327 30.9805 238.214 31.1531C238.102 31.3258 238.024 31.5189 237.987 31.7214L234.233 51.6387C234.164 51.9442 234.188 52.2634 234.301 52.5553C234.415 52.8473 234.613 53.0986 234.871 53.2772ZM251.383 35.9552C254.042 36.4063 256.708 36.8476 258.831 37.1946L237.945 48.9764L240.758 34.044C242.525 34.4258 245.658 34.9785 251.383 35.9552ZM241.09 31.823C241.07 31.7049 241.036 31.5894 240.991 31.4785C241.038 31.5887 241.072 31.7044 241.09 31.823Z" fill="#89CAE0"/>
<path d="M236.17 51.9881C236.211 51.9665 236.258 51.9587 236.304 51.9658C236.332 51.9712 236.358 51.9827 236.382 51.9994C236.405 52.0161 236.424 52.0376 236.438 52.0625L237.034 53.1011L236.686 53.2945L236.095 52.2583C236.07 52.2125 236.064 52.1586 236.078 52.1081C236.091 52.0577 236.125 52.0146 236.17 51.9881Z" fill="#ABDEF0"/>
<path d="M237.816 51.0487C237.856 51.0269 237.902 51.019 237.947 51.0264C237.976 51.0311 238.004 51.0422 238.028 51.0589C238.052 51.0757 238.072 51.0976 238.086 51.123L238.685 52.1691L238.34 52.36L237.741 51.3114C237.716 51.2667 237.71 51.2139 237.724 51.1647C237.738 51.1154 237.771 51.0737 237.816 51.0487Z" fill="#ABDEF0"/>
<path d="M239.464 50.1092C239.504 50.0874 239.551 50.0796 239.596 50.0869C239.624 50.0924 239.65 50.1037 239.674 50.1199C239.697 50.1361 239.717 50.1569 239.732 50.1811L240.338 51.2371L239.993 51.4304L239.39 50.3745C239.377 50.3522 239.369 50.3276 239.366 50.3022C239.363 50.2768 239.365 50.251 239.371 50.2263C239.378 50.2016 239.39 50.1785 239.406 50.1584C239.422 50.1383 239.442 50.1216 239.464 50.1092Z" fill="#ABDEF0"/>
<path d="M241.11 49.1722C241.149 49.1484 241.196 49.1396 241.241 49.1474C241.269 49.1521 241.296 49.1629 241.319 49.1793C241.342 49.1956 241.362 49.2169 241.375 49.2416L241.986 50.3051L241.644 50.5009L241.035 49.4375C241.023 49.4152 241.014 49.3907 241.011 49.3652C241.008 49.3398 241.01 49.314 241.017 49.2893C241.024 49.2646 241.036 49.2415 241.052 49.2215C241.068 49.2014 241.087 49.1846 241.11 49.1722Z" fill="#ABDEF0"/>
<path d="M242.758 48.2278C242.78 48.215 242.805 48.2069 242.83 48.2037C242.856 48.2006 242.882 48.2025 242.906 48.2094C242.931 48.2164 242.954 48.2281 242.974 48.244C242.994 48.26 243.011 48.2797 243.024 48.3021L243.637 49.3755L243.294 49.5763L242.681 48.5079C242.667 48.4847 242.657 48.4588 242.653 48.4318C242.65 48.4049 242.651 48.3774 242.658 48.3511C242.666 48.3248 242.678 48.3003 242.695 48.2791C242.713 48.2579 242.734 48.2404 242.758 48.2278Z" fill="#ABDEF0"/>
<path d="M244.404 47.2883C244.445 47.2651 244.492 47.2572 244.538 47.266C244.566 47.2712 244.592 47.2826 244.615 47.2994C244.638 47.3161 244.656 47.3377 244.67 47.3627L245.29 48.4434L244.945 48.6343L244.33 47.5585C244.304 47.5128 244.297 47.4587 244.311 47.408C244.325 47.3573 244.358 47.3143 244.404 47.2883Z" fill="#ABDEF0"/>
<path d="M246.052 46.3538C246.093 46.332 246.139 46.3241 246.184 46.3315C246.212 46.3369 246.239 46.3483 246.262 46.365C246.285 46.3817 246.304 46.4033 246.318 46.4281L246.941 47.5139L246.599 47.7097L245.978 46.624C245.952 46.5783 245.945 46.5242 245.959 46.4735C245.973 46.4228 246.007 46.3798 246.052 46.3538Z" fill="#ABDEF0"/>
<path d="M247.699 45.4094C247.74 45.3874 247.787 45.3795 247.833 45.3871C247.861 45.3928 247.887 45.4044 247.909 45.4211C247.932 45.4377 247.951 45.4591 247.965 45.4837L248.595 46.5794L248.255 46.7702L247.624 45.6771C247.599 45.6316 247.593 45.5781 247.607 45.528C247.621 45.478 247.654 45.4354 247.699 45.4094Z" fill="#ABDEF0"/>
<path d="M249.347 44.4724C249.387 44.4486 249.433 44.4398 249.479 44.4476C249.506 44.453 249.533 44.4642 249.556 44.4805C249.579 44.4967 249.598 44.5176 249.613 44.5418L250.248 45.6449L249.903 45.8407L249.273 44.7376C249.26 44.7154 249.252 44.6908 249.249 44.6654C249.245 44.64 249.247 44.6141 249.254 44.5895C249.261 44.5648 249.273 44.5417 249.289 44.5216C249.305 44.5015 249.325 44.4848 249.347 44.4724Z" fill="#ABDEF0"/>
<path d="M250.991 43.5279C251.03 43.5055 251.076 43.4985 251.12 43.5081C251.148 43.5129 251.175 43.5238 251.199 43.5401C251.222 43.5564 251.242 43.5776 251.257 43.6023L251.892 44.7153L251.552 44.9111L250.914 43.7981C250.889 43.752 250.883 43.6979 250.897 43.6474C250.912 43.5969 250.945 43.554 250.991 43.5279Z" fill="#ABDEF0"/>
<path d="M252.641 42.5885C252.681 42.5653 252.728 42.5574 252.773 42.5662C252.801 42.5716 252.828 42.583 252.851 42.5997C252.874 42.6164 252.893 42.638 252.907 42.6629L253.548 43.7833L253.207 43.9766L252.567 42.8587C252.541 42.813 252.534 42.7589 252.548 42.7082C252.562 42.6576 252.596 42.6145 252.641 42.5885Z" fill="#ABDEF0"/>
<path d="M254.285 41.6441C254.327 41.622 254.375 41.6142 254.422 41.6217C254.449 41.6277 254.476 41.6394 254.499 41.6561C254.522 41.6727 254.541 41.6939 254.556 41.7184L255.201 42.8487L254.856 43.0396L254.213 41.9142C254.188 41.8687 254.181 41.815 254.194 41.7646C254.208 41.7141 254.24 41.6709 254.285 41.6441Z" fill="#ABDEF0"/>
<path d="M255.931 40.7095C255.973 40.6879 256.021 40.68 256.068 40.6872C256.096 40.6926 256.122 40.7041 256.146 40.7208C256.169 40.7375 256.188 40.759 256.202 40.7839L256.85 41.9192L256.512 42.1125L255.862 40.9772C255.849 40.9552 255.84 40.9307 255.836 40.9052C255.832 40.8797 255.834 40.8537 255.84 40.8288C255.847 40.8038 255.858 40.7804 255.874 40.76C255.889 40.7395 255.909 40.7223 255.931 40.7095Z" fill="#ABDEF0"/>
<path d="M257.58 39.7701C257.622 39.7481 257.67 39.7403 257.716 39.7478C257.744 39.7538 257.77 39.7652 257.793 39.7813C257.816 39.7975 257.835 39.8181 257.85 39.842L258.503 40.9897L258.166 41.1805L257.51 40.0378C257.497 40.0157 257.488 39.9912 257.484 39.9658C257.481 39.9403 257.482 39.9143 257.489 39.8893C257.495 39.8644 257.506 39.841 257.522 39.8205C257.538 39.8 257.557 39.7829 257.58 39.7701Z" fill="#ABDEF0"/>
<path d="M259.225 38.8306C259.267 38.8086 259.315 38.8007 259.362 38.8083C259.389 38.8141 259.416 38.8255 259.439 38.8417C259.462 38.8578 259.481 38.8785 259.496 38.9025L260.159 40.0551L259.814 40.2509L259.156 39.0983C259.13 39.0536 259.122 39.0003 259.135 38.9501C259.148 38.8999 259.181 38.8569 259.225 38.8306Z" fill="#ABDEF0"/>
<path d="M260.874 37.8887C260.916 37.8667 260.964 37.8588 261.011 37.8664C261.039 37.8718 261.065 37.8832 261.088 37.8999C261.111 37.9166 261.131 37.9382 261.145 37.963L261.807 39.1256L261.467 39.3165L260.804 38.1589C260.778 38.1138 260.771 38.0601 260.784 38.0095C260.797 37.9589 260.829 37.9155 260.874 37.8887Z" fill="#ABDEF0"/>
<path d="M262.522 36.9492C262.563 36.9272 262.61 36.9193 262.656 36.9269C262.684 36.9323 262.711 36.9437 262.734 36.9604C262.757 36.9771 262.777 36.9986 262.79 37.0235L263.461 38.196L263.118 38.3869L262.45 37.2194C262.424 37.174 262.417 37.1201 262.431 37.0694C262.444 37.0188 262.477 36.9756 262.522 36.9492Z" fill="#ABDEF0"/>
<path d="M89.006 33.5557C81.6352 30.3332 72.9262 33.8978 69.5052 41.5399L69.463 41.6391C68.5509 43.7017 68.0937 45.9361 68.1224 48.1906L73.9441 50.7413C73.228 48.4493 73.3709 45.9754 74.3462 43.7808C74.3611 43.7461 74.376 43.7139 74.3934 43.6816C76.5756 38.8504 82.0895 36.5947 86.7717 38.6422C91.4538 40.6897 93.5194 46.2745 91.434 51.1503C91.4229 51.185 91.4096 51.2189 91.3943 51.2519C90.4386 53.4578 88.7116 55.2411 86.5358 56.2691L92.3525 58.8098C94.0345 57.3052 95.373 55.4572 96.2775 53.3912L96.3197 53.292C99.6415 45.6102 96.3793 36.7856 89.006 33.5557Z" fill="#89CAE0"/>
<path d="M67.373 40.6054L64.6992 46.6909L95.7814 60.312L98.4576 54.2265L67.373 40.6054Z" fill="#89CAE0"/>
<path d="M90.9053 58.1753L92.1764 55.2775C92.1847 55.2573 92.1971 55.239 92.2127 55.2236C92.2283 55.2082 92.2468 55.1961 92.2672 55.188C92.2876 55.18 92.3094 55.176 92.3313 55.1765C92.3532 55.177 92.3748 55.1818 92.3948 55.1908C92.4152 55.1994 92.4336 55.212 92.449 55.2278C92.4644 55.2436 92.4765 55.2623 92.4846 55.2829C92.4927 55.3034 92.4966 55.3254 92.4961 55.3474C92.4956 55.3695 92.4907 55.3912 92.4817 55.4114L91.2106 58.3017L90.9053 58.1753Z" fill="#ABDEF0"/>
<path d="M86.0293 56.0385L87.3004 53.1482C87.3088 53.128 87.3211 53.1096 87.3367 53.0943C87.3523 53.0789 87.3709 53.0668 87.3913 53.0587C87.4116 53.0506 87.4334 53.0467 87.4553 53.0472C87.4773 53.0476 87.4989 53.0525 87.5189 53.0614C87.5392 53.0701 87.5576 53.0827 87.5731 53.0985C87.5885 53.1143 87.6006 53.133 87.6087 53.1535C87.6168 53.1741 87.6207 53.196 87.6202 53.2181C87.6197 53.2402 87.6148 53.2619 87.6058 53.2821L86.3347 56.1724L86.0293 56.0385Z" fill="#ABDEF0"/>
<path d="M81.1533 53.9018L82.422 51.0115C82.4303 50.9913 82.4427 50.9729 82.4583 50.9575C82.4739 50.9422 82.4925 50.9301 82.5128 50.922C82.5332 50.9139 82.555 50.91 82.5769 50.9104C82.5988 50.9109 82.6204 50.9158 82.6404 50.9247C82.6608 50.9334 82.6792 50.9459 82.6946 50.9617C82.7101 50.9776 82.7222 50.9963 82.7302 51.0168C82.7383 51.0374 82.7422 51.0593 82.7417 51.0814C82.7412 51.1034 82.7363 51.1252 82.7273 51.1453L81.4587 54.0381L81.1533 53.9018Z" fill="#ABDEF0"/>
<path d="M76.2773 51.7651L77.5484 48.8748C77.5568 48.8545 77.5692 48.8362 77.5848 48.8208C77.6004 48.8054 77.6189 48.7934 77.6393 48.7853C77.6597 48.7772 77.6814 48.7732 77.7034 48.7737C77.7253 48.7742 77.7469 48.7791 77.7669 48.788C77.7872 48.7966 77.8057 48.8092 77.8211 48.825C77.8365 48.8408 77.8486 48.8596 77.8567 48.8801C77.8648 48.9007 77.8687 48.9226 77.8682 48.9447C77.8677 48.9667 77.8628 48.9885 77.8538 49.0086L76.5827 51.8989L76.2773 51.7651Z" fill="#ABDEF0"/>
<path d="M71.4023 49.6283L72.6734 46.738C72.6818 46.7178 72.6942 46.6995 72.7098 46.6841C72.7254 46.6687 72.7439 46.6566 72.7643 46.6485C72.7847 46.6405 72.8065 46.6365 72.8284 46.637C72.8503 46.6375 72.8719 46.6423 72.8919 46.6513C72.9122 46.6599 72.9307 46.6725 72.9461 46.6883C72.9615 46.7041 72.9736 46.7229 72.9817 46.7434C72.9898 46.7639 72.9937 46.7859 72.9932 46.8079C72.9927 46.83 72.9878 46.8517 72.9788 46.8719L71.7077 49.7622L71.4023 49.6283Z" fill="#ABDEF0"/>
<path d="M66.5332 47.4916L67.8043 44.6013C67.8127 44.581 67.825 44.5627 67.8406 44.5473C67.8562 44.5319 67.8748 44.5199 67.8951 44.5118C67.9155 44.5037 67.9373 44.4997 67.9592 44.5002C67.9811 44.5007 68.0028 44.5055 68.0228 44.5145C68.0431 44.5231 68.0615 44.5357 68.0769 44.5515C68.0924 44.5673 68.1045 44.5861 68.1126 44.6066C68.1207 44.6271 68.1246 44.6491 68.1241 44.6712C68.1236 44.6932 68.1187 44.715 68.1096 44.7351L66.8386 47.6254L66.5332 47.4916Z" fill="#ABDEF0"/>
<path d="M93.3457 59.2437L94.0905 57.5705C94.1083 57.53 94.1414 57.4983 94.1826 57.4823C94.203 57.4743 94.2248 57.4705 94.2467 57.4709C94.2685 57.4714 94.2901 57.4761 94.3102 57.4849C94.3302 57.4937 94.3484 57.5064 94.3635 57.5222C94.3787 57.5379 94.3906 57.5565 94.3985 57.5769C94.4065 57.5973 94.4103 57.619 94.4099 57.6409C94.4094 57.6627 94.4046 57.6843 94.3958 57.7043L93.6511 59.3775L93.3457 59.2437Z" fill="#ABDEF0"/>
<path d="M88.4678 57.1069L89.2125 55.4337C89.2303 55.3932 89.2635 55.3615 89.3047 55.3455C89.3251 55.3375 89.3468 55.3337 89.3687 55.3341C89.3906 55.3346 89.4122 55.3394 89.4323 55.3482C89.4523 55.3569 89.4704 55.3696 89.4856 55.3854C89.5007 55.4012 89.5126 55.4198 89.5206 55.4401C89.5285 55.4605 89.5324 55.4822 89.5319 55.5041C89.5315 55.526 89.5267 55.5475 89.5179 55.5675L88.7731 57.2407L88.4678 57.1069Z" fill="#ABDEF0"/>
<path d="M83.5918 54.9701L84.3366 53.297C84.3454 53.2769 84.358 53.2588 84.3738 53.2437C84.3897 53.2286 84.4083 53.2167 84.4287 53.2088C84.4491 53.2008 84.4709 53.197 84.4928 53.1974C84.5146 53.1979 84.5362 53.2026 84.5563 53.2114C84.5763 53.2202 84.5944 53.2329 84.6096 53.2486C84.6248 53.2644 84.6367 53.283 84.6446 53.3034C84.6526 53.3238 84.6564 53.3455 84.656 53.3674C84.6555 53.3892 84.6507 53.4108 84.6419 53.4308L83.8972 55.104L83.5918 54.9701Z" fill="#ABDEF0"/>
<path d="M78.7158 52.8334L79.4606 51.1602C79.4694 51.1402 79.4821 51.1221 79.4979 51.107C79.5137 51.0919 79.5323 51.08 79.5527 51.072C79.5731 51.0641 79.5949 51.0602 79.6168 51.0607C79.6387 51.0612 79.6602 51.0659 79.6803 51.0747C79.7003 51.0835 79.7185 51.0961 79.7336 51.1119C79.7488 51.1277 79.7607 51.1463 79.7686 51.1667C79.7766 51.1871 79.7804 51.2088 79.78 51.2307C79.7795 51.2525 79.7747 51.2741 79.7659 51.2941L79.0212 52.9673L78.7158 52.8334Z" fill="#ABDEF0"/>
<path d="M73.8398 50.6967L74.5846 49.0235C74.5934 49.0035 74.6061 48.9854 74.6219 48.9703C74.6377 48.9551 74.6563 48.9433 74.6767 48.9353C74.6971 48.9274 74.7189 48.9235 74.7408 48.924C74.7627 48.9244 74.7843 48.9292 74.8043 48.938C74.8244 48.9468 74.8425 48.9594 74.8576 48.9752C74.8728 48.991 74.8847 49.0096 74.8926 49.03C74.9006 49.0503 74.9045 49.0721 74.904 49.0939C74.9035 49.1158 74.8988 49.1373 74.89 49.1574L74.1452 50.8306L73.8398 50.6967Z" fill="#ABDEF0"/>
<path d="M68.9639 48.5599L69.7086 46.8867C69.7264 46.8463 69.7595 46.8146 69.8008 46.7985C69.8212 46.7906 69.8429 46.7867 69.8648 46.7872C69.8867 46.7877 69.9083 46.7924 69.9283 46.8012C69.9484 46.81 69.9665 46.8226 69.9817 46.8384C69.9968 46.8542 70.0087 46.8728 70.0167 46.8932C70.0246 46.9136 70.0285 46.9353 70.028 46.9571C70.0276 46.979 70.0228 47.0006 70.014 47.0206L69.2692 48.6938L68.9639 48.5599Z" fill="#ABDEF0"/>
</svg>
