<svg width="252" height="250" viewBox="0 0 252 250" fill="none" xmlns="http://www.w3.org/2000/svg">
<g clip-path="url(#clip0_125_315)">
<path d="M221.847 214.025C216.746 219.382 211.913 222.84 208.104 225.571C163.266 257.666 110.212 248.311 98.9368 246.026C82.2906 242.652 50.1008 236.13 26.832 208.83C-8.37204 167.529 -2.89043 102.458 24.4156 59.5036C29.4112 51.6465 55.7954 8.03573 109.421 1.04466C141.875 -3.18748 179.707 5.34913 207.101 28.2473C264.607 76.3134 260.514 173.414 221.847 214.025Z" fill="url(#paint0_linear_125_315)" fill-opacity="0.7"/>
<g opacity="0.3">
<path opacity="0.3" d="M208.615 18.8786C208.523 18.7446 208.485 18.5817 208.506 18.4211C208.528 18.2606 208.609 18.1137 208.733 18.0089C209.299 17.5303 209.896 17.0687 210.504 16.6375C210.574 16.5876 210.654 16.5519 210.738 16.5327C210.822 16.5134 210.909 16.5109 210.994 16.5252C211.079 16.5396 211.161 16.5705 211.234 16.6163C211.307 16.6621 211.37 16.7217 211.42 16.7919L211.428 16.8027C211.525 16.9446 211.562 17.1187 211.532 17.2876C211.501 17.4565 211.406 17.6068 211.265 17.7062C210.687 18.1161 210.122 18.5553 209.583 19.0098C209.517 19.0655 209.441 19.1078 209.359 19.1341C209.277 19.1605 209.19 19.1704 209.104 19.1634C209.018 19.1563 208.934 19.1324 208.857 19.0931C208.781 19.0537 208.712 18.9996 208.657 18.9339C208.641 18.9163 208.627 18.8978 208.615 18.8786ZM213.369 15.6937C213.355 15.6722 213.342 15.6499 213.33 15.6268C213.29 15.5504 213.265 15.4669 213.258 15.381C213.25 15.2952 213.259 15.2086 213.285 15.1264C213.311 15.0441 213.353 14.9678 213.408 14.9017C213.464 14.8355 213.532 14.781 213.608 14.7411C214.27 14.3973 214.951 14.0777 215.637 13.7919C215.797 13.7284 215.976 13.7302 216.135 13.7969C216.294 13.8636 216.421 13.9899 216.487 14.1486C216.554 14.3073 216.555 14.4858 216.491 14.6455C216.427 14.8052 216.303 14.9335 216.145 15.0027C215.493 15.2705 214.845 15.5777 214.217 15.9044C214.074 15.9792 213.909 15.999 213.752 15.9602C213.596 15.9213 213.459 15.8265 213.368 15.6937H213.369ZM218.711 13.6321C218.669 13.57 218.639 13.5011 218.621 13.4286C218.599 13.3451 218.593 13.258 218.605 13.1724C218.616 13.0868 218.645 13.0043 218.688 12.9296C218.732 12.855 218.79 12.7896 218.859 12.7373C218.928 12.6851 219.006 12.6469 219.09 12.625C219.81 12.4366 220.547 12.2768 221.282 12.1509C221.454 12.1218 221.631 12.1621 221.773 12.263C221.916 12.3638 222.012 12.517 222.041 12.6888C222.07 12.8606 222.03 13.037 221.929 13.179C221.828 13.3211 221.674 13.4173 221.502 13.4464C220.805 13.5661 220.105 13.7143 219.421 13.8928C219.29 13.9281 219.151 13.922 219.023 13.8753C218.896 13.8286 218.786 13.7437 218.709 13.6321H218.711ZM224.379 12.8134C224.312 12.7161 224.273 12.6027 224.265 12.4849C224.257 12.3672 224.281 12.2495 224.335 12.1443C224.389 12.0392 224.47 11.9503 224.569 11.8872C224.669 11.8241 224.785 11.789 224.903 11.7857C225.647 11.7634 226.402 11.7723 227.145 11.8125C227.233 11.8143 227.32 11.8339 227.4 11.8699C227.481 11.906 227.553 11.9579 227.613 12.0224C227.673 12.087 227.719 12.1629 227.749 12.2457C227.779 12.3285 227.792 12.4164 227.788 12.5043C227.783 12.5922 227.76 12.6783 227.721 12.7573C227.683 12.8363 227.628 12.9068 227.562 12.9645C227.495 13.0221 227.417 13.0658 227.333 13.0929C227.249 13.12 227.161 13.13 227.073 13.1223C226.367 13.0839 225.651 13.0759 224.943 13.0973C224.832 13.1014 224.723 13.0775 224.624 13.0278C224.525 12.9782 224.44 12.9044 224.377 12.8134H224.379ZM230.089 13.2768C230.016 13.1693 229.976 13.0425 229.975 12.9124C229.974 12.7824 230.012 12.655 230.084 12.5464C230.155 12.4379 230.258 12.353 230.378 12.3026C230.498 12.2522 230.63 12.2385 230.758 12.2634C231.488 12.4053 232.221 12.5812 232.939 12.7848C233.099 12.8381 233.233 12.9511 233.313 13.1004C233.392 13.2497 233.41 13.4238 233.364 13.5864C233.318 13.7489 233.211 13.8875 233.065 13.9732C232.919 14.0589 232.745 14.0851 232.581 14.0464C231.9 13.8527 231.202 13.6893 230.51 13.5509C230.425 13.5352 230.343 13.5029 230.271 13.4559C230.198 13.4089 230.136 13.348 230.087 13.2768H230.089ZM235.553 14.9884C235.473 14.8708 235.434 14.7307 235.441 14.5891C235.448 14.4475 235.501 14.312 235.592 14.2028C235.682 14.0936 235.806 14.0167 235.944 13.9835C236.082 13.9503 236.228 13.9627 236.358 14.0187C237.038 14.3187 237.715 14.6509 238.368 15.008C238.517 15.0936 238.627 15.2341 238.674 15.3994C238.72 15.5647 238.7 15.7416 238.617 15.8921C238.535 16.0427 238.396 16.155 238.231 16.2048C238.067 16.2547 237.889 16.2382 237.736 16.1589C237.116 15.8196 236.474 15.5036 235.827 15.2187C235.716 15.169 235.621 15.0892 235.553 14.9884ZM250.423 33.9652C250.37 33.8879 250.335 33.8002 250.319 33.708C250.198 33.0134 250.045 32.3152 249.864 31.6321C249.819 31.464 249.844 31.2851 249.931 31.1348C250.019 30.9846 250.163 30.8752 250.332 30.8308C250.5 30.7864 250.679 30.8106 250.83 30.8981C250.981 30.9856 251.09 31.1292 251.135 31.2973C251.325 32.0161 251.487 32.7518 251.615 33.483C251.64 33.6306 251.614 33.7825 251.541 33.9135C251.468 34.0444 251.353 34.1465 251.214 34.2029C251.074 34.2592 250.92 34.2663 250.776 34.2231C250.633 34.1798 250.508 34.0888 250.423 33.9652ZM240.498 17.8643C240.413 17.7359 240.375 17.5817 240.392 17.4286C240.41 17.2755 240.48 17.1333 240.592 17.0269C240.703 16.9204 240.849 16.8565 241.003 16.8464C241.157 16.8363 241.31 16.8805 241.434 16.9714C242.031 17.4178 242.616 17.8893 243.172 18.3821C243.301 18.4982 243.378 18.66 243.387 18.8325C243.397 19.005 243.338 19.1743 243.223 19.3036C243.108 19.4329 242.947 19.5118 242.774 19.5231C242.601 19.5345 242.431 19.4774 242.3 19.3643C241.771 18.8964 241.216 18.4455 240.649 18.025C240.589 17.9803 240.538 17.926 240.497 17.8643H240.498ZM248.812 28.4821C248.786 28.4462 248.765 28.4075 248.748 28.3669C248.474 27.7161 248.168 27.0696 247.84 26.4437C247.759 26.2898 247.742 26.1101 247.794 25.9442C247.846 25.7782 247.962 25.6397 248.116 25.5589C248.27 25.4782 248.451 25.4619 248.617 25.5136C248.783 25.5653 248.922 25.6809 249.003 25.8348C249.349 26.4928 249.671 27.1741 249.959 27.858C250.023 28.008 250.03 28.1765 249.976 28.3307C249.923 28.485 249.813 28.6137 249.67 28.6919C249.526 28.77 249.359 28.7919 249.2 28.7533C249.041 28.7147 248.902 28.6183 248.811 28.483L248.812 28.4821ZM244.675 21.7705C244.582 21.6317 244.546 21.4628 244.574 21.2982C244.601 21.1337 244.691 20.9858 244.824 20.8847C244.957 20.7836 245.124 20.7369 245.29 20.754C245.456 20.7711 245.61 20.8507 245.719 20.9768C246.201 21.5419 246.665 22.1375 247.098 22.7402L247.106 22.7518C247.205 22.8944 247.244 23.0708 247.214 23.242C247.183 23.4132 247.085 23.5653 246.942 23.6647C246.799 23.7642 246.623 23.8029 246.451 23.7723C246.279 23.7418 246.127 23.6444 246.027 23.5018C245.616 22.9268 245.175 22.3634 244.717 21.8268C244.702 21.8087 244.688 21.7896 244.675 21.7696V21.7705Z" fill="#91B3FA"/>
<path opacity="0.3" d="M250.798 38.5553C250.723 38.4451 250.683 38.3141 250.684 38.1803C250.684 37.8428 250.684 37.4982 250.673 37.158C250.67 37.072 250.685 36.9862 250.715 36.9057C250.746 36.8251 250.792 36.7514 250.851 36.6886C250.91 36.6258 250.981 36.5753 251.06 36.5399C251.138 36.5045 251.223 36.4848 251.309 36.4821C251.396 36.4794 251.482 36.4937 251.562 36.5242C251.643 36.5546 251.717 36.6006 251.78 36.6596C251.843 36.7185 251.894 36.7892 251.929 36.8677C251.965 36.9462 251.984 37.0309 251.987 37.117C251.999 37.4741 252.002 37.8366 251.999 38.1884C251.998 38.328 251.952 38.4636 251.868 38.5754C251.784 38.6871 251.667 38.7692 251.533 38.8098C251.399 38.8503 251.255 38.8471 251.123 38.8007C250.991 38.7543 250.877 38.6671 250.798 38.5518V38.5553Z" fill="#91B3FA"/>
</g>
<g opacity="0.3">
<path opacity="0.3" d="M242.801 56.8946C242.713 56.7661 242.674 56.6104 242.69 56.4554C242.707 56.3005 242.778 56.1564 242.891 56.0491C243.137 55.817 243.382 55.5759 243.62 55.3348C243.681 55.2727 243.752 55.2231 243.832 55.1887C243.911 55.1544 243.997 55.136 244.083 55.1345C244.17 55.1331 244.256 55.1488 244.337 55.1805C244.417 55.2123 244.491 55.2596 244.553 55.3196C244.615 55.3797 244.665 55.4515 244.699 55.5307C244.734 55.61 244.752 55.6953 244.754 55.7817C244.755 55.8681 244.739 55.9539 244.708 56.0342C244.676 56.1146 244.628 56.1879 244.568 56.25C244.317 56.5063 244.059 56.7607 243.799 57.0054C243.737 57.0645 243.663 57.1108 243.582 57.1416C243.502 57.1723 243.416 57.1869 243.329 57.1845C243.243 57.1821 243.158 57.1627 243.08 57.1275C243.001 57.0924 242.93 57.042 242.87 56.9795C242.845 56.9532 242.822 56.9248 242.801 56.8946Z" fill="#91B3FA"/>
<path opacity="0.3" d="M204.055 52.7679C203.885 52.5185 203.718 52.2652 203.555 52.008C203.506 51.9353 203.472 51.8535 203.455 51.7675C203.439 51.6815 203.439 51.593 203.457 51.5073C203.476 51.4216 203.511 51.3403 203.561 51.2683C203.611 51.1963 203.675 51.1351 203.749 51.0881C203.823 51.0412 203.906 51.0096 203.992 50.9951C204.079 50.9806 204.168 50.9836 204.253 51.0039C204.339 51.0241 204.419 51.0612 204.49 51.113C204.561 51.1648 204.621 51.2302 204.666 51.3054C205.042 51.8982 205.442 52.475 205.859 53.025C205.915 53.0934 205.956 53.1723 205.98 53.2568C206.005 53.3414 206.012 53.43 206.001 53.5174C205.99 53.6047 205.962 53.689 205.918 53.7652C205.874 53.8415 205.815 53.9081 205.745 53.9612C205.674 54.0142 205.594 54.0527 205.508 54.0741C205.423 54.0956 205.334 54.0997 205.247 54.0861C205.16 54.0726 205.076 54.0417 205.001 53.9953C204.926 53.9489 204.861 53.888 204.811 53.8161C204.553 53.4732 204.299 53.125 204.055 52.7679ZM201.902 48.9607C201.881 48.9298 201.862 48.8973 201.846 48.8634C201.541 48.1982 201.261 47.5125 201.013 46.825C200.984 46.744 200.971 46.658 200.975 46.5719C200.979 46.4858 201 46.4014 201.036 46.3234C201.073 46.2453 201.125 46.1753 201.188 46.1172C201.252 46.0591 201.327 46.0141 201.408 45.9848C201.489 45.9555 201.575 45.9424 201.662 45.9464C201.748 45.9503 201.833 45.9711 201.911 46.0077C201.989 46.0443 202.059 46.0958 202.117 46.1595C202.176 46.2231 202.221 46.2976 202.25 46.3786C202.485 47.0313 202.752 47.6821 203.042 48.3152C203.112 48.4646 203.122 48.6348 203.072 48.7917C203.021 48.9486 202.913 49.0808 202.77 49.1619C202.626 49.243 202.457 49.2671 202.296 49.2293C202.135 49.1915 201.994 49.0946 201.902 48.958V48.9607ZM207.086 56.4152C206.992 56.2802 206.953 56.1153 206.976 55.9529C206.998 55.7905 207.081 55.6424 207.208 55.538C207.334 55.4335 207.496 55.3801 207.66 55.3885C207.824 55.3968 207.979 55.4663 208.094 55.583C208.586 56.0732 209.104 56.5491 209.636 56.9982C209.702 57.0538 209.756 57.1218 209.796 57.1983C209.836 57.2748 209.86 57.3584 209.867 57.4442C209.874 57.53 209.864 57.6164 209.838 57.6984C209.812 57.7805 209.77 57.8565 209.714 57.9223C209.658 57.9881 209.59 58.0423 209.514 58.0818C209.437 58.1213 209.353 58.1453 209.267 58.1526C209.181 58.1598 209.094 58.15 209.012 58.1238C208.93 58.0977 208.854 58.0556 208.788 58C208.227 57.5277 207.681 57.0268 207.164 56.5098C207.135 56.4811 207.108 56.4494 207.085 56.4152H207.086ZM200.134 43.6196C200.085 43.5489 200.052 43.4694 200.034 43.3857C199.883 42.6714 199.76 41.9393 199.67 41.2143C199.655 41.0449 199.707 40.8764 199.814 40.7443C199.921 40.6121 200.076 40.5266 200.245 40.5058C200.414 40.485 200.584 40.5304 200.721 40.6326C200.857 40.7348 200.948 40.8857 200.975 41.0536C201.064 41.742 201.177 42.4357 201.32 43.1152C201.351 43.2637 201.33 43.4183 201.259 43.5527C201.189 43.6871 201.074 43.7931 200.934 43.8525C200.794 43.912 200.638 43.9213 200.492 43.8788C200.346 43.8364 200.219 43.7448 200.134 43.6196ZM211.483 59.9277C211.398 59.803 211.359 59.6528 211.372 59.5026C211.385 59.3523 211.449 59.211 211.554 59.1025C211.659 58.9941 211.799 58.925 211.949 58.907C212.099 58.889 212.25 58.9231 212.378 59.0036C212.965 59.3741 213.576 59.7241 214.193 60.0455C214.339 60.1306 214.446 60.2682 214.492 60.4298C214.539 60.5915 214.521 60.7648 214.443 60.9139C214.365 61.063 214.233 61.1765 214.074 61.2309C213.914 61.2853 213.74 61.2765 213.587 61.2063C212.936 60.8688 212.292 60.4991 211.675 60.1098C211.599 60.0631 211.533 60.0011 211.482 59.9277H211.483ZM216.547 62.3929C216.469 62.2784 216.429 62.1423 216.433 62.004C216.438 61.8656 216.485 61.7321 216.57 61.6226C216.655 61.513 216.772 61.433 216.905 61.394C217.039 61.355 217.181 61.359 217.311 61.4054C217.967 61.6393 218.64 61.8518 219.312 62.0304C219.397 62.0506 219.478 62.0877 219.549 62.1395C219.619 62.1914 219.679 62.2569 219.724 62.3321C219.769 62.4074 219.799 62.4909 219.811 62.5777C219.823 62.6646 219.818 62.753 219.795 62.8377C219.773 62.9225 219.733 63.0018 219.68 63.0711C219.626 63.1404 219.558 63.1982 219.482 63.2411C219.405 63.2841 219.321 63.3112 219.233 63.321C219.146 63.3308 219.058 63.3231 218.973 63.2982C218.266 63.1098 217.557 62.8902 216.868 62.6438C216.737 62.5963 216.624 62.5085 216.546 62.3929H216.547ZM222.029 63.6973C221.957 63.5929 221.918 63.4701 221.915 63.3438C221.912 63.2174 221.945 63.0929 222.011 62.9851C222.077 62.8773 222.173 62.7909 222.288 62.7362C222.402 62.6815 222.529 62.6609 222.655 62.6768C223.347 62.7661 224.049 62.8214 224.744 62.85C224.832 62.8507 224.919 62.8692 225 62.9042C225.081 62.9392 225.154 62.99 225.215 63.0538C225.276 63.1175 225.323 63.1927 225.354 63.2751C225.385 63.3574 225.399 63.4451 225.396 63.533C225.392 63.6209 225.371 63.7072 225.333 63.7867C225.295 63.8663 225.242 63.9374 225.176 63.996C225.11 64.0545 225.033 64.0993 224.95 64.1276C224.867 64.1559 224.778 64.1672 224.69 64.1607C223.959 64.1304 223.22 64.0714 222.492 63.9821C222.399 63.9707 222.309 63.9393 222.229 63.8902C222.149 63.841 222.08 63.7752 222.028 63.6973H222.029ZM227.667 63.7777C227.603 63.6834 227.565 63.5743 227.556 63.4609C227.547 63.3475 227.568 63.2338 227.617 63.1309C227.665 63.028 227.739 62.9394 227.832 62.8737C227.925 62.808 228.034 62.7676 228.147 62.7563C228.841 62.6893 229.539 62.5929 230.224 62.4679C230.395 62.4366 230.572 62.4746 230.716 62.5735C230.859 62.6723 230.957 62.824 230.988 62.9951C231.02 63.1662 230.982 63.3427 230.883 63.4858C230.784 63.6288 230.631 63.7268 230.46 63.758C229.744 63.8893 229.004 63.992 228.274 64.0616C228.156 64.0736 228.037 64.0536 227.929 64.0036C227.822 63.9536 227.73 63.8756 227.663 63.7777H227.667ZM233.186 62.6223C233.129 62.5383 233.092 62.4422 233.078 62.3415C233.064 62.2408 233.074 62.1382 233.107 62.042C233.139 61.9457 233.194 61.8583 233.266 61.7867C233.339 61.7152 233.427 61.6613 233.523 61.6295C234.183 61.4125 234.843 61.1643 235.483 60.892C235.563 60.8549 235.65 60.8342 235.738 60.8312C235.826 60.8282 235.914 60.8429 235.997 60.8744C236.079 60.906 236.154 60.9537 236.218 61.0149C236.281 61.076 236.332 61.1492 236.366 61.2302C236.401 61.3112 236.418 61.3983 236.419 61.4863C236.419 61.5743 236.401 61.6614 236.367 61.7425C236.332 61.8236 236.282 61.8969 236.219 61.9582C236.155 62.0194 236.08 62.0674 235.998 62.0991C235.324 62.3857 234.63 62.6464 233.935 62.875C233.799 62.9203 233.652 62.9201 233.516 62.8745C233.38 62.8289 233.263 62.7404 233.182 62.6223H233.186ZM238.311 60.2866L238.29 60.2518C238.201 60.1025 238.175 59.9239 238.217 59.7553C238.26 59.5868 238.368 59.4419 238.517 59.3527C238.958 59.0911 239.395 58.817 239.818 58.525C239.971 58.4202 240.123 58.3146 240.272 58.208C240.414 58.107 240.591 58.0663 240.763 58.0949C240.935 58.1235 241.088 58.2192 241.19 58.3607C241.241 58.4305 241.277 58.5098 241.297 58.5939C241.317 58.6779 241.32 58.7652 241.306 58.8504C241.292 58.9357 241.261 59.0172 241.214 59.0903C241.168 59.1633 241.108 59.2264 241.037 59.2759C240.879 59.3884 240.72 59.4994 240.559 59.6089C240.111 59.9116 239.654 60.2045 239.191 60.4795C239.047 60.5661 238.875 60.5943 238.711 60.5585C238.547 60.5226 238.402 60.4253 238.308 60.2866H238.311Z" fill="#91B3FA"/>
<path opacity="0.3" d="M199.588 38.0063C199.512 37.8948 199.472 37.7626 199.473 37.6277C199.479 37.2706 199.491 36.9134 199.511 36.5563C199.513 36.4683 199.533 36.3817 199.569 36.3015C199.605 36.2213 199.657 36.1492 199.722 36.0895C199.786 36.0298 199.863 35.9836 199.946 35.9538C200.029 35.924 200.117 35.9112 200.205 35.916C200.293 35.9209 200.379 35.9433 200.458 35.9821C200.537 36.0208 200.608 36.075 200.665 36.1415C200.723 36.208 200.767 36.2853 200.794 36.369C200.821 36.4527 200.831 36.541 200.824 36.6286C200.805 36.9688 200.793 37.3125 200.789 37.6491C200.786 37.7883 200.739 37.9229 200.655 38.0337C200.57 38.1444 200.453 38.2256 200.319 38.2653C200.185 38.3051 200.042 38.3014 199.911 38.2548C199.78 38.2083 199.666 38.1212 199.588 38.0063Z" fill="#91B3FA"/>
</g>
<path d="M206.388 34.45C206.369 34.5112 206.371 34.5766 206.392 34.637C206.413 34.6974 206.452 34.7497 206.504 34.7866L209.547 36.9536C209.444 38.7178 209.631 40.4868 210.099 42.1911L207.575 44.942C207.531 44.9894 207.504 45.0494 207.496 45.1136C207.488 45.1777 207.501 45.2427 207.532 45.2991L209.674 49.2277C209.705 49.2838 209.752 49.329 209.809 49.357C209.867 49.385 209.931 49.3944 209.994 49.3839L213.681 48.7688C214.86 50.0876 216.246 51.2061 217.785 52.0804L217.952 55.808C217.954 55.8717 217.977 55.933 218.016 55.9832C218.055 56.0335 218.11 56.0702 218.171 56.0884L222.473 57.358C222.534 57.3764 222.6 57.3752 222.66 57.3545C222.721 57.3339 222.773 57.2948 222.81 57.2429L224.982 54.2072C226.751 54.3095 228.524 54.1238 230.232 53.6572L232.989 56.1741C233.037 56.218 233.097 56.2458 233.161 56.2535C233.226 56.2612 233.291 56.2484 233.347 56.217L237.29 54.0804C237.346 54.0498 237.391 54.0026 237.419 53.9453C237.447 53.888 237.456 53.8235 237.445 53.7607L236.83 50.083C238.152 48.9074 239.273 47.5243 240.148 45.9884L243.885 45.8232C243.949 45.8203 244.01 45.7976 244.06 45.7582C244.111 45.7188 244.148 45.6648 244.166 45.6036L245.439 41.3116C245.457 41.2504 245.456 41.1851 245.435 41.1248C245.414 41.0646 245.375 41.0122 245.323 40.975L242.28 38.808C242.383 37.0442 242.196 35.2754 241.728 33.5714L244.251 30.8205C244.295 30.7732 244.323 30.7132 244.331 30.6491C244.338 30.5849 244.326 30.52 244.295 30.4634L242.153 26.5348C242.122 26.4787 242.075 26.4334 242.017 26.4054C241.96 26.3774 241.895 26.368 241.832 26.3786L238.145 26.9938C236.967 25.6745 235.581 24.556 234.041 23.6822L233.875 19.9545C233.873 19.8907 233.85 19.8294 233.81 19.7791C233.771 19.7288 233.717 19.6921 233.655 19.6741L229.351 18.4018C229.289 18.3834 229.224 18.3846 229.163 18.4053C229.103 18.426 229.05 18.465 229.013 18.517L226.84 21.5527C225.072 21.4504 223.299 21.6361 221.591 22.1027L218.833 19.5857C218.786 19.5427 218.727 19.5154 218.663 19.5077C218.6 19.5 218.536 19.5123 218.48 19.5429L214.537 21.6795C214.481 21.7098 214.436 21.757 214.408 21.8143C214.38 21.8716 214.37 21.9362 214.381 21.9991L214.997 25.6768C213.675 26.8525 212.554 28.2355 211.678 29.7714L207.941 29.9366C207.878 29.9396 207.816 29.9623 207.766 30.0017C207.715 30.041 207.679 30.0951 207.66 30.1563L206.388 34.45Z" fill="#91B3FA"/>
<path d="M222.185 40.4125C221.526 39.4498 221.267 38.2699 221.463 37.1207C221.658 35.9716 222.292 34.9428 223.233 34.2508C224.173 33.5588 225.345 33.2574 226.503 33.41C227.661 33.5627 228.715 34.1574 229.443 35.0693C230.171 35.9811 230.516 37.139 230.405 38.2993C230.295 39.4597 229.738 40.5321 228.851 41.2911C227.964 42.0501 226.817 42.4365 225.651 42.369C224.485 42.3016 223.39 41.7856 222.597 40.9295C222.447 40.7677 222.309 40.5949 222.185 40.4125ZM228.772 35.942C228.376 35.3593 227.81 34.9116 227.151 34.659C226.492 34.4064 225.772 34.3611 225.086 34.529C224.401 34.697 223.783 35.0702 223.317 35.5986C222.85 36.127 222.556 36.7852 222.476 37.4848C222.395 38.1844 222.531 38.8919 222.865 39.5122C223.199 40.1326 223.715 40.6361 224.345 40.9551C224.974 41.2742 225.686 41.3934 226.385 41.2969C227.084 41.2004 227.737 40.8927 228.256 40.4152C228.865 39.8549 229.252 39.0952 229.347 38.2742C229.442 37.4533 229.238 36.6256 228.772 35.942Z" fill="url(#paint1_linear_125_315)"/>
<path d="M216.856 44.1509C216.644 43.8393 216.445 43.5161 216.263 43.1803C216.205 43.075 216.149 42.9678 216.095 42.8607C215.829 42.3324 215.605 41.7836 215.427 41.2196L215.419 41.1964C215.413 41.175 215.405 41.1536 215.399 41.1312C215.386 41.0893 215.373 41.0464 215.361 41.0035C215.345 40.9504 215.347 40.8938 215.365 40.8417C215.384 40.7896 215.419 40.7446 215.464 40.7134C215.487 40.698 215.512 40.6863 215.539 40.6786C215.572 40.6688 215.607 40.6658 215.641 40.6695C215.676 40.6732 215.709 40.6837 215.739 40.7002C215.77 40.7168 215.796 40.7392 215.818 40.7661C215.84 40.7931 215.856 40.824 215.865 40.8571C216.474 42.9255 217.703 44.7583 219.387 46.1086C221.072 47.4589 223.13 48.262 225.286 48.4098C227.287 48.5514 229.286 48.1176 231.047 47.1598C231.366 46.9873 231.676 46.7987 231.976 46.5946C233.277 45.7022 234.362 44.5297 235.15 43.1636C235.937 41.7975 236.407 40.2725 236.526 38.701C236.644 37.1296 236.408 35.5516 235.834 34.0834C235.26 32.6151 234.363 31.294 233.21 30.2174C232.056 29.1408 230.675 28.336 229.169 27.8624C227.662 27.3888 226.068 27.2585 224.504 27.4809C222.941 27.7034 221.447 28.273 220.133 29.1478C218.819 30.0226 217.718 31.1803 216.913 32.5357C216.893 32.5689 216.866 32.5972 216.834 32.6187C216.784 32.6529 216.725 32.6691 216.665 32.6647C216.605 32.6604 216.549 32.6356 216.505 32.5947C216.461 32.5537 216.433 32.499 216.424 32.4397C216.416 32.3803 216.429 32.32 216.46 32.2687C217.305 30.8436 218.46 29.6259 219.839 28.7055C221.219 27.7851 222.788 27.1854 224.431 26.9506C226.074 26.7158 227.749 26.852 229.332 27.349C230.915 27.846 232.366 28.6913 233.578 29.8224C234.79 30.9536 235.732 32.3417 236.335 33.8845C236.938 35.4273 237.185 37.0854 237.06 38.7365C236.935 40.3875 236.44 41.9895 235.611 43.4242C234.782 44.8589 233.642 46.0897 232.273 47.0259C231.961 47.2384 231.636 47.4363 231.299 47.6196C228.888 48.9257 226.077 49.294 223.41 48.6533C220.742 48.0127 218.407 46.4086 216.856 44.1509Z" fill="url(#paint2_linear_125_315)"/>
<g opacity="0.3">
<path opacity="0.3" d="M181.656 10.1286C181.606 10.0563 181.581 9.9699 181.585 9.88233C181.589 9.79476 181.621 9.71075 181.676 9.64289C181.895 9.37504 182.124 9.11432 182.358 8.86164C182.433 8.78793 182.533 8.74572 182.637 8.74384C182.742 8.74196 182.844 8.78055 182.92 8.85155C182.997 8.92255 183.044 9.02046 183.05 9.12484C183.056 9.22921 183.022 9.33197 182.954 9.41164C182.731 9.65272 182.512 9.90361 182.304 10.1572C182.27 10.1983 182.228 10.2324 182.181 10.2575C182.134 10.2826 182.083 10.2982 182.03 10.3034C181.977 10.3086 181.923 10.3034 181.872 10.2879C181.821 10.2725 181.774 10.2472 181.733 10.2134C181.703 10.1894 181.677 10.1607 181.656 10.1286Z" fill="#91B3FA"/>
<path opacity="0.3" d="M183.849 7.90984C183.793 7.82712 183.77 7.72682 183.784 7.62803C183.797 7.52925 183.847 7.43888 183.923 7.37412C184.377 6.99287 184.855 6.63037 185.346 6.29644C185.448 6.2268 185.553 6.15716 185.659 6.08841C185.75 6.03334 185.859 6.01487 185.963 6.03675C186.067 6.05863 186.16 6.11922 186.221 6.20627C186.28 6.29627 186.3 6.40588 186.278 6.51101C186.256 6.61615 186.193 6.70822 186.103 6.76698C186.002 6.83305 185.902 6.89912 185.803 6.96609C185.335 7.28507 184.884 7.62716 184.451 7.99109C184.407 8.02768 184.357 8.05477 184.302 8.07061C184.248 8.08644 184.19 8.09067 184.134 8.08301C184.078 8.07535 184.024 8.05597 183.975 8.02614C183.927 7.99631 183.886 7.95668 183.854 7.90984H183.849ZM187.382 5.61341C187.371 5.59707 187.361 5.58007 187.352 5.56252C187.305 5.46601 187.298 5.35472 187.333 5.25311C187.368 5.15149 187.441 5.06784 187.538 5.02055C188.186 4.70543 188.852 4.43021 189.534 4.19644C189.584 4.17886 189.638 4.17135 189.691 4.17435C189.744 4.17735 189.797 4.1908 189.845 4.21393C189.893 4.23706 189.936 4.26942 189.971 4.30916C190.007 4.34891 190.034 4.39525 190.052 4.44555C190.07 4.49585 190.077 4.54912 190.074 4.60233C190.071 4.65553 190.058 4.70762 190.035 4.75563C190.011 4.80363 189.979 4.84661 189.939 4.88211C189.899 4.9176 189.853 4.94493 189.802 4.96252C189.152 5.18641 188.516 5.45031 187.899 5.75269C187.81 5.79603 187.709 5.80579 187.614 5.78017C187.519 5.75454 187.436 5.69528 187.382 5.61341ZM191.367 4.24019C191.337 4.19621 191.316 4.14716 191.305 4.09555C191.283 3.99042 191.303 3.88076 191.362 3.79068C191.421 3.70061 191.513 3.63749 191.618 3.61519C192.324 3.46771 193.039 3.36364 193.758 3.30359C193.866 3.29447 193.972 3.32829 194.055 3.39761C194.137 3.46694 194.188 3.56608 194.198 3.67323C194.207 3.78038 194.173 3.88677 194.103 3.96898C194.034 4.0512 193.934 4.10251 193.827 4.11162C193.141 4.16919 192.46 4.26908 191.787 4.41073C191.707 4.42687 191.625 4.41929 191.551 4.38893C191.476 4.35858 191.412 4.30682 191.367 4.24019ZM195.569 3.88305C195.52 3.81147 195.495 3.72594 195.499 3.6393C195.503 3.53208 195.55 3.43099 195.629 3.35818C195.708 3.28538 195.813 3.2468 195.92 3.25091C196.64 3.27972 197.357 3.35247 198.068 3.46877C198.123 3.47535 198.175 3.49286 198.223 3.52025C198.27 3.54763 198.312 3.58431 198.344 3.62809C198.377 3.67187 198.401 3.72183 198.414 3.77497C198.427 3.82811 198.429 3.88333 198.42 3.93731C198.411 3.99128 198.391 4.04288 198.362 4.08902C198.332 4.13515 198.294 4.17486 198.249 4.20574C198.203 4.23663 198.152 4.25806 198.099 4.26873C198.045 4.27941 197.989 4.27912 197.936 4.26787C197.257 4.15682 196.572 4.08764 195.885 4.06073C195.823 4.05792 195.761 4.04066 195.706 4.0103C195.651 3.97994 195.604 3.9373 195.569 3.88573V3.88305ZM199.73 4.5643C199.683 4.49553 199.658 4.41388 199.659 4.33053C199.66 4.24718 199.687 4.16621 199.736 4.09868C199.785 4.03115 199.854 3.98036 199.933 3.95327C200.012 3.92618 200.097 3.92411 200.178 3.94734C200.869 4.14983 201.548 4.39434 202.21 4.67948C202.261 4.69886 202.308 4.72842 202.348 4.76638C202.387 4.80434 202.419 4.84991 202.44 4.90034C202.462 4.95077 202.473 5.00502 202.473 5.0598C202.472 5.11458 202.461 5.16875 202.439 5.21906C202.418 5.26937 202.386 5.31476 202.346 5.35249C202.306 5.39022 202.259 5.41951 202.208 5.4386C202.156 5.45768 202.102 5.46615 202.047 5.46351C201.992 5.46087 201.938 5.44717 201.889 5.42323C201.258 5.15388 200.611 4.9231 199.951 4.73216C199.86 4.70474 199.782 4.64626 199.73 4.56698V4.5643ZM203.603 6.23484C203.552 6.15908 203.528 6.06848 203.535 5.97764C203.543 5.8868 203.58 5.80103 203.642 5.73417C203.704 5.66731 203.787 5.62326 203.877 5.60913C203.968 5.59499 204.06 5.6116 204.14 5.65627C204.76 6.02078 205.358 6.42302 205.93 6.86073C206.013 6.92694 206.067 7.02314 206.08 7.12863C206.093 7.23412 206.064 7.34045 205.999 7.42473C205.934 7.50901 205.838 7.5645 205.733 7.57925C205.627 7.594 205.52 7.56683 205.435 7.50359C204.89 7.0861 204.319 6.70263 203.727 6.35537C203.677 6.32473 203.635 6.28359 203.603 6.23484ZM206.941 8.79466C206.883 8.71162 206.859 8.61004 206.872 8.50992C206.886 8.40979 206.937 8.31838 207.014 8.25366C207.092 8.18895 207.191 8.15561 207.293 8.16023C207.394 8.16484 207.489 8.20706 207.561 8.27859C208.074 8.78414 208.556 9.32088 209.003 9.88573C209.039 9.92715 209.066 9.9754 209.083 10.0276C209.099 10.0797 209.105 10.1348 209.1 10.1893C209.095 10.2438 209.079 10.2967 209.052 10.3448C209.026 10.3929 208.99 10.4352 208.947 10.4692C208.904 10.5031 208.855 10.528 208.802 10.5423C208.749 10.5566 208.693 10.56 208.639 10.5524C208.585 10.5447 208.532 10.5262 208.485 10.4979C208.438 10.4695 208.398 10.432 208.366 10.3875C207.939 9.84902 207.48 9.33705 206.991 8.85448C206.972 8.83647 206.955 8.8164 206.941 8.79466ZM210.536 13.9616C210.522 13.942 210.51 13.9211 210.501 13.8991C210.255 13.3554 209.98 12.8249 209.678 12.3098C209.633 12.2313 209.589 12.1545 209.541 12.0795C209.486 11.9878 209.47 11.8783 209.496 11.7747C209.521 11.6711 209.587 11.5819 209.678 11.5263C209.77 11.4707 209.879 11.4533 209.983 11.4778C210.087 11.5023 210.177 11.5667 210.234 11.6572C210.283 11.7384 210.333 11.8197 210.38 11.9018C210.697 12.4412 210.984 12.997 211.241 13.567C211.284 13.6595 211.291 13.7649 211.26 13.862C211.228 13.9592 211.161 14.0409 211.072 14.0909C210.983 14.1408 210.878 14.1552 210.779 14.1313C210.679 14.1073 210.592 14.0467 210.536 13.9616Z" fill="#91B3FA"/>
</g>
<g opacity="0.3">
<path opacity="0.3" d="M180.889 30.7964C180.83 30.7079 180.808 30.5997 180.828 30.4952C180.848 30.3907 180.909 30.2982 180.996 30.2377C181.084 30.1772 181.192 30.1536 181.297 30.1719C181.402 30.1902 181.496 30.2491 181.558 30.3357C181.947 30.8879 182.368 31.4165 182.82 31.9187C182.859 31.9577 182.889 32.0041 182.909 32.0551C182.929 32.1061 182.939 32.1606 182.937 32.2154C182.935 32.2702 182.923 32.324 182.9 32.3738C182.876 32.4235 182.844 32.4681 182.803 32.5047C182.762 32.5414 182.714 32.5694 182.662 32.5871C182.61 32.6048 182.555 32.6118 182.5 32.6077C182.445 32.6036 182.392 32.5885 182.343 32.5632C182.295 32.5379 182.252 32.503 182.217 32.4607C181.742 31.9354 181.3 31.382 180.893 30.8035L180.889 30.7964ZM179.801 29.0312C179.793 29.0187 179.786 29.0062 179.779 28.9937C179.443 28.3697 179.144 27.7263 178.884 27.0669C178.865 27.0173 178.855 26.9644 178.856 26.9112C178.857 26.8579 178.869 26.8055 178.89 26.7567C178.912 26.708 178.943 26.6639 178.981 26.627C179.02 26.5902 179.065 26.5613 179.115 26.5419C179.165 26.5226 179.218 26.5132 179.271 26.5143C179.324 26.5154 179.377 26.527 179.426 26.5484C179.475 26.5698 179.519 26.6005 179.556 26.639C179.593 26.6774 179.622 26.7227 179.641 26.7723C179.887 27.4014 180.171 28.0153 180.49 28.6107C180.54 28.7021 180.553 28.8092 180.525 28.9096C180.498 29.0101 180.433 29.0962 180.344 29.1503C180.255 29.2043 180.149 29.2221 180.047 29.1999C179.945 29.1778 179.855 29.1174 179.797 29.0312H179.801ZM183.664 33.8705C183.607 33.7891 183.582 33.6898 183.593 33.5913C183.605 33.4927 183.652 33.4019 183.727 33.3358C183.801 33.2698 183.897 33.2333 183.996 33.2331C184.096 33.2329 184.192 33.2691 184.266 33.3348C184.778 33.7776 185.316 34.1891 185.877 34.5669C185.962 34.6286 186.02 34.7211 186.039 34.8247C186.057 34.9282 186.034 35.0349 185.975 35.1221C185.916 35.2092 185.826 35.2701 185.722 35.2918C185.619 35.3135 185.512 35.2943 185.422 35.2383C184.834 34.8429 184.27 34.412 183.735 33.9482C183.708 33.9254 183.684 33.8993 183.664 33.8705ZM178.294 25.1732C178.267 25.134 178.248 25.0905 178.236 25.0446C178.061 24.3583 177.928 23.6621 177.839 22.9598C177.83 22.906 177.832 22.8509 177.844 22.7979C177.857 22.7448 177.881 22.6949 177.913 22.6511C177.946 22.6073 177.987 22.5705 178.034 22.543C178.081 22.5154 178.134 22.4977 178.188 22.4908C178.242 22.4838 178.297 22.4879 178.35 22.5028C178.402 22.5176 178.451 22.5429 178.494 22.5771C178.537 22.6113 178.572 22.6537 178.598 22.7018C178.623 22.7499 178.639 22.8028 178.644 22.8571C178.73 23.5269 178.856 24.1909 179.023 24.8455C179.047 24.9378 179.037 25.0357 178.996 25.1217C178.954 25.2077 178.884 25.2764 178.797 25.3156C178.71 25.3548 178.611 25.362 178.519 25.3359C178.427 25.3099 178.348 25.2522 178.294 25.1732ZM187.097 36.1848C187.046 36.1104 187.021 36.0212 187.026 35.9312C187.032 35.8413 187.067 35.7557 187.127 35.688C187.186 35.6203 187.267 35.5743 187.356 35.5574C187.445 35.5405 187.536 35.5536 187.617 35.5946C188.219 35.9018 188.84 36.1723 189.476 36.4044C189.526 36.4228 189.572 36.4508 189.611 36.4869C189.65 36.523 189.682 36.5664 189.705 36.6148C189.727 36.6631 189.74 36.7154 189.742 36.7686C189.744 36.8218 189.736 36.8749 189.717 36.925C189.699 36.975 189.671 37.0209 189.635 37.06C189.599 37.0992 189.555 37.1309 189.507 37.1533C189.458 37.1757 189.406 37.1883 189.352 37.1905C189.299 37.1927 189.246 37.1844 189.196 37.166C188.53 36.9221 187.879 36.6385 187.247 36.3169C187.188 36.2853 187.138 36.24 187.1 36.1848H187.097ZM190.99 37.6133C190.943 37.5459 190.918 37.466 190.918 37.384C190.918 37.302 190.942 37.2219 190.989 37.1542C191.035 37.0865 191.101 37.0344 191.177 37.0048C191.254 36.9752 191.338 36.9695 191.418 36.9883C192.077 37.1424 192.744 37.2569 193.417 37.3312C193.518 37.35 193.608 37.4061 193.669 37.4883C193.73 37.5705 193.758 37.6727 193.746 37.7745C193.735 37.8762 193.686 37.9699 193.608 38.0367C193.53 38.1035 193.43 38.1386 193.328 38.1348C192.622 38.0572 191.923 37.9379 191.232 37.7776C191.134 37.7527 191.049 37.6926 190.994 37.6089L190.99 37.6133ZM195.113 38.066C195.072 38.0054 195.047 37.9347 195.043 37.8615C195.039 37.7882 195.054 37.7152 195.088 37.6501C195.122 37.585 195.173 37.5304 195.236 37.492C195.299 37.4536 195.371 37.4329 195.444 37.4321C196.121 37.4247 196.797 37.3761 197.468 37.2866C197.574 37.2734 197.681 37.3026 197.766 37.3679C197.851 37.4332 197.906 37.5293 197.921 37.6352C197.935 37.7412 197.906 37.8484 197.842 37.9336C197.777 38.0188 197.681 38.0751 197.575 38.0901C196.871 38.1835 196.163 38.2344 195.453 38.2428C195.386 38.2427 195.321 38.2261 195.262 38.1945C195.203 38.1628 195.153 38.1172 195.117 38.0616L195.113 38.066Z" fill="#91B3FA"/>
<path opacity="0.3" d="M177.772 21.0491C177.727 20.9822 177.703 20.9032 177.703 20.8223C177.703 20.4759 177.71 20.1277 177.729 19.7866C177.73 19.7322 177.742 19.6785 177.764 19.6289C177.787 19.5792 177.819 19.5346 177.859 19.4976C177.899 19.4606 177.946 19.4321 177.997 19.4136C178.049 19.3952 178.103 19.3873 178.158 19.3904C178.212 19.3934 178.265 19.4074 178.314 19.4314C178.363 19.4555 178.407 19.4891 178.443 19.5304C178.478 19.5716 178.505 19.6196 178.522 19.6714C178.538 19.7233 178.544 19.7779 178.539 19.8321C178.522 20.1562 178.513 20.4884 178.514 20.8196C178.515 20.9063 178.487 20.9908 178.435 21.0607C178.384 21.1305 178.311 21.1821 178.228 21.2078C178.145 21.2335 178.056 21.2319 177.974 21.2033C177.892 21.1748 177.821 21.1207 177.772 21.0491Z" fill="#91B3FA"/>
</g>
<path d="M182.296 18.3777C182.284 18.4186 182.285 18.4623 182.299 18.5027C182.313 18.5431 182.339 18.5781 182.374 18.6027L184.411 20.0536C184.342 21.234 184.467 22.4177 184.781 23.558L183.092 25.3991C183.063 25.4305 183.045 25.4701 183.04 25.5124C183.034 25.5546 183.043 25.5975 183.063 25.6348L184.495 28.2669C184.516 28.3045 184.547 28.3347 184.586 28.3535C184.624 28.3722 184.668 28.3785 184.71 28.3714L187.176 27.9598C187.965 28.8434 188.893 29.5928 189.924 30.1786L190.035 32.6723C190.037 32.7141 190.052 32.7542 190.077 32.7872C190.103 32.8203 190.138 32.8447 190.178 32.8571L193.057 33.7071C193.098 33.7193 193.142 33.7183 193.182 33.7044C193.223 33.6905 193.258 33.6643 193.283 33.6294L194.742 31.5973C195.926 31.6657 197.112 31.5414 198.255 31.2294L200.1 32.9134C200.132 32.9421 200.172 32.9603 200.214 32.9656C200.257 32.9708 200.3 32.9629 200.338 32.9428L202.975 31.5143C203.013 31.4939 203.043 31.4624 203.061 31.4242C203.08 31.386 203.087 31.3429 203.08 31.3009L202.665 28.8393C203.55 28.0527 204.3 27.1271 204.886 26.0991L207.386 25.9884C207.429 25.9866 207.47 25.9715 207.504 25.9452C207.537 25.919 207.562 25.8829 207.574 25.8419L208.426 22.9705C208.438 22.9296 208.437 22.8859 208.423 22.8456C208.409 22.8053 208.383 22.7703 208.348 22.7455L206.311 21.2946C206.38 20.1142 206.255 18.9304 205.942 17.7902L207.63 15.9473C207.659 15.9159 207.677 15.8763 207.682 15.834C207.687 15.7918 207.679 15.7489 207.658 15.7116L206.226 13.0794C206.206 13.0419 206.174 13.0117 206.136 12.9929C206.097 12.9742 206.054 12.9679 206.012 12.975L203.545 13.3866C202.756 12.5041 201.829 11.7556 200.799 11.1705L200.688 8.67677C200.686 8.63403 200.671 8.5929 200.644 8.55912C200.618 8.52535 200.582 8.50062 200.541 8.48838L197.662 7.63927C197.621 7.62711 197.577 7.62806 197.536 7.64199C197.496 7.65592 197.461 7.68213 197.436 7.71695L195.983 9.74909C194.8 9.6807 193.613 9.80495 192.47 10.1169L190.626 8.43302C190.594 8.40398 190.554 8.38551 190.512 8.38023C190.469 8.37494 190.426 8.3831 190.388 8.40356L187.751 9.83213C187.713 9.85238 187.683 9.88384 187.664 9.92209C187.646 9.96035 187.639 10.0035 187.646 10.0455L188.059 12.5071C187.174 13.2936 186.424 14.2189 185.838 15.2464L183.336 15.3571C183.293 15.3592 183.252 15.3746 183.219 15.4009C183.185 15.4273 183.16 15.4635 183.148 15.5044L182.296 18.3777Z" fill="#91B3FA"/>
<path d="M192.82 22.3947C192.385 21.7549 192.208 20.9744 192.325 20.2099C192.442 19.4454 192.845 18.7533 193.452 18.2725C194.059 17.7918 194.826 17.5579 195.599 17.6178C196.372 17.6777 197.093 18.027 197.619 18.5955C197.905 18.9054 198.125 19.2709 198.263 19.6692C198.402 20.0675 198.456 20.49 198.423 20.9102C198.391 21.3305 198.271 21.7395 198.073 22.1117C197.874 22.4839 197.601 22.8112 197.27 23.0732C196.939 23.3352 196.558 23.5263 196.149 23.6345C195.741 23.7427 195.315 23.7657 194.897 23.702C194.479 23.6383 194.079 23.4893 193.722 23.2644C193.365 23.0394 193.058 22.7434 192.82 22.3947ZM197.229 19.4036C197.166 19.3125 197.097 19.226 197.022 19.1447C196.821 18.927 196.579 18.7511 196.309 18.6268C196.04 18.5026 195.749 18.4325 195.452 18.4206C195.156 18.4086 194.86 18.4551 194.581 18.5573C194.303 18.6594 194.047 18.8153 193.829 19.0161C193.611 19.2168 193.434 19.4585 193.31 19.7272C193.185 19.9959 193.115 20.2865 193.103 20.5823C193.091 20.8781 193.138 21.1734 193.24 21.4513C193.343 21.7292 193.499 21.9842 193.7 22.2018C194.087 22.621 194.618 22.8786 195.187 22.9228C195.757 22.967 196.322 22.7945 196.769 22.44C197.216 22.0855 197.512 21.5753 197.597 21.012C197.682 20.4487 197.551 19.874 197.229 19.4036Z" fill="url(#paint3_linear_125_315)"/>
<path d="M189.104 24.9919C188.664 24.3479 188.324 23.6411 188.097 22.8955L188.077 22.8285C188.053 22.7468 188.056 22.6597 188.085 22.5795C188.114 22.4994 188.167 22.4303 188.237 22.3821C188.273 22.3581 188.312 22.3398 188.353 22.3277C188.456 22.2978 188.567 22.31 188.661 22.3615C188.755 22.413 188.825 22.4998 188.856 22.6027C188.993 23.0675 189.18 23.5164 189.412 23.9419L189.451 24.0116C190.001 25.0007 190.79 25.8365 191.747 26.4428C192.268 26.7716 192.831 27.0293 193.421 27.2089L193.435 27.2134L193.48 27.2268C194.341 27.483 195.244 27.5665 196.137 27.4726C197.031 27.3786 197.897 27.1091 198.685 26.6794C198.891 26.5677 199.092 26.4455 199.285 26.3134C200.73 25.3244 201.738 23.8202 202.104 22.1111C202.469 20.4019 202.163 18.6181 201.248 17.1275C200.334 15.6369 198.881 14.5532 197.189 14.0999C195.498 13.6465 193.696 13.8581 192.156 14.691C191.952 14.7997 191.754 14.9189 191.563 15.0482C190.736 15.6106 190.043 16.348 189.534 17.208C189.504 17.2594 189.463 17.3033 189.413 17.3366C189.337 17.3868 189.247 17.41 189.156 17.4026C189.065 17.3953 188.979 17.3576 188.912 17.2959C188.846 17.2341 188.802 17.1517 188.787 17.0619C188.773 16.9721 188.79 16.8802 188.834 16.8009C189.404 15.8386 190.179 15.0132 191.105 14.383C191.319 14.2384 191.54 14.1027 191.768 13.9794C193.491 13.0437 195.508 12.804 197.403 13.3101C199.299 13.8161 200.926 15.0292 201.95 16.6986C202.975 18.3679 203.317 20.366 202.906 22.2799C202.496 24.1937 201.364 25.8771 199.745 26.9821C199.527 27.1296 199.303 27.2661 199.072 27.391C197.408 28.2911 195.467 28.544 193.627 28.1009C191.786 27.6579 190.175 26.5503 189.104 24.9919Z" fill="url(#paint4_linear_125_315)"/>
<path d="M172.56 50.1223L94.8781 42.2884L17.0688 49.6732L15.6333 221.487L93.4104 217.926L171.113 223.333L248.818 216.827L250.238 46.8196L172.56 50.1223Z" fill="#BDD0FB"/>
<path d="M95.1117 214.023L21.2134 217.401L22.5755 54.4116L96.5043 47.4072L95.1117 214.023Z" fill="#91B3FA"/>
<path d="M168.939 219.154L95.1118 214.023L96.5044 47.4072L170.312 54.8402L168.939 219.154Z" fill="#91B3FA"/>
<path d="M242.769 212.983L168.939 219.154L170.312 54.8402L244.117 51.708L242.769 212.983Z" fill="#91B3FA"/>
<path opacity="0.47" d="M96.5535 47.4052L94.8809 47.3903L93.3939 214.052L95.0665 214.067L96.5535 47.4052Z" fill="white"/>
<path d="M149.258 151.955C148.96 154.28 148.718 156.612 148.532 158.95C148.487 159.507 148.595 160.265 149.135 160.32C149.46 160.353 149.73 160.08 149.949 159.83C150.879 158.77 151.878 157.401 151.428 156.048C151.26 155.545 150.904 155.121 150.767 154.608C150.56 153.836 150.883 153.014 150.801 152.219C150.719 151.423 149.759 150.639 149.222 151.218L149.258 151.955Z" fill="#BDD0FB"/>
<path d="M89.4511 75.484C85.7952 73.5554 83.4997 73.2947 79.5619 73.7224C75.8487 74.125 73.3401 75.9867 70.7913 78.6384C70.2114 79.242 69.6484 79.9018 68.8967 80.2456C65.7464 81.6965 61.7504 81.4063 58.5331 82.8349C54.7036 84.5393 53.6233 89.842 50.1259 92.1866C48.1015 93.5438 45.5499 93.7152 43.3242 94.6866C40.0334 96.1241 38.5156 99.1107 36.646 102.017C35.4969 103.803 31.2638 106.866 31.5045 108.956C31.5588 109.335 31.6966 109.698 31.9081 110.017C33.0716 111.892 34.8149 112.089 36.6514 112.624C39.0776 113.331 40.5418 114.418 42.6888 115.933C44.9262 117.513 47.9744 118.895 48.1677 121.688C48.2572 122.983 47.6522 124.207 47.3551 125.47C46.018 131.164 50.9805 136.279 55.8097 139.358C60.6389 142.438 66.338 145.479 67.8737 151.12C68.0142 151.634 68.1315 152.191 68.5065 152.559C69.9169 153.943 70.9721 150.812 71.3999 149.818C71.6746 149.177 71.4258 148.408 70.9953 147.865C70.5649 147.322 69.9796 146.942 69.4507 146.503C67.667 145.019 66.5098 142.759 66.3273 140.402C66.304 140.102 66.3022 139.777 66.466 139.529C67.3036 138.265 69.3898 137.744 70.4136 136.214C71.8778 134.023 72.2125 131.944 72.4613 129.339C73.3768 119.786 82.0973 123.166 87.5717 118.929C88.5902 118.14 89.3563 116.895 89.5317 115.625C89.6391 114.925 89.5328 114.21 89.2265 113.571C88.6895 112.48 87.5861 111.779 86.4387 111.464C85.2914 111.15 84.0868 111.172 82.9001 111.196L79.5968 111.266C79.271 111.273 78.9354 111.282 78.6374 111.417C78.2159 111.606 77.9295 112.017 77.7013 112.429C76.96 113.775 76.6022 115.297 76.6667 116.831C75.2151 117.341 73.8028 115.96 73.0135 114.605C72.0956 113.03 71.442 111.316 71.0786 109.53C70.9381 108.839 70.8521 108.075 71.1985 107.467C71.3891 107.131 71.6925 106.881 71.9986 106.654C73.2318 105.738 74.6539 105.046 76.1646 104.88C78.7457 104.598 81.2533 105.869 83.369 107.426C85.4006 108.921 88.7146 110.71 90.994 108.562C92.1709 107.452 92.1915 105.437 91.3717 104.022C90.04 101.731 86.6437 100.532 84.4313 99.3795C83.395 98.8384 82.7309 97.7232 82.4365 96.5643C82.142 95.4054 82.168 94.1884 82.2002 92.9929C83.7367 92.3782 85.3924 92.1172 87.044 92.2293C88.6956 92.3414 90.3006 92.8237 91.7395 93.6402C92.1476 93.8741 92.5835 94.2009 92.6345 94.6804C92.6837 95.1733 92.306 95.5849 92.008 95.9741C89.3598 99.4313 91.7395 102.224 94.8576 104.174C94.9319 95.4072 94.9524 86.5956 94.9569 77.8197C93.0594 77.1961 91.2177 76.4148 89.4511 75.484Z" fill="#BDD0FB"/>
<path d="M117.141 82.9081C116.714 82.334 115.867 82.4786 115.167 82.4831C112.929 82.4974 111.15 80.55 108.998 79.9134C107.87 79.5795 106.676 79.6179 105.507 79.6C101.92 79.5402 98.363 78.9381 94.9568 77.8143C94.9568 86.5902 94.9317 95.4036 94.8574 104.169C96.8004 105.385 99.0288 106.275 100.505 106.796C102.07 107.347 103.564 108.255 105.238 107.915C106.791 107.6 108.191 105.851 109.802 105.405C110.966 105.082 112.213 105.252 113.396 105.006C114.58 104.761 115.813 103.846 115.764 102.601C115.725 101.588 114.861 100.825 114.002 100.331C114.002 100.429 112.515 99.2134 112.374 98.9509C111.075 96.3545 112.963 94.0679 113.686 91.8259C114.732 88.5813 113.183 86.6732 116.4 84.8759C117.076 84.4947 117.614 83.5447 117.141 82.9081Z" fill="#BDD0FB"/>
<path d="M73.6604 165.089C74.2206 166.266 74.6806 167.378 74.8023 168.324C75.3339 172.44 71.8991 177.506 70.4394 181.264C70.0331 182.309 69.6197 183.421 69.8022 184.531C69.8792 184.999 70.06 185.441 70.239 185.878C71.5653 189.1 74.1705 192.017 76.4849 194.503C77.276 192.371 77.2178 187.254 77.0004 184.985C76.9288 184.236 76.8035 183.453 77.0711 182.753C77.9275 180.508 80.7171 177.419 82.6404 176.08C84.526 174.768 87.0042 173.714 87.4919 171.421C87.6799 170.54 87.5224 169.596 87.7989 168.743C87.9645 168.23 88.2759 167.783 88.5247 167.306C89.7436 164.967 90.4363 160.451 87.994 158.789C85.2644 156.932 81.4018 159.653 79.0596 156.622C78.7061 156.165 78.443 155.633 78.0412 155.221C77.2948 154.456 76.1493 154.214 75.112 154.394C68.2083 155.579 71.6082 160.774 73.6604 165.089Z" fill="#BDD0FB"/>
<path d="M117.009 131.08C119.19 132.519 122.953 129.363 124.336 125.672C124.509 125.21 124.67 124.728 124.987 124.356C125.632 123.599 126.743 123.503 127.711 123.642C128.68 123.781 129.644 124.102 130.613 123.974C132.004 123.789 133.152 122.688 133.801 121.405C134.451 120.123 134.685 118.666 134.909 117.238C135.948 116.978 137.045 117.077 138.019 117.521C138.767 117.863 139.506 118.616 139.296 119.433C139.201 119.808 138.923 120.099 138.662 120.378C137.844 121.25 137.085 122.174 136.389 123.146C135.958 123.746 135.536 124.529 135.859 125.199C136.739 127.021 138.35 126.073 137.887 128.681C137.304 131.946 133.006 133.281 135.462 137.182C136.357 138.611 137.994 139.463 139.642 139.541C140.824 139.596 142.28 138.964 142.295 137.743C142.295 137.386 142.17 137.008 142.28 136.664C142.423 136.218 142.914 135.998 143.365 135.928C144.842 135.696 146.269 136.463 147.631 137.088C148.043 137.279 148.533 137.456 148.924 137.224C150.199 136.471 149.605 135.849 151.341 135.682C152.817 135.54 154.546 136.716 155.382 137.878C155.584 138.157 155.765 138.517 155.638 138.839C155.527 139.119 155.22 139.263 155.067 139.521C154.811 139.944 155.067 140.529 155.47 140.805C155.874 141.082 156.371 141.143 156.844 141.244C159.063 141.715 159.115 143.898 160.683 144.988C161.956 145.872 165.199 146.046 164.913 143.503C164.808 142.572 163.903 141.806 164.052 140.883C164.183 140.071 165.068 139.633 165.86 139.534C166.652 139.435 167.497 139.508 168.206 139.127C168.678 138.873 169.034 138.442 169.465 138.119C172.113 136.129 178.386 137.82 180.419 140.05C182.317 142.134 182.53 145.726 184.973 147.077C184.688 144.309 183.334 141.67 181.273 139.871C180.894 139.541 180.477 139.217 180.278 138.748C180.112 138.354 180.121 137.907 180.142 137.478C180.251 135.284 180.668 133.241 181.248 131.194C181.179 131.438 182.799 126.988 181.633 127.83C183.719 126.324 188.268 123.85 190.882 124.011C192.242 124.095 193.585 124.904 194.156 126.185C194.727 127.466 194.384 129.16 193.261 129.954C192.187 130.715 190.69 130.57 189.597 131.304C188.543 132.012 188.094 133.536 188.587 134.73C189.272 133.755 190.29 133.061 191.451 132.779C192.979 132.422 194.713 132.799 196.032 131.926C197.005 131.281 197.516 130.051 197.529 128.858C197.541 127.665 197.112 126.507 196.54 125.471C196.125 124.721 195.627 124.004 195.405 123.171C195.047 121.837 195.47 120.385 196.218 119.236C199.001 114.966 204.149 113.121 208.913 114.691C209.231 114.796 209.569 114.936 209.734 115.234C209.973 115.667 209.743 116.216 209.844 116.706C210.003 117.474 211.138 117.765 211.628 117.163C211.966 116.747 211.945 116.147 212.075 115.621C212.408 114.252 213.76 113.414 215.074 113.024C216.681 112.546 220.997 110.346 221.441 113.256C221.479 113.512 221.471 113.78 221.579 114.013C221.88 114.671 222.889 114.576 223.369 114.045C224.358 112.948 224.532 111.148 225.491 109.923C226.338 108.839 227.59 108.19 228.3 106.977C230.059 103.979 228.72 100.06 225.66 98.6081C222.728 97.217 219.316 97.834 216.141 98.4232C213.955 98.8286 206.446 100.388 205.911 96.7268C205.867 96.4268 205.877 96.1081 205.732 95.842C205.557 95.5125 205.195 95.3402 204.972 95.0384C204.688 94.659 204.677 94.1402 204.524 93.6884C203.97 92.0456 201.883 91.7447 200.198 91.7241C200.368 90.7054 200.46 89.4643 199.667 88.834C199.219 88.4768 198.612 88.4384 198.047 88.4134C196.577 88.3482 193.035 88.8929 191.815 88.0054C190.204 86.8304 191.313 84.8286 190.61 83.2072C189.862 81.4857 187.083 81.2429 186.774 79.3875C186.707 78.9849 186.779 78.5706 186.733 78.1652C186.62 77.1777 185.838 76.4331 185.11 75.7822C183.787 74.6027 182.289 73.3554 180.546 73.4009C180.217 73.6688 180.513 74.2313 180.882 74.4331C181.252 74.6349 181.726 74.7384 181.913 75.125C182.271 75.8661 181.242 76.4741 180.454 76.6295C180.415 77.7116 181.47 78.4295 182.285 79.1125C183.68 80.2981 184.639 81.915 185.007 83.7063C182.228 84.2212 179.39 84.3414 176.578 84.0634C173.194 83.7286 171.02 89.2715 167.01 87.7349C166.417 87.5081 165.887 87.1009 165.266 86.9795C163.706 86.6741 162.447 88.2009 161.045 88.9706C158.908 90.142 156.289 89.5349 154 88.7277C151.264 87.7634 147.937 86.3786 145.18 88.042C144.149 88.667 143.326 89.6313 142.235 90.1313C139.944 91.1804 137.346 89.8929 134.852 89.6456C128.698 89.0357 124.995 95.25 122.997 100.426C122.693 101.211 122.421 102.033 122.46 102.88C122.498 103.728 122.915 104.599 123.662 104.947C124.769 105.463 126.054 104.644 126.776 103.637C127.498 102.629 127.94 101.399 128.822 100.54C129.704 99.6813 131.328 99.4054 132.028 100.43C132.37 100.935 132.386 101.591 132.386 102.211C132.386 103.382 132.388 104.553 132.393 105.723C132.393 106.367 132.393 107.033 132.138 107.621C131.714 108.604 130.706 109.146 129.767 109.615L123.657 112.667C122.97 113.011 122.274 113.359 121.688 113.868C119.028 116.189 120.816 119.392 118.764 121.623C117.935 122.524 116.56 122.795 115.881 123.82C115.379 124.578 115.381 125.563 115.402 126.48C115.449 129.047 116.089 130.473 117.009 131.08Z" fill="#BDD0FB"/>
<path d="M188.011 150.553C187.187 152.091 187.301 154.103 185.438 154.953C184.198 155.518 182.611 155.26 181.602 156.193C180.45 157.257 180.751 159.145 180.975 160.723C181.015 161.006 181.047 161.307 180.935 161.569C180.638 162.262 179.575 162.244 179.21 162.901C178.896 163.465 179.284 164.176 179.746 164.612C181.17 165.941 183.484 166.115 185.079 165.013C185.503 164.72 185.963 164.329 186.459 164.454C187.038 164.601 187.232 165.326 187.389 165.919C187.723 167.181 188.384 168.395 189.428 169.14C192.712 171.483 197.331 168.632 200.978 171.938C201.426 172.344 201.853 172.831 201.983 173.428C202.125 174.076 201.914 174.821 202.267 175.377C202.709 176.073 203.798 175.979 204.394 175.417C204.989 174.855 205.229 174.009 205.477 173.217C205.726 172.425 206.052 171.587 206.736 171.145C207.888 170.4 209.2 170.685 209.839 169.169C210.633 167.235 208.261 165.633 209.013 163.87C209.35 163.084 209.888 162.225 209.55 161.438C209.379 161.039 209.013 160.772 208.715 160.462C207.309 159.012 207.07 157.648 205.197 156.763C204.003 156.199 201.528 156.929 201.037 154.872C200.909 154.337 201.091 153.663 200.691 153.297C200.464 153.09 200.132 153.076 199.828 153.077C197.733 153.085 195.241 153.117 194.047 151.34C192.727 149.376 192.572 147.96 189.892 148.935C189.078 149.21 188.404 149.79 188.011 150.553Z" fill="#BDD0FB"/>
<path d="M125.549 139.746C125.113 140.371 124.866 141.124 124.406 141.73C123.111 143.438 122.548 141.929 121.083 142.504C120.578 142.703 120.13 143.056 119.602 143.181C118.536 143.434 117.477 142.7 116.38 142.696C112.166 142.678 114.378 149.671 116.419 151.011C116.797 151.259 117.273 151.263 117.72 151.258L121.888 151.216C122.284 151.216 122.709 151.216 123.035 151.448C124.04 152.163 123.083 153.924 123.687 155.02C124.102 155.77 125.066 155.913 125.89 156.063C127.632 156.39 128.013 158.346 129.079 159.553C130.45 161.104 131.758 161.729 132.53 163.982C132.989 165.321 133.147 166.766 133.752 168.04C134.997 170.66 138.227 172.071 140.912 171.172C143.597 170.273 145.413 167.176 144.932 164.297C144.651 162.618 143.714 161.146 143.064 159.58C141.748 156.412 142.638 152.554 146.285 151.948C147.206 151.796 148.375 151.743 148.719 150.848C149.214 149.56 147.304 148.052 148.092 146.931C148.377 146.529 148.929 146.384 149.179 145.957C149.515 145.384 149.132 144.641 148.663 144.177C148.194 143.713 147.604 143.31 147.41 142.669C146.32 139.062 142.739 141.316 140.349 141.792C138.217 142.216 137.002 141.94 135.228 140.882C132.49 139.246 128.328 135.767 125.549 139.746Z" fill="#BDD0FB"/>
<path d="M134.63 83.3357C134.945 82.7286 135.715 82.5866 136.38 82.5402C138.678 82.3799 140.987 82.5337 143.243 82.9973C141.376 84.5152 139.293 86.1045 136.92 86.0223C135.846 85.9848 134.726 85.6018 133.719 85.9956C133.604 85.6274 133.575 85.2378 133.633 84.8565C133.692 84.4753 133.837 84.1124 134.058 83.7956L134.63 83.3357Z" fill="#BDD0FB"/>
<path d="M108.111 111.187C110.451 113.099 118.707 110.548 114.855 108.081C114.229 107.682 113.486 107.56 112.762 107.446C111.789 107.292 110.793 107.138 109.827 107.345C108.862 107.551 107.924 108.195 107.635 109.166C107.358 110.101 107.585 110.757 108.111 111.187Z" fill="#BDD0FB"/>
<path d="M210.079 94.3688C211.527 95.6786 213.555 96.0009 215.462 96.2688C216.414 96.4027 217.661 96.367 217.99 95.4348C218.336 94.4527 217.218 93.5447 216.21 93.4304C215.202 93.3161 214.133 93.5911 213.199 93.184C212.371 92.8223 211.72 91.9491 210.82 91.9563C209.774 91.9661 209.141 93.542 209.874 94.3125L210.079 94.3688Z" fill="#BDD0FB"/>
<path d="M177.101 66.8444C185.278 58.6867 185.278 45.4603 177.101 37.3025C168.924 29.1448 155.667 29.1448 147.49 37.3025C139.313 45.4603 139.313 58.6867 147.49 66.8444C155.667 75.0022 168.924 75.0022 177.101 66.8444Z" fill="url(#paint5_linear_125_315)"/>
<path d="M183.198 50.625H141.357C141.357 50.625 139.69 62.383 158.377 94.1402C159.192 95.5259 160.682 96.4357 162.292 96.4366C163.902 96.4375 165.395 95.5009 166.21 94.1152C184.898 62.3554 183.198 50.625 183.198 50.625Z" fill="url(#paint6_linear_125_315)"/>
<path d="M162.844 97.1973V97.3152H162.292C161.394 97.3086 160.512 97.0696 159.734 96.6214C158.956 96.1731 158.308 95.5311 157.853 94.758C146.929 76.1955 142.924 64.458 141.493 57.8902C141.091 56.4169 140.851 54.9045 140.777 53.3794C140.649 51.8259 140.747 51.1714 140.758 51.1027L140.813 50.7678C141.656 39.5473 151.016 30.8143 162.292 30.8143C173.719 30.8143 183.164 39.6714 183.803 50.9812C183.838 51.3641 183.85 51.7488 183.837 52.133V52.2098C183.839 54.2539 183.548 56.2878 182.974 58.25C181.491 64.8125 177.743 76.4339 167.006 94.6839C166.088 96.25 164.363 97.1973 162.844 97.1973ZM141.928 51.8402C141.923 51.8402 141.933 52.6285 141.988 53.3018V53.3134C142.059 54.7554 142.288 56.1854 142.67 57.5777L142.677 57.6053C144.09 64.0839 148.047 75.6759 158.9 94.1143C159.599 95.3018 161.173 96.0384 162.57 96.0393L162.846 96.6455V96.0393C163.454 96.0393 165.346 95.2955 166.05 94.0982C176.718 75.9652 180.776 64.441 181.991 57.9669V57.9294C182.599 56.0777 182.707 54.1544 182.707 52.2152L182.601 52.1259V52.1196C182.601 51.5143 182.601 51.1875 182.586 51.1018V51.0669C181.992 40.3911 173.08 32.0286 162.292 32.0286C151.526 32.0286 142.613 40.4812 141.999 51.2509L141.968 51.8402H141.928Z" fill="url(#paint7_linear_125_315)"/>
<path opacity="0.8" d="M170.912 60.5347C175.634 55.8244 175.634 48.1874 170.912 43.477C166.191 38.7667 158.536 38.7667 153.815 43.477C149.093 48.1874 149.093 55.8244 153.815 60.5347C158.536 65.2451 166.191 65.2451 170.912 60.5347Z" fill="white"/>
<path d="M162.363 64.742C155.324 64.742 149.598 59.0277 149.598 52.0063C149.598 44.9849 155.325 39.2706 162.363 39.2706C169.401 39.2706 175.129 44.9849 175.129 52.0063C175.129 59.0277 169.402 64.742 162.363 64.742ZM162.363 40.6179C160.106 40.6177 157.898 41.2855 156.021 42.5367C154.144 43.788 152.681 45.5666 151.816 47.6475C150.952 49.7285 150.726 52.0183 151.166 54.2275C151.607 56.4367 152.694 58.466 154.29 60.0588C155.887 61.6516 157.921 62.7363 160.135 63.1758C162.349 63.6153 164.645 63.3898 166.731 62.5279C168.816 61.6659 170.599 60.2063 171.854 58.3334C173.108 56.4606 173.778 54.2587 173.778 52.0063C173.774 48.9871 172.57 46.0926 170.43 43.9577C168.291 41.8228 165.39 40.6217 162.363 40.6179Z" fill="url(#paint8_linear_125_315)"/>
<path d="M150.894 39.4474C150.852 39.4481 150.811 39.4358 150.777 39.4122C150.742 39.3886 150.716 39.3548 150.701 39.3156C150.687 39.2764 150.685 39.2337 150.695 39.1933C150.706 39.1529 150.729 39.1169 150.762 39.0902C154.164 36.1783 158.498 34.5776 162.98 34.5777C163.008 34.5759 163.036 34.5797 163.062 34.5891C163.088 34.5984 163.112 34.613 163.133 34.632C163.153 34.6509 163.169 34.6738 163.18 34.6993C163.191 34.7247 163.197 34.7522 163.197 34.78C163.197 34.8077 163.191 34.8352 163.18 34.8606C163.169 34.8861 163.153 34.909 163.133 34.9279C163.112 34.9469 163.088 34.9615 163.062 34.9708C163.036 34.9802 163.008 34.984 162.98 34.9822C158.595 34.9819 154.354 36.5481 151.026 39.3974C150.989 39.4296 150.943 39.4474 150.894 39.4474Z" fill="white"/>
<path d="M144.42 53.5009C144.366 53.5009 144.315 53.4797 144.277 53.4418C144.239 53.404 144.218 53.3526 144.218 53.2991C144.214 49.8178 145.186 46.4048 147.024 43.4455C147.053 43.4 147.098 43.3674 147.15 43.3551C147.202 43.3428 147.257 43.3517 147.303 43.3799C147.349 43.4081 147.381 43.4532 147.394 43.5054C147.406 43.5576 147.397 43.6125 147.369 43.658C145.57 46.5549 144.62 49.896 144.625 53.3036C144.624 53.3568 144.602 53.4074 144.563 53.4443C144.525 53.4813 144.473 53.5016 144.42 53.5009Z" fill="white"/>
<path d="M88.6982 127.639C88.6033 127.818 82.6465 132.193 82.6465 132.193C82.6465 132.193 83.9621 141.581 89.3041 145.288C95.1768 149.365 103.47 141.931 103.47 141.931C103.47 141.931 110.071 143.497 113.583 129.788C114.389 126.644 109.735 126.378 104.129 126.957C96.8924 127.703 88.6982 127.639 88.6982 127.639Z" fill="url(#paint9_linear_125_315)"/>
<path d="M77.5642 159.671C79.8916 158.069 82.4731 156.87 85.2 156.125C86.2256 155.846 91.7654 157.453 95.1895 157.375C99.8898 157.268 104.676 155.133 108.549 156.096C112.398 157.054 115.548 158.304 117.367 159.594C122.811 163.457 126.008 170.665 127.956 177.796C124.268 181.573 119.625 183.252 119.625 183.252L118.768 217.933L98.2118 228.426L74.7523 216.673L75.5926 182.781C75.5926 182.781 68.1421 179.32 67.5953 178.06C67.0485 176.8 70.9908 164.179 77.5642 159.671Z" fill="url(#paint10_linear_125_315)"/>
<path d="M67.9425 177.909C67.9425 177.909 57.9584 205.524 80.7252 216.875C85.4532 216.25 83.6347 208.416 83.6347 208.416C83.6347 208.416 73.7445 206.23 76.7131 183.195C73.9781 180.949 67.9425 177.909 67.9425 177.909Z" fill="url(#paint11_linear_125_315)"/>
<path d="M127.478 177.909C127.478 177.909 134.348 206.735 114.695 216.873C109.968 216.248 111.785 208.414 111.785 208.414C111.785 208.414 119.759 204.497 118.707 183.195C121.446 180.949 127.478 177.909 127.478 177.909Z" fill="url(#paint12_linear_125_315)"/>
<path d="M119.196 188.442H74.8434C74.6432 188.442 74.481 188.604 74.481 188.804V218.451C74.481 218.651 74.6432 218.813 74.8434 218.813H119.196C119.396 218.813 119.558 218.651 119.558 218.451V188.804C119.558 188.604 119.396 188.442 119.196 188.442Z" fill="url(#paint13_linear_125_315)"/>
<path d="M139.331 227.817C134.171 226.636 122.249 227.271 122.249 227.271L121.763 228.581L120.958 235.094C120.958 235.094 132.312 237.135 137.909 237.13C138.442 237.132 138.971 237.053 139.48 236.896C139.65 236.744 139.817 236.585 139.975 236.413C142.352 233.826 141.666 230.025 139.331 227.817Z" fill="url(#paint14_linear_125_315)"/>
<path d="M139.842 227.946C139.68 227.902 139.509 227.857 139.331 227.818C141.666 230.026 142.352 233.827 139.978 236.414C139.82 236.586 139.653 236.745 139.483 236.897C143.681 235.592 144.178 229.163 139.842 227.946Z" fill="url(#paint15_linear_125_315)"/>
<path d="M118.823 226.904L120.842 226.993C121.926 227.038 122.948 227.566 123.678 228.455C124.418 229.378 124.789 230.542 124.719 231.721C124.677 232.656 124.287 233.542 123.626 234.205C123.319 234.513 122.949 234.752 122.541 234.906C122.134 235.06 121.698 235.126 121.263 235.098L118.175 234.879L118.823 226.904Z" fill="url(#paint16_linear_125_315)"/>
<path d="M50.9345 227.19C56.1253 226.167 68.0228 227.167 68.0228 227.167L68.4703 228.492L69.1102 235.027C69.1102 235.027 57.7093 236.723 52.1141 236.545C51.5816 236.53 51.0545 236.435 50.5506 236.263C50.3841 236.104 50.2212 235.941 50.0673 235.764C47.7628 233.105 48.5441 229.326 50.9345 227.19Z" fill="url(#paint17_linear_125_315)"/>
<path d="M50.4202 227.304C50.5831 227.263 50.7546 227.225 50.9348 227.19C48.5443 229.326 47.7631 233.104 50.072 235.762C50.226 235.94 50.3889 236.102 50.5553 236.26C46.3911 234.829 46.0546 228.388 50.4202 227.304Z" fill="url(#paint18_linear_125_315)"/>
<path d="M71.457 226.905L69.4371 226.93C68.3515 226.943 67.316 227.438 66.5651 228.305C65.8015 229.206 65.4015 230.358 65.4429 231.538C65.4617 232.475 65.8288 233.372 66.473 234.055C66.7716 234.372 67.1347 234.623 67.5381 234.79C67.9415 234.956 68.3759 235.035 68.8124 235.021L71.9053 234.897L71.457 226.905Z" fill="url(#paint19_linear_125_315)"/>
<path d="M140.777 207.401C138.437 202.029 132.715 201.157 127.845 203.669C127.761 203.779 96.9177 219.55 69.7173 226.462C70.4959 228.952 70.8968 231.602 70.9837 234.206C70.9998 234.787 70.9905 235.359 70.9559 235.924C91.8138 234.853 114.451 227.915 133.904 221.817C139.932 219.876 143.366 213.354 140.777 207.401Z" fill="url(#paint20_linear_125_315)"/>
<path d="M118.97 234.615C118.889 231.612 119.474 228.817 120.726 226.23C120.762 226.112 120.804 225.997 120.842 225.88C119.289 225.401 117.282 224.751 114.647 223.858C95.3317 217.264 80.5972 210.605 66.5347 202.94C61.0755 199.962 54.86 201.958 53.1104 208.407C51.5487 214.164 54.9773 219.079 60.1805 220.807C75.7474 225.975 67.6427 224.539 72.726 226.172C86.3804 230.384 103.368 234.221 119.003 235.268C118.992 235.05 118.978 234.832 118.97 234.615Z" fill="url(#paint21_linear_125_315)"/>
<path d="M85.1997 156.125C85.1997 156.125 87.2769 165.106 97.3613 164.92C107.634 164.733 108.548 156.095 108.548 156.095L101.836 154.667L101.275 147.208L91.1816 147.954L90.9945 155.04L85.1997 156.125Z" fill="url(#paint22_linear_125_315)"/>
<path d="M92.6057 126.071C92.6057 126.071 81.0384 148.424 94.759 153.847C104.437 157.672 110.505 139.003 108.695 133.946C105.897 126.129 104.054 127.056 104.054 127.056L92.6057 126.071Z" fill="url(#paint23_linear_125_315)"/>
<path d="M111.479 124.038C117.193 125.604 112.309 137.966 103.707 135.044C95.1046 132.121 91.7225 132.163 90.3828 134.52C89.043 136.876 88.754 145.246 85.8454 141.109C82.6557 136.574 80.8775 127.471 84.7875 124.537C88.2823 121.913 89.0976 117.847 93.2896 117.988C98.8535 118.175 103.156 115.715 105.667 117.489C108.549 119.527 107.274 122.884 111.479 124.038Z" fill="url(#paint24_linear_125_315)"/>
<path d="M89.8536 136.442C89.8536 136.442 87.3871 133.794 86.9897 136.986C86.5924 140.178 87.8623 144.287 89.3479 142.035C90.8335 139.782 89.8536 136.442 89.8536 136.442Z" fill="url(#paint25_linear_125_315)"/>
<path d="M99.6784 196.667C99.9174 198.274 99.0519 199.74 97.441 199.979C97.0569 200.037 96.6654 200.017 96.2887 199.923C95.912 199.829 95.5576 199.662 95.2458 199.431C94.934 199.2 94.6709 198.91 94.4715 198.578C94.2722 198.245 94.1405 197.877 94.084 197.494C93.8451 195.887 94.5843 194.279 96.1988 194.043C97.8133 193.806 99.4395 195.055 99.6784 196.667Z" fill="#7D97F4"/>
<path d="M65.9396 31.6794L69.6984 45.1902C69.9512 46.0964 70.0057 47.0462 69.8582 47.9753C69.7107 48.9044 69.3648 49.791 68.8437 50.575C66.1929 54.5571 59.7152 61.7482 45.9749 65.4161C32.0226 69.142 24.1228 65.3089 20.7237 62.7839C19.4934 61.8699 18.5979 60.5782 18.1749 59.1071L14.0581 44.7982L65.9396 31.6794Z" fill="url(#paint26_linear_125_315)"/>
<path d="M36.1939 14.2857L75.2739 25.2089C77.2858 25.7714 77.8568 28.3447 76.2682 29.7C68.5215 36.3072 50.9159 51.7054 44.2485 60.6464C43.9011 61.1108 43.4084 61.4464 42.8484 61.6C42.2883 61.7537 41.6929 61.7166 41.1564 61.4946L1.61543 45.1652C1.20501 44.9959 0.84461 44.7251 0.56828 44.3783C0.291951 44.0314 0.108813 43.62 0.0361662 43.1829C-0.0364804 42.7458 0.00376306 42.2975 0.153095 41.8802C0.302427 41.463 0.555917 41.0906 0.889619 40.7982C8.56029 34.0786 28.0838 17.2554 34.4299 14.4143C34.9847 14.1667 35.6089 14.1212 36.1939 14.2857Z" fill="url(#paint27_linear_125_315)"/>
<path d="M37.0394 34.4286C37.0394 34.4286 16.2048 47.5393 14.6172 50.5357C13.0295 53.5322 16.2281 67.1429 16.2281 67.1429C12.949 78.6679 12.463 91.1822 18.0028 97.7295C18.0028 97.7295 24.834 82.5741 21.7822 76.1866C18.7304 69.7991 17.5544 67.1804 17.5544 67.1804C17.5544 67.1804 14.883 52.6688 15.7269 50.5938C15.7269 50.5938 38.8078 35.2589 37.0394 34.4286Z" fill="url(#paint28_linear_125_315)"/>
<path d="M70.0152 28.825L50.0147 48.508L45.0164 53.4286L43.7634 54.6589L43.137 55.2678C42.9405 55.4571 42.7234 55.6239 42.4899 55.7652C42.0207 56.0506 41.4941 56.2292 40.9478 56.2885C40.4014 56.3478 39.8487 56.2861 39.3289 56.108L26.0138 51.6589C25.9633 51.6419 25.9082 51.6455 25.8604 51.669C25.8127 51.6926 25.7762 51.734 25.7592 51.7844C25.7421 51.8347 25.7457 51.8897 25.7693 51.9373C25.7929 51.985 25.8345 52.0213 25.8849 52.0384L39.1696 56.5919C39.9096 56.8503 40.7067 56.9002 41.4732 56.7361C42.2397 56.5719 42.9461 56.2001 43.5146 55.6616L44.1474 55.05L45.4075 53.8294L50.4443 48.9464L70.5933 29.4152C70.6323 29.3774 70.6634 29.3324 70.6849 29.2826C70.7064 29.2328 70.7179 29.1793 70.7187 29.1252C70.7195 29.071 70.7096 29.0172 70.6895 28.9668C70.6695 28.9165 70.6397 28.8705 70.6018 28.8317C70.564 28.7928 70.5188 28.7617 70.469 28.7403C70.4191 28.7188 70.3655 28.7074 70.3112 28.7066C70.2569 28.7058 70.2029 28.7157 70.1525 28.7357C70.102 28.7557 70.0559 28.7854 70.017 28.8232L70.0152 28.825Z" fill="#BDD0FB"/>
<path d="M17.7509 74.1491L17.7902 74.1911L17.8368 74.2456L17.9263 74.3563L18.1053 74.5982C18.2234 74.7607 18.3281 74.9402 18.4409 75.1107L18.7371 75.6554C18.8266 75.8411 18.9107 76.0331 18.9984 76.2224C19.0862 76.4118 19.1636 76.6058 19.2302 76.8036C19.3 77.0009 19.377 77.1956 19.4414 77.3956L19.6115 78.0027C19.6741 78.2037 19.7261 78.4079 19.7672 78.6143L19.8916 79.2393C19.9384 79.4457 19.9746 79.6543 19.9999 79.8643C20.05 80.2848 20.1064 80.7054 20.1511 81.1268L20.2129 82.4C20.2129 82.5063 20.2254 82.6125 20.2254 82.7188L20.2263 83.0357L20.2111 83.675C20.2183 84.5286 20.1019 85.3768 20.0321 86.2286C20.0178 86.4429 19.9829 86.6536 19.9489 86.8643L19.8468 87.5C19.7779 87.9223 19.718 88.3465 19.6428 88.7679C19.4531 89.6036 19.2848 90.4447 19.0772 91.2786L18.3764 93.7581V93.7661C18.3687 93.8016 18.3746 93.8387 18.3932 93.87C18.4117 93.9012 18.4414 93.9244 18.4764 93.9346C18.5113 93.9449 18.5488 93.9417 18.5814 93.9255C18.614 93.9093 18.6393 93.8814 18.6521 93.8473L19.4217 91.3706C19.65 90.5357 19.8451 89.692 20.0581 88.8527C20.1476 88.4286 20.2183 88.0009 20.2988 87.575L20.4169 86.9348C20.4572 86.7223 20.4984 86.509 20.5181 86.292C20.6076 85.4295 20.7516 84.5697 20.7678 83.6973L20.8 83.0447L20.8161 82.7188C20.8161 82.6099 20.8161 82.5 20.8107 82.3911L20.7821 81.0813C20.7481 80.6456 20.7006 80.2098 20.6604 79.7741C20.646 79.5554 20.5995 79.3393 20.5637 79.1232L20.4518 78.4732C20.4214 78.2554 20.3579 78.0438 20.306 77.8295L20.1431 77.1875C20.0813 76.975 20.0053 76.767 19.9363 76.5563C19.8712 76.3439 19.7944 76.1353 19.7063 75.9313C19.6168 75.7259 19.5363 75.5188 19.4423 75.3161L19.1354 74.7179C19.0163 74.525 18.908 74.3277 18.7774 74.1384L18.5778 73.8563L18.4659 73.717L18.4095 73.6473L18.3397 73.5697C18.265 73.4928 18.1633 73.4479 18.0561 73.4443C17.9488 73.4408 17.8443 73.4789 17.7647 73.5506C17.685 73.6223 17.6363 73.7221 17.6289 73.8289C17.6215 73.9357 17.6559 74.0412 17.7249 74.1232L17.7303 74.1277L17.7509 74.1491Z" fill="#BDD0FB"/>
<path d="M17.1143 79.5134V80.3241L17.1071 81.2384L17.0839 83.0706L17.0203 86.7375L16.8726 94.0732C16.8718 94.1027 16.8768 94.132 16.8874 94.1596C16.898 94.1871 16.914 94.2122 16.9344 94.2336C16.9547 94.2549 16.9792 94.272 17.0062 94.2839C17.0332 94.2957 17.0624 94.3021 17.0919 94.3027C17.1506 94.3037 17.2074 94.2819 17.2503 94.242C17.2932 94.202 17.3189 94.1469 17.3219 94.0884L17.6584 86.7581L17.8159 83.0911L17.8875 81.2563L17.918 80.3375L17.9296 79.8741L17.9341 79.6402C17.9341 79.5402 17.9269 79.4215 17.9162 79.3143C17.9114 79.2078 17.8644 79.1074 17.7856 79.0354C17.7067 78.9634 17.6024 78.9257 17.4955 78.9304C17.3887 78.9351 17.2882 78.982 17.216 79.0607C17.1438 79.1394 17.106 79.2435 17.1107 79.35L17.1143 79.5134Z" fill="#BDD0FB"/>
<path d="M210.872 180.14C210.872 180.14 208.731 166.842 215.274 162.54C215.341 162.499 215.418 162.477 215.497 162.475C215.576 162.473 215.653 162.493 215.723 162.531C215.792 162.568 215.849 162.624 215.89 162.691C215.931 162.759 215.953 162.836 215.954 162.914V165.446C215.953 165.581 215.992 165.713 216.066 165.826C216.14 165.938 216.246 166.027 216.37 166.081C216.493 166.134 216.63 166.15 216.763 166.126C216.896 166.103 217.019 166.041 217.117 165.948C218.526 164.623 221.046 162.612 223.719 162.192C223.88 162.165 224.044 162.182 224.195 162.242C224.346 162.301 224.478 162.4 224.577 162.528C224.676 162.657 224.738 162.81 224.757 162.971C224.775 163.132 224.75 163.294 224.682 163.442C223.043 166.938 218.751 176.737 218.914 183.156L210.872 180.14Z" fill="#7D97F4"/>
<path d="M203.925 180.137L199.545 250H225.798V182.087C225.796 181.134 225.497 180.206 224.941 179.433C224.384 178.659 223.599 178.078 222.696 177.771C219.222 176.587 213.317 175.11 207.517 176.137C206.555 176.305 205.678 176.791 205.027 177.516C204.375 178.241 203.987 179.164 203.925 180.137Z" fill="url(#paint29_linear_125_315)"/>
<path d="M203.995 224.135L203.105 243.615C203.088 243.998 203.148 244.38 203.283 244.739C203.418 245.098 203.624 245.425 203.889 245.702C204.155 245.979 204.473 246.2 204.827 246.35C205.18 246.501 205.56 246.579 205.944 246.579H219.203C219.957 246.579 220.68 246.28 221.213 245.748C221.746 245.217 222.045 244.496 222.045 243.744V224.263C222.045 223.512 221.745 222.791 221.212 222.259C220.68 221.728 219.957 221.429 219.203 221.429H206.833C206.102 221.429 205.399 221.71 204.87 222.214C204.341 222.718 204.028 223.406 203.995 224.135Z" fill="#7D97F4"/>
<path d="M251.067 250V177.781C251.069 176.902 250.788 176.046 250.266 175.338C249.744 174.63 249.009 174.108 248.167 173.848C240.438 171.493 233.716 172.812 230.188 173.906C229.426 174.141 228.76 174.613 228.286 175.253C227.812 175.893 227.557 176.667 227.556 177.462V250H251.067Z" fill="url(#paint30_linear_125_315)"/>
<path opacity="0.37" d="M229.883 178.988L230.453 189.649C230.487 190.289 230.765 190.892 231.232 191.333C231.698 191.774 232.316 192.02 232.959 192.019H245.548C246.199 192.019 246.825 191.767 247.293 191.315C247.761 190.863 248.034 190.247 248.054 189.597L248.396 179.078C248.416 178.493 248.229 177.921 247.87 177.459C247.51 176.998 247 176.677 246.427 176.552C243.369 175.894 237.353 174.988 231.785 176.424C231.22 176.566 230.721 176.9 230.375 177.367C230.028 177.835 229.854 178.408 229.883 178.988Z" fill="url(#paint31_linear_125_315)"/>
<path opacity="0.37" d="M230.861 196.613C230.904 197.247 231.187 197.84 231.653 198.273C232.118 198.705 232.731 198.945 233.367 198.944H245.419C245.753 198.944 246.083 198.877 246.391 198.748C246.698 198.619 246.977 198.431 247.211 198.193C247.444 197.955 247.627 197.673 247.75 197.363C247.873 197.054 247.932 196.723 247.925 196.39C247.913 195.735 247.643 195.112 247.175 194.653C246.706 194.194 246.076 193.937 245.419 193.938H233.363C233.019 193.937 232.679 194.008 232.363 194.144C232.047 194.281 231.763 194.481 231.529 194.732C231.294 194.983 231.113 195.28 230.999 195.603C230.884 195.927 230.837 196.271 230.861 196.613Z" fill="url(#paint32_linear_125_315)"/>
<path d="M171.056 179.798L173.968 249.931H198.832L200.716 179.018C200.745 178.068 200.46 177.136 199.906 176.363C199.351 175.591 198.558 175.022 197.648 174.744C189.563 172.322 181.532 172.085 173.597 175.702C172.814 176.056 172.154 176.634 171.701 177.364C171.248 178.093 171.024 178.941 171.056 179.798Z" fill="url(#paint33_linear_125_315)"/>
<path d="M173.32 182.43L173.616 186.244C173.659 186.799 173.919 187.316 174.34 187.682C174.76 188.048 175.308 188.235 175.865 188.203L196.181 187.024C196.697 186.994 197.184 186.779 197.552 186.417C197.92 186.056 198.144 185.574 198.183 185.06L198.381 182.426C198.403 182.134 198.364 181.841 198.267 181.565C198.17 181.289 198.017 181.036 197.817 180.821C197.618 180.607 197.376 180.436 197.107 180.319C196.839 180.202 196.549 180.141 196.255 180.141H175.448C175.154 180.141 174.863 180.201 174.594 180.318C174.324 180.436 174.082 180.607 173.882 180.822C173.683 181.037 173.53 181.291 173.433 181.568C173.336 181.844 173.298 182.138 173.32 182.43Z" fill="#7D97F4"/>
<path d="M174.159 191.543V192.935C174.159 193.189 174.21 193.441 174.31 193.675C174.41 193.909 174.556 194.121 174.74 194.297C174.924 194.473 175.142 194.611 175.38 194.701C175.619 194.792 175.873 194.833 176.128 194.823L195.587 194.013C196.075 193.993 196.537 193.785 196.875 193.433C197.213 193.081 197.402 192.613 197.402 192.125V190.649C197.402 190.394 197.35 190.141 197.25 189.906C197.149 189.671 197.001 189.459 196.816 189.282C196.631 189.106 196.412 188.969 196.172 188.879C195.932 188.789 195.677 188.749 195.421 188.761L175.962 189.654C175.476 189.677 175.017 189.886 174.681 190.238C174.345 190.59 174.158 191.057 174.159 191.543Z" fill="#7D97F4"/>
</g>
<defs>
<linearGradient id="paint0_linear_125_315" x1="282.959" y1="322.567" x2="61.4558" y2="46.8267" gradientUnits="userSpaceOnUse">
<stop stop-color="#DAE3FE"/>
<stop offset="1" stop-color="#E9EFFD"/>
</linearGradient>
<linearGradient id="paint1_linear_125_315" x1="22552.2" y1="3853.9" x2="23461.7" y2="3853.9" gradientUnits="userSpaceOnUse">
<stop stop-color="#DAE3FE"/>
<stop offset="1" stop-color="#E9EFFD"/>
</linearGradient>
<linearGradient id="paint2_linear_125_315" x1="52531.5" y1="9417.82" x2="57814.9" y2="9417.82" gradientUnits="userSpaceOnUse">
<stop stop-color="#DAE3FE"/>
<stop offset="1" stop-color="#E9EFFD"/>
</linearGradient>
<linearGradient id="paint3_linear_125_315" x1="13391.1" y1="1436.68" x2="13812.7" y2="1436.68" gradientUnits="userSpaceOnUse">
<stop stop-color="#DAE3FE"/>
<stop offset="1" stop-color="#E9EFFD"/>
</linearGradient>
<linearGradient id="paint4_linear_125_315" x1="31739.2" y1="3549" x2="34258" y2="3549" gradientUnits="userSpaceOnUse">
<stop stop-color="#DAE3FE"/>
<stop offset="1" stop-color="#E9EFFD"/>
</linearGradient>
<linearGradient id="paint5_linear_125_315" x1="156.982" y1="83.8825" x2="167.267" y2="22.0265" gradientUnits="userSpaceOnUse">
<stop stop-color="#FE7062"/>
<stop offset="1" stop-color="#FF928E"/>
</linearGradient>
<linearGradient id="paint6_linear_125_315" x1="73656.4" y1="43087.4" x2="79406.2" y2="11519.5" gradientUnits="userSpaceOnUse">
<stop stop-color="#FE7062"/>
<stop offset="1" stop-color="#FF928E"/>
</linearGradient>
<linearGradient id="paint7_linear_125_315" x1="192.272" y1="7.75624" x2="142.545" y2="89.4038" gradientUnits="userSpaceOnUse">
<stop stop-color="#E1473D"/>
<stop offset="1" stop-color="#E9605A"/>
</linearGradient>
<linearGradient id="paint8_linear_125_315" x1="55607.3" y1="4760.66" x2="38883.3" y2="23357.6" gradientUnits="userSpaceOnUse">
<stop stop-color="#E1473D"/>
<stop offset="1" stop-color="#E9605A"/>
</linearGradient>
<linearGradient id="paint9_linear_125_315" x1="97.5054" y1="142.215" x2="98.1824" y2="130.224" gradientUnits="userSpaceOnUse">
<stop stop-color="#09005D"/>
<stop offset="1" stop-color="#1A0F91"/>
</linearGradient>
<linearGradient id="paint10_linear_125_315" x1="72185.2" y1="135830" x2="30965.6" y2="210395" gradientUnits="userSpaceOnUse">
<stop stop-color="#FE7062"/>
<stop offset="1" stop-color="#FF928E"/>
</linearGradient>
<linearGradient id="paint11_linear_125_315" x1="62.8413" y1="170.484" x2="101.747" y2="264.686" gradientUnits="userSpaceOnUse">
<stop stop-color="#FEBBBA"/>
<stop offset="1" stop-color="#FF928E"/>
</linearGradient>
<linearGradient id="paint12_linear_125_315" x1="111873" y1="74489" x2="87861.2" y2="100092" gradientUnits="userSpaceOnUse">
<stop stop-color="#FEBBBA"/>
<stop offset="1" stop-color="#FF928E"/>
</linearGradient>
<linearGradient id="paint13_linear_125_315" x1="49203.1" y1="62306.4" x2="48738.1" y2="90263.9" gradientUnits="userSpaceOnUse">
<stop stop-color="#09005D"/>
<stop offset="1" stop-color="#1A0F91"/>
</linearGradient>
<linearGradient id="paint14_linear_125_315" x1="27910.9" y1="26199.2" x2="32799.6" y2="26236.8" gradientUnits="userSpaceOnUse">
<stop stop-color="#09005D"/>
<stop offset="1" stop-color="#1A0F91"/>
</linearGradient>
<linearGradient id="paint15_linear_125_315" x1="154.997" y1="8.42722" x2="137.067" y2="295.716" gradientUnits="userSpaceOnUse">
<stop stop-color="#4042E2"/>
<stop offset="1" stop-color="#4F52FF"/>
</linearGradient>
<linearGradient id="paint16_linear_125_315" x1="10007.2" y1="18010.6" x2="7587.46" y2="23247.3" gradientUnits="userSpaceOnUse">
<stop stop-color="#FEBBBA"/>
<stop offset="1" stop-color="#FF928E"/>
</linearGradient>
<linearGradient id="paint17_linear_125_315" x1="132547" y1="27722.4" x2="127673" y2="27624.7" gradientUnits="userSpaceOnUse">
<stop stop-color="#09005D"/>
<stop offset="1" stop-color="#1A0F91"/>
</linearGradient>
<linearGradient id="paint18_linear_125_315" x1="21976.9" y1="-1903.61" x2="25323.5" y2="26922.8" gradientUnits="userSpaceOnUse">
<stop stop-color="#4042E2"/>
<stop offset="1" stop-color="#4F52FF"/>
</linearGradient>
<linearGradient id="paint19_linear_125_315" x1="6562.14" y1="16162.1" x2="4160.76" y2="21342.7" gradientUnits="userSpaceOnUse">
<stop stop-color="#FEBBBA"/>
<stop offset="1" stop-color="#FF928E"/>
</linearGradient>
<linearGradient id="paint20_linear_125_315" x1="85329.9" y1="82682.7" x2="75943.1" y2="128614" gradientUnits="userSpaceOnUse">
<stop stop-color="#4042E2"/>
<stop offset="1" stop-color="#4F52FF"/>
</linearGradient>
<linearGradient id="paint21_linear_125_315" x1="86234.2" y1="47056.7" x2="80853.8" y2="86229.4" gradientUnits="userSpaceOnUse">
<stop stop-color="#4042E2"/>
<stop offset="1" stop-color="#4F52FF"/>
</linearGradient>
<linearGradient id="paint22_linear_125_315" x1="25426" y1="35513.7" x2="25347.9" y2="26562.1" gradientUnits="userSpaceOnUse">
<stop stop-color="#FEBBBA"/>
<stop offset="1" stop-color="#FF928E"/>
</linearGradient>
<linearGradient id="paint23_linear_125_315" x1="20146.9" y1="35305" x2="22819.9" y2="23153.9" gradientUnits="userSpaceOnUse">
<stop stop-color="#FEBBBA"/>
<stop offset="1" stop-color="#FF928E"/>
</linearGradient>
<linearGradient id="paint24_linear_125_315" x1="36644.5" y1="29994.1" x2="35567.8" y2="35268" gradientUnits="userSpaceOnUse">
<stop stop-color="#09005D"/>
<stop offset="1" stop-color="#1A0F91"/>
</linearGradient>
<linearGradient id="paint25_linear_125_315" x1="4455.42" y1="15396.6" x2="4248.7" y2="10404.1" gradientUnits="userSpaceOnUse">
<stop stop-color="#FEBBBA"/>
<stop offset="1" stop-color="#FF928E"/>
</linearGradient>
<linearGradient id="paint26_linear_125_315" x1="29961.3" y1="21353.3" x2="40614.5" y2="44851" gradientUnits="userSpaceOnUse">
<stop stop-color="#4042E2"/>
<stop offset="1" stop-color="#4F52FF"/>
</linearGradient>
<linearGradient id="paint27_linear_125_315" x1="35646.3" y1="-8585.58" x2="34651.6" y2="21793.2" gradientUnits="userSpaceOnUse">
<stop stop-color="#4042E2"/>
<stop offset="1" stop-color="#4F52FF"/>
</linearGradient>
<linearGradient id="paint28_linear_125_315" x1="-80183.9" y1="55100.5" x2="-120839" y2="97939" gradientUnits="userSpaceOnUse">
<stop stop-color="#4042E2"/>
<stop offset="1" stop-color="#4F52FF"/>
</linearGradient>
<linearGradient id="paint29_linear_125_315" x1="63116.4" y1="176983" x2="53307.8" y2="248377" gradientUnits="userSpaceOnUse">
<stop stop-color="#4042E2"/>
<stop offset="1" stop-color="#4F52FF"/>
</linearGradient>
<linearGradient id="paint30_linear_125_315" x1="87167.5" y1="25428.3" x2="47188.4" y2="49874.1" gradientUnits="userSpaceOnUse">
<stop stop-color="#09005D"/>
<stop offset="1" stop-color="#1A0F91"/>
</linearGradient>
<linearGradient id="paint31_linear_125_315" x1="51610.8" y1="30561.9" x2="49056.1" y2="36247.2" gradientUnits="userSpaceOnUse">
<stop stop-color="#4042E2"/>
<stop offset="1" stop-color="#4F52FF"/>
</linearGradient>
<linearGradient id="paint32_linear_125_315" x1="48608.2" y1="9642.97" x2="48303.1" y2="11688.5" gradientUnits="userSpaceOnUse">
<stop stop-color="#4042E2"/>
<stop offset="1" stop-color="#4F52FF"/>
</linearGradient>
<linearGradient id="paint33_linear_125_315" x1="77073.5" y1="114333" x2="-14273.2" y2="175665" gradientUnits="userSpaceOnUse">
<stop stop-color="#4042E2"/>
<stop offset="1" stop-color="#4F52FF"/>
</linearGradient>
<clipPath id="clip0_125_315">
<rect width="252" height="250" fill="white"/>
</clipPath>
</defs>
</svg>
